<svg id="Layer_1" data-name="Layer 1" xmlns="http://www.w3.org/2000/svg" viewBox="0 0 177.01 186.83"><defs><style>.cls-1{fill:#efd387;}.cls-2{fill:#0d1661;}.cls-3{fill:#fdf3f3;}.cls-4{fill:#ccc;opacity:0.44;isolation:isolate;}</style></defs><title>calendar</title><path class="cls-1" d="M181.75,29.13,38.26,5.55a5,5,0,0,0-5.71,4.13L25,56.25l1,.17,2.23.36,146.66,24.1,3.42.56,7.32-45.07.24-1.5A5,5,0,0,0,181.75,29.13ZM91.49,45.81a5.61,5.61,0,0,1-1.84,3.7,4.66,4.66,0,0,1-3.78.72,5.69,5.69,0,0,1-2.5-1,5.13,5.13,0,0,1-1.66-2.06l1.22-1a4.15,4.15,0,0,0,3.21,2.61q3,.49,3.63-3.13l1.62-10-6-1,.24-1.5,7.7,1.26Zm18.83,1.07a7.5,7.5,0,0,1-2.63,5,7.68,7.68,0,0,1-9.91-1.63,7.47,7.47,0,0,1-.91-5.63l1.53-9.45,1.73.29-1.52,9.37a6.29,6.29,0,0,0,.59,4.5,5.73,5.73,0,0,0,7.47,1.22,6.25,6.25,0,0,0,2-4.07l1.52-9.37,1.69.27Zm17.77,10.17-1.43-.23L118.3,41.71l-2.17,13.34-1.73-.29,2.67-16.48,1.43.24,8.39,15.1,2.17-13.37,1.7.28Z" transform="translate(-8.93 -5.49)"/><path class="cls-2" d="M85.4,34.63l6,1-1.62,10q-.59,3.63-3.63,3.13a4.15,4.15,0,0,1-3.21-2.61l-1.22,1a5.13,5.13,0,0,0,1.66,2.06,5.69,5.69,0,0,0,2.5,1,4.66,4.66,0,0,0,3.78-.72,5.61,5.61,0,0,0,1.84-3.7l1.85-11.42-7.7-1.26Z" transform="translate(-8.93 -5.49)"/><path class="cls-2" d="M108.65,46.53a6.25,6.25,0,0,1-2,4.07,5.73,5.73,0,0,1-7.47-1.22,6.29,6.29,0,0,1-.59-4.5l1.52-9.37-1.73-.29-1.53,9.45a7.47,7.47,0,0,0,.91,5.63,7.68,7.68,0,0,0,9.91,1.63,7.5,7.5,0,0,0,2.63-5l1.54-9.45-1.69-.27Z" transform="translate(-8.93 -5.49)"/><polygon class="cls-2" points="117.96 48.15 109.57 33.04 108.14 32.8 105.47 49.29 107.2 49.57 109.37 36.19 117.73 51.3 119.16 51.53 121.84 35.05 120.13 34.77 117.96 48.15"/><path class="cls-2" d="M87.16,96.45a15,15,0,0,0-16.28-2.68,16.13,16.13,0,0,0-6.72,6.09,30.2,30.2,0,0,0-3.48,21.48,16,16,0,0,0,4.44,7.91,15,15,0,0,0,16.28,2.68,16.41,16.41,0,0,0,6.74-6.08,29.78,29.78,0,0,0,3.48-21.48A16.22,16.22,0,0,0,87.16,96.45Zm.58,18.31a24.14,24.14,0,0,1-2.91,8.65,12.45,12.45,0,0,1-5,4.94,10.6,10.6,0,0,1-12.12-2,12.63,12.63,0,0,1-3.17-6.28,28.07,28.07,0,0,1,2.89-17.79,12.45,12.45,0,0,1,5-4.94,10.6,10.6,0,0,1,12.12,2,12.63,12.63,0,0,1,3.17,6.28A24.43,24.43,0,0,1,87.74,114.76Z" transform="translate(-8.93 -5.49)"/><polygon class="cls-2" points="114.96 111.72 111.02 111.07 109.53 120.25 92.41 117.44 116.73 95.13 112.22 94.39 87.05 117.26 86.58 120.2 108.83 123.86 107.14 134.29 111.19 134.95 112.88 124.53 120.77 125.82 121.36 122.19 113.47 120.9 114.96 111.72"/><path class="cls-3" d="M84.55,99.34a10.6,10.6,0,0,0-12.12-2,12.45,12.45,0,0,0-5,4.94,28.07,28.07,0,0,0-2.89,17.79,12.63,12.63,0,0,0,3.17,6.28,10.6,10.6,0,0,0,12.12,2,12.45,12.45,0,0,0,5-4.94,24.14,24.14,0,0,0,2.91-8.65,24.64,24.64,0,0,0,0-9.14A12.74,12.74,0,0,0,84.55,99.34Z" transform="translate(-8.93 -5.49)"/><path class="cls-3" d="M26,56.42l-1-.17L9,154.59a5.5,5.5,0,0,0,2.42,5.49l.29.17a5.4,5.4,0,0,0,1.79.64l101.37,16.49s6.51-18.66,10-29.1h0l.57-3.51a10.21,10.21,0,0,1,11.68-8.49h0l28,4.59,3.32.55-.34,2.13a56.34,56.34,0,0,1-1.48,6.16c-.4,1.25-.82,2.32-.91,2.53-.16.42-.55,1.39-1.13,2.61s-1.21,2.38-1.56,3c-.18.33-.5.87-.9,1.51a42,42,0,0,1-11.8,12.24,50.77,50.77,0,0,1-4.35,2.63c-3,1.66-4.6,2.25-8.41,4.22-1.74.89-3.13,1.66-4,2.15a28.16,28.16,0,0,0,26.8-10.56h0A28.33,28.33,0,0,0,166,157.14l12.28-75.69Zm65.93,59a26.76,26.76,0,0,1-3.77,10.41,16.41,16.41,0,0,1-6.74,6.08,15,15,0,0,1-16.28-2.68,16,16,0,0,1-4.44-7.91,30.2,30.2,0,0,1,3.48-21.48,16.13,16.13,0,0,1,6.72-6.09,15,15,0,0,1,16.28,2.68,16.22,16.22,0,0,1,4.46,7.92,26.58,26.58,0,0,1,.27,11.09Zm34,26.23a.89.89,0,0,0,0-.23,1,1,0,0,1,0,.25Zm3.76-10.36L121.8,130l-1.69,10.43-4-.66,1.69-10.43-22.25-3.66.48-2.94,25.16-22.87,4.51.74-24.33,22.31,17.13,2.81,1.49-9.18,3.94.65-1.49,9.18,7.89,1.29Z" transform="translate(-8.93 -5.49)"/><path class="cls-4" d="M165.13,140.88l-28-4.59a10.21,10.21,0,0,0-11.71,8.44v0l-.57,3.51h0c-3.46,10.44-10,29.1-10,29.1L13.47,160.89a5.4,5.4,0,0,1-1.79-.64l-.29-.17-.1.6A9,9,0,0,0,18.67,171l129,21.2a9,9,0,0,0,10.27-7.43l2.46-14.73h0a28.19,28.19,0,0,1-26.84,10.57c1-.57,2.57-1.42,4.49-2.42,4.43-2.3,6-2.83,8.56-4.3a44.15,44.15,0,0,0,6.89-4.67,47.41,47.41,0,0,0,8.63-9.85c.47-.75.9-1.51.9-1.51l.37-.65c.27-.5.5-.93.67-1.27l.16-.3.19-.39.17-.39c.31-.65.6-1.31.88-2,.08-.21.17-.41.25-.62.33-.83.63-1.68.91-2.54a1.53,1.53,0,0,1,.13-.45c.23-.73.43-1.48.62-2.24l.18-.73c.21-.9.4-1.81.55-2.74l.34-2.13Z" transform="translate(-8.93 -5.49)"/></svg>