<svg id="Layer_1" data-name="Layer 1" xmlns="http://www.w3.org/2000/svg" viewBox="0 0 30 30"><defs><style>.cls-1{fill:#f2f7f1;}</style></defs><title>menu-icon</title><path class="cls-1" d="M3,0A3,3,0,1,0,6,3,3,3,0,0,0,3,0Z" transform="translate(-0.03 -0.02)"/><path class="cls-1" d="M3,12a3,3,0,1,0,3,3A3,3,0,0,0,3,12Z" transform="translate(-0.03 -0.02)"/><path class="cls-1" d="M3,24a3,3,0,1,0,3,3A3,3,0,0,0,3,24Z" transform="translate(-0.03 -0.02)"/><path class="cls-1" d="M15,0a3,3,0,1,0,3,3A3,3,0,0,0,15,0Z" transform="translate(-0.03 -0.02)"/><path class="cls-1" d="M15,12a3,3,0,1,0,3,3A3,3,0,0,0,15,12Z" transform="translate(-0.03 -0.02)"/><path class="cls-1" d="M27,6a3,3,0,1,0-3-3A3,3,0,0,0,27,6Z" transform="translate(-0.03 -0.02)"/><path class="cls-1" d="M27,12a3,3,0,1,0,3,3A3,3,0,0,0,27,12Z" transform="translate(-0.03 -0.02)"/><path class="cls-1" d="M15,24a3,3,0,1,0,3,3A3,3,0,0,0,15,24Z" transform="translate(-0.03 -0.02)"/><path class="cls-1" d="M27,24a3,3,0,1,0,3,3A3,3,0,0,0,27,24Z" transform="translate(-0.03 -0.02)"/></svg>