<svg id="Layer_1" data-name="Layer 1" xmlns="http://www.w3.org/2000/svg" viewBox="0 0 177.01 186.82"><defs><style>.cls-1{fill:#efd387;}.cls-2{fill:#fdf3f3;}.cls-3{fill:#eae1e1;}</style></defs><title>calendar</title><path class="cls-1" d="M216,17.19,72.49-6.39a5,5,0,0,0-5.71,4.13L59.23,44.31l1,.17,2.23.36,146.66,24.1,3.42.56,7.32-45.07.24-1.5A5,5,0,0,0,216,17.19ZM125.72,33.87a5.61,5.61,0,0,1-1.84,3.7,4.62,4.62,0,0,1-3.78.72,5.64,5.64,0,0,1-2.5-1,5.05,5.05,0,0,1-1.66-2.06l1.22-1a4.13,4.13,0,0,0,3.21,2.61q3,.49,3.63-3.13l1.62-10-6-1,.24-1.5,7.7,1.26Zm18.83,1.07a7.55,7.55,0,0,1-2.63,5A7.68,7.68,0,0,1,132,38.31a7.41,7.41,0,0,1-.91-5.63l1.53-9.45,1.73.29-1.52,9.37a6.29,6.29,0,0,0,.59,4.5,5.72,5.72,0,0,0,7.47,1.22,6.29,6.29,0,0,0,2-4.07l1.52-9.37,1.69.27Zm17.77,10.17-1.43-.23-8.36-15.11-2.17,13.34-1.73-.29,2.67-16.48,1.43.24,8.39,15.1,2.17-13.37,1.7.28Z" transform="translate(-43.15 6.45)"/><path class="cls-2" d="M118.78,87.4a10.6,10.6,0,0,0-12.12-2,12.38,12.38,0,0,0-5,4.94,28,28,0,0,0-2.89,17.79,12.63,12.63,0,0,0,3.17,6.28,10.6,10.6,0,0,0,12.12,2,12.51,12.51,0,0,0,5-4.94,24.34,24.34,0,0,0,2.91-8.65,24.64,24.64,0,0,0,0-9.14A12.82,12.82,0,0,0,118.78,87.4Z" transform="translate(-43.15 6.45)"/><path class="cls-2" d="M60.23,44.48l-1-.17-16,98.34a5.48,5.48,0,0,0,2.42,5.49l.29.17a5.19,5.19,0,0,0,1.79.64L149.1,165.44s6.51-18.66,10-29.1h0l.57-3.51a10.21,10.21,0,0,1,11.68-8.49h0l28,4.59,3.32.55-.34,2.13a58.74,58.74,0,0,1-1.48,6.16c-.4,1.25-.82,2.32-.91,2.53-.16.42-.55,1.39-1.13,2.61s-1.21,2.38-1.56,3c-.18.33-.5.87-.9,1.51a42.1,42.1,0,0,1-11.8,12.24,50.77,50.77,0,0,1-4.35,2.63c-3,1.66-4.6,2.25-8.41,4.22-1.74.89-3.13,1.66-4,2.15a28.16,28.16,0,0,0,26.8-10.56h0a28.4,28.4,0,0,0,5.64-12.9l12.28-75.69Zm65.93,59a26.92,26.92,0,0,1-3.77,10.41,16.41,16.41,0,0,1-6.74,6.08,15,15,0,0,1-16.28-2.68,15.88,15.88,0,0,1-4.44-7.91A30.2,30.2,0,0,1,98.41,87.9a16.13,16.13,0,0,1,6.72-6.09,15,15,0,0,1,16.28,2.68,16.3,16.3,0,0,1,4.46,7.92,26.75,26.75,0,0,1,.27,11.09Zm34,26.23a.88.88,0,0,0,0-.23,1,1,0,0,1,0,.25Zm3.76-10.36L156,118.06l-1.69,10.43-4-.66L152,117.4l-22.25-3.66.48-2.94,25.16-22.87,4.51.74L135.6,111l17.13,2.81,1.49-9.18,3.94.65-1.49,9.18,7.89,1.29Z" transform="translate(-43.15 6.45)"/><path class="cls-3" d="M199.36,128.94l-28-4.59a10.21,10.21,0,0,0-11.71,8.44h0l-.57,3.51h0c-3.46,10.44-10,29.1-10,29.1L47.7,149a5.19,5.19,0,0,1-1.79-.64l-.29-.17-.1.6a9,9,0,0,0,7.38,10.32l129,21.2a9,9,0,0,0,10.27-7.43l2.46-14.73h0a28.19,28.19,0,0,1-26.84,10.57c1-.57,2.57-1.42,4.49-2.42,4.43-2.3,6-2.83,8.56-4.3a44.4,44.4,0,0,0,6.89-4.67,47.7,47.7,0,0,0,8.63-9.85c.47-.75.9-1.51.9-1.51l.37-.65c.27-.5.5-.93.67-1.27l.16-.3.19-.39.17-.39c.31-.65.6-1.31.88-2,.08-.21.17-.41.25-.62.33-.83.63-1.68.91-2.54a1.45,1.45,0,0,1,.13-.45c.23-.73.43-1.48.62-2.24l.18-.73c.21-.9.4-1.81.55-2.74l.34-2.13Z" transform="translate(-43.15 6.45)"/></svg>