<?xml version="1.0" encoding="utf-8"?>
<!-- Generator: Adobe Illustrator 23.0.3, SVG Export Plug-In . SVG Version: 6.00 Build 0)  -->
<svg version="1.1" id="Layer_1" xmlns="http://www.w3.org/2000/svg" xmlns:xlink="http://www.w3.org/1999/xlink" x="0px" y="0px"
	 viewBox="0 0 142.6 121.1" style="enable-background:new 0 0 142.6 121.1;" xml:space="preserve">
<style type="text/css">
	.st0{opacity:0.4;fill:#EFD387;enable-background:new    ;}
	.st1{fill:#EFD387;}
	.st2{fill:#F7E9C3;}
</style>
<title>comments</title>
<polygon class="st0" points="99.1,32.2 102.7,90.9 37.9,100.7 29.1,121.1 26.3,102.5 9,105.1 0,45.1 "/>
<polygon class="st1" points="35.1,17.1 48.9,74.2 113.7,64.4 128.1,81.2 125.3,62.6 142.6,60 133.6,0 "/>
<path class="st2" d="M76.9,41.3c0.3,1.6-0.9,3.2-2.5,3.4c-1.6,0.3-3.2-0.9-3.4-2.5c-0.3-1.6,0.8-3.1,2.5-3.4
	C75,38.5,76.6,39.6,76.9,41.3C76.8,41.2,76.8,41.3,76.9,41.3z"/>
<path class="st2" d="M95.2,38.5c0.3,1.6-0.9,3.2-2.5,3.4s-3.2-0.9-3.4-2.5c-0.3-1.6,0.9-3.2,2.5-3.4C93.3,35.7,94.9,36.8,95.2,38.5
	C95.2,38.5,95.2,38.5,95.2,38.5z"/>
<path class="st2" d="M113.5,35.7c0.2,1.6-0.9,3.2-2.5,3.4s-3.2-0.9-3.4-2.5c-0.2-1.6,0.9-3.1,2.5-3.4
	C111.7,32.9,113.2,34,113.5,35.7C113.5,35.7,113.5,35.7,113.5,35.7z"/>
</svg>
