<svg id="Layer_1" data-name="Layer 1" xmlns="http://www.w3.org/2000/svg" viewBox="0 0 140.87 117.26"><defs><style>.cls-1{fill:#c8c8c8;}.cls-2{opacity:0.4;}</style></defs><title>envilope</title><path class="cls-1" d="M111.07,117.12,1.27,74.67A2,2,0,0,1,.13,72.09L27.2,1.28A2,2,0,0,1,29.77.13l109.82,42.5a2,2,0,0,1,1.14,2.59h0L113.66,116A2,2,0,0,1,111.07,117.12Z"/><g class="cls-2"><path d="M135.77,46.3c0,.17-1.81,1-5.21,2.26s-8.35,3.11-14.48,5.28C103.81,58.2,86.8,64.06,67.93,70.39L67,70.7l-.5-.85-.38-.65C56,51.8,46.9,36,40.44,24.46,37.21,18.69,34.63,14,32.9,10.74s-2.62-5.12-2.47-5.21,1.31,1.58,3.3,4.69S38.52,17.86,42,23.5c6.84,11.28,16.15,27,26.3,44.36l.38.64L67.2,68c18.88-6.33,36-11.91,48.37-15.83,6.2-2,11.22-3.5,14.71-4.51S135.72,46.13,135.77,46.3Z"/></g><g class="cls-2"><path d="M53.46,45.59c.27.65-9.92,5.93-22.76,11.8S7.25,67.5,7,66.86s9.92-5.92,22.76-11.8S53.2,45,53.46,45.59Z"/></g><g class="cls-2"><path d="M92.66,60.76c.62-.29,5.52,10,10.92,23s9.27,23.8,8.64,24.09-5.52-10-10.92-23S92,61.05,92.66,60.76Z"/></g></svg>