<svg id="Layer_1" data-name="Layer 1" xmlns="http://www.w3.org/2000/svg" viewBox="0 0 160.46 163.32"><defs><style>.cls-1{fill:#b4b4b4;}</style></defs><title>gears</title><path class="cls-1" d="M117.92,88.65l9.39-8.53-5.48-12.63-12.68,2.66-7-9.21,3.46-15.54-13.11-6-8,7.21L73.71,42,71.45,29.79l-17.11,1L51.5,45l-8.17,3.87-11-7.49L18.33,49l2.51,13.56-6,7.67H3.07L0,89.18l8.56,2.35,1.73,12.61L.07,111.94,6,127.6l12.07,1,4.84,5.06-2.4,14.77,12.86,7.8,10.67-7.73,10,2.58,2.33,11.76,17.35.48,2.39-14.77,11.23-2.42,10.26,6.43,13.19-8.74-5.08-12.2,5-10.55,12.47.79,4.7-16-9.73-6.76ZM87.3,100l0,.18a23.43,23.43,0,1,1,0-.18Z"/><path class="cls-1" d="M156.56,27.75l-.08-4.19,3.76-3.42-2.19-5.05L153,16.15l-2.8-3.69,1.39-6.23-5.28-2.38-3.2,2.89-4.33-1.85L137.85,0,131,.39l-1.12,5.7-3.27,1.55-4.42-3L116.6,7.7l1,5.43-2.38,3.07H110.5l-1.23,7.58,3.43.94.69,5.05L109.3,32.9l2.38,6.27,4.84.42,1.93,2-1,5.92,5.16,3.13,4.27-3.1,4,1,.93,4.71,7,.19,1-5.92,4.5-1,4.11,2.58,5.29-3.5-2-4.89,2-4.23,4.86.4,1.89-6.42Zm-12.35.36v.08A9.44,9.44,0,0,1,133.42,36h0a9.45,9.45,0,1,1,10.79-7.88Z"/></svg>