<svg id="Layer_1" data-name="Layer 1" xmlns="http://www.w3.org/2000/svg" viewBox="0 0 341.2px 145.28px"><defs><style>.cls-1{fill:#fff;}.cls-2{fill:#efd387;}</style></defs><title>header-copy</title><path class="cls-1" d="M67.76,83.31A7.09,7.09,0,0,1,63,85c-2.35,0-3.95-.93-4.62-2.69h16c0-.67.13-1.56.13-2.23h0c0-7.77-5.84-11.88-12.65-11.88-7.43,0-13,4.91-13,11.88S54.31,92,62.76,92c4.57,0,7.81-1.26,10-3.7Zm-5.84-8.65h0a3.55,3.55,0,0,1,3.67,3.07H58.22A3.53,3.53,0,0,1,61.92,74.66Z"/><path class="cls-1" d="M434.13,84.18a4,4,0,0,1-2.14.63,2,2,0,0,1-2-2,1.93,1.93,0,0,1,0-.24V76.79h4.7V69.93H430V63.5H420.5v6.43h-3.15v6.93h3.15v5.88c0,6.34,3.69,9.32,10,9.32a12.28,12.28,0,0,0,5.84-1.22l-2.27-6.59Z"/><path class="cls-1" d="M308.16,80.05c0,7,5.46,11.93,13.9,11.93,4.58,0,7.81-1.26,10-3.7l-5-5A7.09,7.09,0,0,1,322.27,85c-2.35,0-3.95-.93-4.62-2.69h16c0-.67.13-1.56.13-2.23h0c0-7.77-5.84-11.88-12.64-11.88C313.72,68.17,308.16,73.08,308.16,80.05Zm13.08-5.42a3.57,3.57,0,0,1,3.7,3.07h-7.4A3.55,3.55,0,0,1,321.24,74.63Z"/><path class="cls-1" d="M403.43,75.74c0-.55.68-1.1,3.11-1.1a13.51,13.51,0,0,1,6.64,1.68l2.6-6.25a21.56,21.56,0,0,0-9.36-1.89c-7.73,0-11.76,3.52-11.76,7.85,0,9.2,13.23,6,13.23,8.4,0,.67-.63,1.09-2.94,1.09a16.68,16.68,0,0,1-8-2.06l-2.6,6.26c2.35,1.34,6.46,2.26,10.41,2.26,8,0,11.86-3.61,11.86-7.76C416.62,75,403.43,78.13,403.43,75.74Z"/><path class="cls-1" d="M115.46,60.43H106v9.74a7.92,7.92,0,0,0-5.84-2c-6,0-11.09,4.49-11.09,11.88S94.15,92,100.16,92c2.85,0,4.91-.76,6.3-2.31v1.89h9Zm-13,24.19c-2.1,0-3.74-1.56-3.74-4.54s1.64-4.49,3.74-4.49,3.73,1.51,3.73,4.49S104.53,84.62,102.43,84.62Z"/><path class="cls-1" d="M118.49,80.08c0,7,5.46,11.93,13.9,11.93,4.58,0,7.81-1.26,10-3.7l-5-5A7.09,7.09,0,0,1,132.6,85c-2.35,0-3.94-.93-4.62-2.69h16c.05-.67.13-1.56.13-2.23h0c0-7.77-5.84-11.88-12.64-11.88C124.06,68.2,118.49,73.11,118.49,80.08Zm16.82-2.35h-7.39a3.53,3.53,0,0,1,3.69-3.07A3.57,3.57,0,0,1,135.31,77.73Z"/><path class="cls-1" d="M404.77,92h0Z"/><path class="cls-1" d="M392.8,80.05h0c0-7.77-5.84-11.88-12.65-11.88-7.43,0-13,4.91-13,11.88S372.58,92,381,92c4.57,0,7.81-1.26,10-3.7l-4.95-5A7.09,7.09,0,0,1,381.29,85c-2.35,0-4-.93-4.62-2.69h16C392.67,81.61,392.8,80.72,392.8,80.05Zm-16.29-2.34a3.76,3.76,0,0,1,7.39,0Z"/><polygon class="cls-1" points="20.06 91.61 25.06 75.89 29.81 91.61 40.43 91.61 49.84 62.2 40.43 62.19 35.02 79.11 29.89 62.19 20.78 62.19 15.36 78.92 10.24 62.2 0.03 62.2 9.44 91.61 20.06 91.61"/><polygon class="cls-1" points="200.07 68.58 191.13 68.58 186.13 80.89 181.51 68.58 171.77 68.58 181.01 91.58 190.83 91.58 200.07 68.58"/><path class="cls-1" d="M213.66,92c4.58,0,7.81-1.26,10-3.7l-5-5A7.09,7.09,0,0,1,213.87,85c-2.35,0-4-.93-4.62-2.69h16c0-.67.13-1.56.13-2.23h0c0-7.77-5.84-11.88-12.64-11.88-7.44,0-13,4.91-13,11.88S205.22,92,213.66,92Zm-.82-17.35a3.57,3.57,0,0,1,3.7,3.07h-7.4A3.55,3.55,0,0,1,212.84,74.63Z"/><path class="cls-1" d="M358.9,81.38c0-3.65,2-4.95,4.87-4.95a11.37,11.37,0,0,1,2.1.17V68.2a9.57,9.57,0,0,0-7.43,2.89l0,0V68.59h-9v23h9.49Z"/><rect class="cls-1" x="160.84" y="68.59" width="9.5" height="23"/><path class="cls-1" d="M271.12,92.06A12.28,12.28,0,0,0,277,90.84l-2.27-6.59.1-.08a4,4,0,0,1-2.14.63,2,2,0,0,1-2-2,1.93,1.93,0,0,1,0-.24V76.78h4.71V69.93h-4.75V63.5h-9.49v6.43H258v6.93h3.15v5.88C261.12,89.08,264.82,92.06,271.12,92.06Z"/><path class="cls-1" d="M165.59,66.77c3.49,0,5.71-2.1,5.71-5,0-2.73-2.22-4.66-5.71-4.66s-5.71,2.1-5.71,4.83S162.1,66.77,165.59,66.77Z"/><path class="cls-1" d="M237.9,81.38c0-3.65,2-4.95,4.87-4.95a11.37,11.37,0,0,1,2.1.17V68.2a9.57,9.57,0,0,0-7.43,2.89l0,0V68.59h-9v23h9.49Z"/><path class="cls-1" d="M295.41,68.17a9.67,9.67,0,0,0-6.47,2.26v-10h-9.53V91.59h9.49V80.8c0-3.41,1.64-4.62,3.57-4.62,1.73,0,2.82,1.09,2.82,3.94V91.59h9.49V78.49c0-7.23-4.12-10.29-9.41-10.29Z"/><polygon class="cls-1" points="156.61 60.42 147.11 60.42 147.11 91.58 147.15 91.58 156.61 91.58 156.61 60.42"/><path class="cls-1" d="M421.77,9.93h-5v-.1c0-1.84.92-2.64,2.26-2.64a5.18,5.18,0,0,1,2.15.54l2.26-6.59A12.66,12.66,0,0,0,417.83,0c-6.56,0-10.25,3.82-10.25,9.74v.18h-3.15v6.93h3.15V31.64h9.49V16.81h4.7Z"/><path class="cls-1" d="M257.44,32c7.82,0,13.36-5,13.36-11.93S265.26,8.2,257.44,8.2s-13.35,4.91-13.35,11.88S249.67,32,257.44,32Zm0-16.42c2.1,0,3.74,1.51,3.74,4.49s-1.64,4.54-3.74,4.54-3.73-1.56-3.73-4.54S255.34,15.59,257.44,15.59Z"/><polygon class="cls-1" points="11.92 22.18 24.18 22.18 24.18 14.71 11.92 14.71 11.92 9.71 25.9 9.66 25.9 2.19 2 2.19 2 31.59 11.92 31.59 11.92 22.18"/><path class="cls-1" d="M283.37,32.05a9,9,0,0,0,6.51-2.6v2.18h9v-23h-9.44V19.41c0,3.4-1.6,4.62-3.24,4.62-1.85,0-3-1.09-3-4.37v-11h-9.49V21.34C273.71,28.82,277.87,32.05,283.37,32.05Z"/><path class="cls-1" d="M422.21,16.86h3.15v5.88c0,6.34,3.7,9.32,10,9.32a12.4,12.4,0,0,0,5.84-1.22l-2.26-6.57a3.92,3.92,0,0,1-2,.56,2,2,0,0,1-2-2,1.93,1.93,0,0,1,0-.24V16.81h4.67V9.93H434.9V3.5h-9.49V9.93h-3.2Z"/><path class="cls-1" d="M223.43,32.86a5.94,5.94,0,0,1-3.36-1.22l-3.15,6.51a12.19,12.19,0,0,0,7,2.06c4.87,0,8.56-1.81,11.08-8.11l9.46-23.43-9-.05-4.83,12.31-4.75-12.3h-9.74l9.66,23.3A2.89,2.89,0,0,1,223.43,32.86Z"/><path class="cls-1" d="M438.93,24.25v0l.14-.07Z"/><path class="cls-1" d="M40.48,32c7.81,0,13.35-5,13.35-11.93S48.29,8.2,40.48,8.2,27.12,13.11,27.12,20.08,32.71,32,40.48,32Zm0-16.42c2.1,0,3.73,1.51,3.73,4.49s-1.63,4.54-3.73,4.54-3.74-1.56-3.74-4.54S38.38,15.59,40.48,15.59Z"/><path class="cls-1" d="M160.43,32c7.81,0,13.35-5,13.35-11.93S168.24,8.2,160.43,8.2s-13.36,4.91-13.36,11.88S152.66,32,160.43,32Zm0-16.42c2.1,0,3.73,1.51,3.73,4.49s-1.63,4.54-3.73,4.54-3.74-1.56-3.74-4.54S158.33,15.59,160.43,15.59Z"/><path class="cls-1" d="M92.27,32.05a9,9,0,0,0,6.51-2.6v2.18h9v-23H98.27V19.41c0,3.4-1.6,4.62-3.24,4.62-1.84,0-3-1.09-3-4.37v-11H82.61V21.34C82.61,28.82,86.77,32.05,92.27,32.05Z"/><polygon class="cls-1" points="120.97 32.01 120.96 32.01 120.95 32.01 120.97 32.01"/><path class="cls-1" d="M121.16,25.54a16.57,16.57,0,0,1-8-2.06l-2.61,6.26C112.9,31.08,117,32,121,32c8,0,11.87-3.62,11.87-7.77,0-9.2-13.19-6.09-13.19-8.48,0-.55.68-1.1,3.11-1.1a13.51,13.51,0,0,1,6.64,1.68l2.6-6.25a21.56,21.56,0,0,0-9.36-1.89c-7.73,0-11.76,3.52-11.76,7.85,0,9.2,13.23,6.05,13.23,8.4C124.1,25.12,123.47,25.54,121.16,25.54Z"/><path class="cls-1" d="M347.23,32v0c5.58,0,9.78-2.56,11.29-6.8l-7.35-3.62c-1,2.15-2.35,3-4,3-2.14,0-3.9-1.51-3.9-4.54s1.76-4.49,3.9-4.49c1.64,0,3,.88,4,3L358.52,15c-1.51-4.24-5.71-6.8-11.29-6.8-7.94,0-13.57,4.91-13.57,11.88S339.29,32,347.23,32Z"/><path class="cls-1" d="M312.65,21.38c0-3.65,2-4.95,4.87-4.95a11.37,11.37,0,0,1,2.1.17V8.2a9.57,9.57,0,0,0-7.43,2.89h0V8.62h-9v23h9.49Z"/><path class="cls-1" d="M186.29,20.8c0-3.41,1.63-4.62,3.57-4.62,1.72,0,2.81,1.09,2.81,3.94V31.59h9.49V18.49c0-7.23-4.11-10.29-9.41-10.29h0a9.56,9.56,0,0,0-6.93,2.68V8.62h-9v23h9.5Z"/><path class="cls-1" d="M69.16,32v0c5.59,0,9.79-2.56,11.3-6.8l-7.35-3.62c-1,2.15-2.35,3-4,3-2.14,0-3.91-1.51-3.91-4.54s1.77-4.49,3.91-4.49c1.64,0,3,.88,4,3L80.46,15c-1.51-4.24-5.71-6.8-11.3-6.8C61.22,8.15,55.6,13.06,55.6,20S61.22,32,69.16,32Z"/><path class="cls-1" d="M370.23,21.38c0-3.65,2-4.95,4.87-4.95a11.37,11.37,0,0,1,2.1.17V8.2a9.57,9.57,0,0,0-7.43,2.89h0V8.62h-9v23h9.49Z"/><path class="cls-1" d="M402.35,31.57V19.24c0-7.64-4.53-11-12.43-11l0,0a20.73,20.73,0,0,0-10.33,2.6l3,6.26a10.28,10.28,0,0,1,5.88-1.81c2.69,0,4,.93,4.33,2.69H389c-7.14,0-10.5,2.48-10.5,6.93,0,3.95,2.89,7.14,8.52,7.14,3.24,0,5.42-1.13,6.51-3.44v3Zm-9.43-7.46a3,3,0,0,1-3,2.18h0c-1.42,0-2.26-.8-2.26-1.84,0-1.26.88-1.93,2.9-1.93h2.35Z"/><path class="cls-1" d="M389.94,26.3h0Z"/><path class="cls-2" d="M45.81,233.4A5.84,5.84,0,0,0,41,231.19a7,7,0,1,0,0,14.07,5.84,5.84,0,0,0,4.92-2.34v2.18h2.39V225.81h-2.5Zm0,4.81a4.56,4.56,0,0,1-4.25,4.85h-.38A4.85,4.85,0,1,1,45.84,238Z"/><path class="cls-2" d="M24.89,231.14v.05a5.9,5.9,0,0,0-5,2.21v-2.08h-2.4V245.1H20V238c0-3,1.72-4.57,4.37-4.57,2.36,0,3.72,1.32,3.72,4v7.64h2.54v-7.93C30.61,233.09,28.25,231.14,24.89,231.14Z"/><path class="cls-2" d="M6.9,231.14l.09.05A9.16,9.16,0,0,0,1.3,233l1,1.87a6.94,6.94,0,0,1,4.37-1.48c2.47,0,3.69,1.22,3.69,3.33v.49h-4c-4.11,0-5.54,1.82-5.54,4,0,2.39,2,4.06,5.1,4.06,2.15,0,3.69-.73,4.52-2v1.82h2.37v-8.32C12.81,233,10.67,231.14,6.9,231.14Zm3.54,9.79a4,4,0,0,1-4,2.44l0,0c-1.9,0-3-.85-3-2.23,0-1.17.7-2.13,3.17-2.13h3.85Z"/><path class="cls-2" d="M125.7,231.13l0,.05A9.16,9.16,0,0,0,120,233l1,1.87a6.94,6.94,0,0,1,4.37-1.48c2.47,0,3.69,1.22,3.69,3.33v.49h-3.95c-4.11,0-5.54,1.82-5.54,4,0,2.39,2,4.06,5.1,4.06,2.15,0,3.69-.73,4.52-2V245h2.38v-8.32C131.61,233,129.47,231.13,125.7,231.13Zm3.48,9.8a4,4,0,0,1-4,2.44l0-.05c-1.9,0-3-.85-3-2.23,0-1.17.7-2.13,3.17-2.13h3.85Z"/><rect class="cls-2" x="113.46" y="225.81" width="2.5" height="19.28"/><path class="cls-2" d="M87.28,231.19a6.73,6.73,0,0,0-6.91,6.56,3.23,3.23,0,0,0,0,.44c0,4.11,3,7.05,7.41,7.05A7,7,0,0,0,93.21,243l-1.38-1.61a5.17,5.17,0,0,1-4,1.66c-2.73,0-4.68-1.61-5-4H94a6.3,6.3,0,0,0,0-.75h0C94.09,234.05,91.26,231.19,87.28,231.19Zm-4.42,6.05a4.29,4.29,0,0,1,4.42-4h0a4.29,4.29,0,0,1,4.42,4Z"/><path class="cls-2" d="M143.57,231.14l0,.05a5.9,5.9,0,0,0-5,2.21v-2.08h-2.4V245.1h2.5V238c0-3,1.72-4.57,4.37-4.57,2.36,0,3.72,1.32,3.72,4v7.64h2.49v-7.93C149.29,233.09,146.93,231.14,143.57,231.14Z"/><path class="cls-2" d="M103.19,231.19a6.73,6.73,0,0,0-6.91,6.56,3.23,3.23,0,0,0,0,.44c0,4.11,3,7.05,7.41,7.05a7,7,0,0,0,5.43-2.24l-1.38-1.61a5.17,5.17,0,0,1-4,1.66,4.69,4.69,0,0,1-5-4h11.18q0-.37.06-.75h0C110,234.05,107.17,231.19,103.19,231.19Zm-4.42,6.05a4.45,4.45,0,0,1,8.84,0Z"/><path class="cls-2" d="M196.38,235.14c0-1.09,1.07-1.9,3.25-1.9a7.09,7.09,0,0,1,4,1.1l1.06-2a9.93,9.93,0,0,0-5-1.25c-3.54,0-5.75,1.67-5.75,4.14,0,5.48,8.71,2.8,8.71,5.9,0,1.17-1,1.87-3.28,1.87a8.92,8.92,0,0,1-4.83-1.43l-1,2a10,10,0,0,0,5.69,1.61l-.11,0c3.67,0,6-1.59,6-4.08C205.12,235.78,196.38,238.43,196.38,235.14Z"/><path class="cls-2" d="M160,233.38a4.25,4.25,0,0,1,3.74,2l1.9-1.22a6.14,6.14,0,0,0-5.62-2.94c-4.23,0-7.28,2.91-7.28,7a6.9,6.9,0,0,0,6.76,7.05H160a6.17,6.17,0,0,0,5.62-3l-1.9-1.19a4.29,4.29,0,0,1-3.74,2,4.85,4.85,0,0,1,0-9.69Z"/><path class="cls-2" d="M174.32,231.16a6.73,6.73,0,0,0-6.92,6.57,3.08,3.08,0,0,0,0,.43c0,4.11,3,7.05,7.41,7.05a6.94,6.94,0,0,0,5.44-2.24l-1.38-1.61a5.17,5.17,0,0,1-4,1.66c-2.73,0-4.68-1.61-5-4h11.18v-.75h.08C181.13,234,178.3,231.16,174.32,231.16Zm-4.41,6.05a4.3,4.3,0,0,1,4.42-4h0a4.3,4.3,0,0,1,4.41,4Z"/><path class="cls-2" d="M187,233.57l0,0v-2.32h-2.37v13.78h2.49V238.2c0-3,1.67-4.66,4.35-4.66a2.71,2.71,0,0,1,.57,0v-2.42C189.6,231.12,187.88,232,187,233.57Z"/><polygon class="cls-2" points="174.32 233.25 174.32 233.26 174.33 233.25 174.32 233.25"/><path class="cls-2" d="M65.08,227.71h0Z"/><path class="cls-2" d="M60.4,230.1v1.22H58.06v2.06H60.4V245.1h2.49V233.38h4v-2.06h-4v-1.19c0-1.58.75-2.41,2.21-2.42h0a3.18,3.18,0,0,1,1.9.65l.76-1.9a4.62,4.62,0,0,0-2.81-.81C62,225.65,60.4,227.42,60.4,230.1Z"/><path class="cls-2" d="M73.7,233.61l0,0v-2.32H71.29V245.1h2.5v-6.86c0-3,1.66-4.66,4.34-4.66a2.71,2.71,0,0,1,.57,0v-2.42C76.28,231.16,74.57,232,73.7,233.61Z"/><path class="cls-2" d="M140,207.39a5.17,5.17,0,0,1-4,1.66c-2.73,0-4.68-1.61-5-4h11.18a6.3,6.3,0,0,0,0-.75h0c0-4.24-2.83-7.1-6.81-7.1a6.73,6.73,0,0,0-6.92,6.57,3.08,3.08,0,0,0,0,.43c0,4.11,3,7.05,7.41,7.05a6.94,6.94,0,0,0,5.44-2.24Zm-4.55-8.1h0a4.29,4.29,0,0,1,4.42,4h-8.84A4.29,4.29,0,0,1,135.48,199.29Z"/><path class="cls-2" d="M320.57,201.17c0-1.09,1.07-1.9,3.25-1.9a7.09,7.09,0,0,1,4,1.1l1.07-2a9.93,9.93,0,0,0-5-1.25c-3.54,0-5.75,1.67-5.75,4.14,0,5.48,8.71,2.8,8.71,5.9,0,1.17-1,1.87-3.27,1.87a8.92,8.92,0,0,1-4.84-1.43l-1,2a10,10,0,0,0,5.69,1.61l-.12,0c3.67,0,6-1.59,6-4.08C329.31,201.81,320.57,204.46,320.57,201.17Z"/><path class="cls-2" d="M19.8,203.43v7.64h2.5v-7.93c0-4-2.37-6-5.72-6l0,.05a5.9,5.9,0,0,0-5,2.21v-2.08H9.22V211.1h2.5V204c0-3,1.71-4.57,4.36-4.57C18.45,199.43,19.8,200.75,19.8,203.43Z"/><path class="cls-2" d="M219.72,197.13l0,.05a5.9,5.9,0,0,0-5,2.21v-2.08h-2.39v13.78h2.5V204c0-3,1.71-4.57,4.36-4.57,2.37,0,3.72,1.32,3.72,4v7.64h2.5v-7.93C225.44,199.08,223.07,197.13,219.72,197.13Z"/><path class="cls-2" d="M256.22,197.11l.11.07a9.1,9.1,0,0,0-5.72,1.75l1,1.87a6.89,6.89,0,0,1,4.36-1.48c2.47,0,3.7,1.22,3.7,3.33v.49h-4c-4.1,0-5.53,1.82-5.53,4,0,2.39,2,4.06,5.09,4.06,2.16,0,3.69-.73,4.53-2V211h2.36V202.7C262.12,198.93,260,197.11,256.22,197.11Zm3.56,9.82a4,4,0,0,1-4,2.44l0-.05c-1.9,0-3-.85-3-2.23,0-1.17.7-2.13,3.17-2.13h3.85Z"/><path class="cls-2" d="M75,204.21a7,7,0,0,0-7-7,5.83,5.83,0,0,0-4.91,2.32v-2.19H60.68v18.83h2.49V209A5.94,5.94,0,0,0,68,211.25,7,7,0,0,0,75,204.21Zm-6.81,4.84h-.42A4.85,4.85,0,1,1,72.43,204v.19A4.56,4.56,0,0,1,68.2,209.05Z"/><path class="cls-2" d="M187.19,199.37a4.31,4.31,0,0,1,3.75,2l1.89-1.22a6.11,6.11,0,0,0-5.61-2.94c-4.24,0-7.28,2.91-7.28,7a6.9,6.9,0,0,0,6.76,7c.17,0,.35,0,.52,0h0a6.16,6.16,0,0,0,5.61-3l-1.89-1.19a4.35,4.35,0,0,1-3.75,2,4.85,4.85,0,0,1,0-9.69Z"/><path class="cls-2" d="M50.41,197.19a6.73,6.73,0,0,0-6.92,6.57,3.08,3.08,0,0,0,0,.43c0,4.11,3,7.05,7.41,7.05A6.94,6.94,0,0,0,56.34,209L55,207.39a5.17,5.17,0,0,1-4,1.66c-2.73,0-4.68-1.61-5-4H57.14v-.75h.08C57.22,200.05,54.39,197.19,50.41,197.19ZM46,203.24a4.29,4.29,0,0,1,4.42-4h0a4.29,4.29,0,0,1,4.42,4Z"/><path class="cls-2" d="M297.83,197.25A7,7,0,0,0,291,204.2a6.86,6.86,0,0,0,6.66,7.05h.51a7,7,0,0,0-.34-14Zm.34,11.81a4.85,4.85,0,1,1,4.62-4.63A4.84,4.84,0,0,1,298.17,209.06Z"/><path class="cls-2" d="M37.61,208.93v2.18H40v-19.3H37.54v7.59a5.87,5.87,0,0,0-4.81-2.21,7,7,0,0,0,0,14.07A5.82,5.82,0,0,0,37.61,208.93Zm-4.3.13h-.37A4.85,4.85,0,1,1,37.55,204a1.55,1.55,0,0,1,0,.22A4.56,4.56,0,0,1,33.31,209.06Z"/><path class="cls-2" d="M156.3,203.42v7.64h2.5v-7.93c0-4-2.37-6-5.72-6l0,.05a5.9,5.9,0,0,0-5,2.21v-2.08h-2.39v13.78h2.5V204c0-3,1.71-4.57,4.36-4.57C155,199.42,156.3,200.74,156.3,203.42Z"/><path class="cls-2" d="M201.41,197.25a7,7,0,0,0-6.83,6.95,6.86,6.86,0,0,0,6.66,7.05h.51a7,7,0,1,0-.34-14Zm.72,11.8h-.38a4.85,4.85,0,1,1,4.63-5.07v.21A4.56,4.56,0,0,1,202.13,209.05Z"/><path class="cls-2" d="M237.06,208.49a3.14,3.14,0,0,1-1.95.65,2,2,0,0,1-2.15-2.31v-7.46h4v-2.06h-4v-3h-2.5v3h-2.34v2.06h2.34v7.56c0,2.78,1.59,4.32,4.37,4.32a4.7,4.7,0,0,0,3-1l-.78-1.8Z"/><path class="cls-2" d="M4.91,193a1.62,1.62,0,0,0-1.63-1.6H3.22A1.64,1.64,0,0,0,1.53,193v0a1.62,1.62,0,0,0,1.63,1.61h.06a1.63,1.63,0,0,0,1.69-1.57Z"/><path class="cls-2" d="M243.25,199.63v-.08l0,0Z"/><rect class="cls-2" x="1.98" y="197.32" width="2.49" height="13.78"/><path class="cls-2" d="M96.79,204c0-3,1.71-4.57,4.36-4.57,2.37,0,3.72,1.32,3.72,4v7.64h2.5v-7.93c0-4.05-2.37-6-5.72-6l0,0a5.92,5.92,0,0,0-5,2.21V197.3H94.29v13.78h2.5Z"/><path class="cls-2" d="M243.25,199.55v.08l0,0,0,0v-2.24h-2.44v13.78h2.5v-6.86c0-3,1.66-4.66,4.34-4.66a2.72,2.72,0,0,1,.57,0v-2.42C245.82,197.15,244.13,198,243.25,199.55Z"/><path class="cls-2" d="M311.19,199.6l0,0v-2.32h-2.39v13.78h2.5v-6.86c0-3,1.66-4.66,4.34-4.66a2.71,2.71,0,0,1,.57,0v-2.42C313.77,197.15,312.06,198,311.19,199.6Z"/><path class="cls-2" d="M90,209l-1.37-1.58a5.17,5.17,0,0,1-4,1.66c-2.73,0-4.68-1.61-5-4H90.79a6.3,6.3,0,0,0,0-.75l0,0c0-4.24-2.83-7.1-6.81-7.1a6.73,6.73,0,0,0-6.91,6.56,3.23,3.23,0,0,0,0,.44c0,4.11,3,7,7.41,7A7,7,0,0,0,90,209Zm-6-9.71h0a4.29,4.29,0,0,1,4.42,3.95H79.61A4.29,4.29,0,0,1,84,199.28Z"/><path class="cls-2" d="M272.92,199.37a4.25,4.25,0,0,1,3.74,2l1.9-1.22a6.14,6.14,0,0,0-5.62-2.94c-4.23,0-7.28,2.91-7.28,7a6.9,6.9,0,0,0,6.76,7c.17,0,.35,0,.52,0h0a6.17,6.17,0,0,0,5.62-3l-1.9-1.19a4.29,4.29,0,0,1-3.74,2,4.85,4.85,0,0,1,0-9.69Z"/><path class="cls-2" d="M122.71,208.92v2.18h2.4V191.81h-2.5v7.59a5.84,5.84,0,0,0-4.81-2.21,7,7,0,0,0,0,14.07A5.83,5.83,0,0,0,122.71,208.92Zm-4.34.14H118a4.85,4.85,0,1,1,4.63-5.07v.21A4.57,4.57,0,0,1,118.37,209.06Z"/><path class="cls-2" d="M168.19,211.25a4.7,4.7,0,0,0,3-1l-.78-1.8v0a3.14,3.14,0,0,1-1.95.65,2,2,0,0,1-2.15-2.31v-7.46h4v-2.06h-4v-3h-2.5v3h-2.34v2.06h2.34v7.56C163.82,209.71,165.41,211.25,168.19,211.25Z"/><path class="cls-2" d="M288.94,208.49a3.14,3.14,0,0,1-1.95.65,2,2,0,0,1-2.15-2.31v-7.46h4v-2.06h-4v-3h-2.5v3H280v2.06h2.34v7.56c0,2.78,1.59,4.32,4.37,4.32a4.7,4.7,0,0,0,3-1l-.78-1.8Z"/><path class="cls-2" d="M219.77,175l-1.38-1.61a5.17,5.17,0,0,1-4,1.66c-2.74,0-4.68-1.61-5-4h11.22q0-.37.06-.75h0c0-4.24-2.84-7.1-6.82-7.1a6.73,6.73,0,0,0-6.91,6.58,2.94,2.94,0,0,0,0,.42c0,4.11,3,7.05,7.41,7.05A7,7,0,0,0,219.77,175Zm-5.93-9.71h0a4.29,4.29,0,0,1,4.42,4h-8.84A4.29,4.29,0,0,1,213.84,165.26Z"/><path class="cls-2" d="M234.69,169.39V177h2.5V169.1c0-4-2.37-6-5.72-6v.05a5.9,5.9,0,0,0-5,2.21v-2.08h-2.4v13.78h2.54V170c0-3,1.72-4.57,4.37-4.57C233.34,165.39,234.69,166.71,234.69,169.39Z"/><path class="cls-2" d="M197.46,165.37c2.27,0,3.57,1.32,3.57,4V177h2.49v-7.93c0-4.05-2.29-6-5.64-6v.08a6.19,6.19,0,0,0-5.3,2.55,5.08,5.08,0,0,0-4.79-2.55,5.56,5.56,0,0,0-4.76,2.19v-2.06h-2.39v13.78h2.5V170c0-3,1.64-4.57,4.13-4.57,2.26,0,3.56,1.32,3.56,4V177h2.5v-7.1C193.33,166.94,195,165.37,197.46,165.37Z"/><path class="cls-2" d="M177.15,170.28h0c0-4.24-2.83-7.1-6.81-7.1a6.73,6.73,0,0,0-6.91,6.56,3.23,3.23,0,0,0,0,.44c0,4.11,3,7.05,7.41,7.05A7,7,0,0,0,176.3,175l-1.38-1.61a5.17,5.17,0,0,1-4,1.66c-2.73,0-4.68-1.61-5-4H177.1A6.3,6.3,0,0,0,177.15,170.28ZM166,169.22a4.29,4.29,0,0,1,4.42-3.95h0a4.29,4.29,0,0,1,4.42,3.95Z"/><path class="cls-2" d="M273,180.21a3.56,3.56,0,0,1-2.47-1l-1.06,1.87a5.19,5.19,0,0,0,3.53,1.27c2.11,0,3.69-.91,4.92-3.82l6.67-15.21h-2.44l-4.75,11-4.81-11H270l6.09,13.76-.44,1C275,179.66,274.22,180.21,273,180.21Z"/><path class="cls-2" d="M320.25,173.39a5.17,5.17,0,0,1-4,1.66c-2.73,0-4.68-1.61-5-4h11.18v-.75h.08c0-4.24-2.83-7.1-6.81-7.1a6.73,6.73,0,0,0-6.92,6.57,3.08,3.08,0,0,0,0,.43c0,4.11,3,7.05,7.41,7.05a6.94,6.94,0,0,0,5.44-2.24Zm-4.55-8.1h0a4.29,4.29,0,0,1,4.42,4h-8.84A4.29,4.29,0,0,1,315.7,165.29Z"/><path class="cls-2" d="M152.51,176.54a6.34,6.34,0,0,0,5-2.13v1.09c0,3.12-1.49,4.63-4.74,4.63a8.41,8.41,0,0,1-5.3-1.8l-1.2,1.93a10.31,10.31,0,0,0,6.58,2.05c4.68,0,7.15-2.21,7.15-7.07V163.32h-2.39v2.13a6.3,6.3,0,0,0-5.1-2.26c-4,0-7,2.68-7,6.66S148.51,176.54,152.51,176.54Zm.29-11.18a4.5,4.5,0,0,1,0,9v0a4.45,4.45,0,0,1-4.75-4.11c0-.13,0-.26,0-.39A4.42,4.42,0,0,1,152.8,165.36Z"/><path class="cls-2" d="M304.73,175.15a2,2,0,0,1-2.18-1.81,2.07,2.07,0,0,1,0-.5v-7.46h4v-2.06h-4v-3h-2.49v3h-2.35v2.06h2.35v7.55c0,2.78,1.58,4.32,4.36,4.32a4.76,4.76,0,0,0,3-1l-.75-1.73A3.13,3.13,0,0,1,304.73,175.15Z"/><path class="cls-2" d="M388.33,165.6v-2.29h-2.4v13.78h2.5v-6.86c0-3,1.66-4.66,4.34-4.66a2.72,2.72,0,0,1,.57,0v-2.42C390.92,163.15,389.2,164,388.33,165.6Z"/><path class="cls-2" d="M306.66,174.45l0,.07,0,0Z"/><path class="cls-2" d="M269.56,173.18c0-5.36-8.73-2.71-8.73-6,0-1.09,1.06-1.9,3.25-1.9a7.09,7.09,0,0,1,4,1.1l1.06-2a9.93,9.93,0,0,0-5-1.25c-3.53,0-5.74,1.67-5.74,4.14,0,5.48,8.71,2.8,8.71,5.9,0,1.17-1,1.87-3.28,1.87a8.92,8.92,0,0,1-4.83-1.43l-1,2a10,10,0,0,0,5.69,1.61l-.08,0C267.27,177.26,269.56,175.67,269.56,173.18Z"/><path class="cls-2" d="M42.87,177v-7.93c0-4.05-2.28-6-5.64-6v.08a6.19,6.19,0,0,0-5.3,2.55,5.08,5.08,0,0,0-4.79-2.55,5.54,5.54,0,0,0-4.75,2.19v-2.06H20V177.1h2.5V170c0-3,1.64-4.57,4.13-4.57,2.27,0,3.57,1.32,3.57,4v7.64h2.49V170c0-3,1.64-4.57,4.14-4.57,2.26,0,3.56,1.32,3.56,4V177Z"/><path class="cls-2" d="M59.93,170.3H60c0-4.24-2.84-7.1-6.81-7.1a6.73,6.73,0,0,0-6.92,6.57,3.08,3.08,0,0,0,0,.43c0,4.11,3,7.05,7.41,7.05A6.89,6.89,0,0,0,59.12,175l-1.37-1.61a5.17,5.17,0,0,1-4,1.66c-2.73,0-4.68-1.61-5-4H59.93Zm-11.15-1.06a4.28,4.28,0,0,1,4.42-4h0a4.29,4.29,0,0,1,4.42,4Z"/><path class="cls-2" d="M2.34,172.93c0,2.78,1.59,4.32,4.37,4.32a4.7,4.7,0,0,0,3-1l-.78-1.8v.05a3.14,3.14,0,0,1-1.95.65,2,2,0,0,1-2.15-2.31v-7.46H8.79v-2.06H4.84v-3H2.34v3H0v2.06H2.34Z"/><path class="cls-2" d="M296.68,173.18c0-5.36-8.74-2.71-8.74-6,0-1.09,1.07-1.9,3.26-1.9a7.07,7.07,0,0,1,4,1.1l1.07-2a9.93,9.93,0,0,0-5-1.25c-3.53,0-5.74,1.67-5.74,4.14,0,5.48,8.71,2.8,8.71,5.9,0,1.17-1,1.87-3.28,1.87a8.92,8.92,0,0,1-4.84-1.43l-1,2a10,10,0,0,0,5.7,1.61l-.09,0C294.39,177.26,296.68,175.67,296.68,173.18Z"/><path class="cls-2" d="M142.07,177v-8.32c0-3.77-2.13-5.59-5.9-5.59l0,.05a9.16,9.16,0,0,0-5.69,1.77l1,1.87a6.94,6.94,0,0,1,4.37-1.48c2.47,0,3.69,1.22,3.69,3.33v.49h-4c-4.11,0-5.54,1.82-5.54,4,0,2.39,2,4.06,5.09,4.06,2.16,0,3.7-.73,4.53-2V177Zm-2.46-4.11a4,4,0,0,1-4,2.44v0c-1.9,0-3-.85-3-2.23,0-1.17.7-2.13,3.17-2.13h3.83Z"/><path class="cls-2" d="M13.87,157.41a1.63,1.63,0,0,0,.08,3.26h0a1.63,1.63,0,1,0-.12-3.26Z"/><rect class="cls-2" x="12.74" y="163.32" width="2.5" height="13.78"/><path class="cls-2" d="M343.16,163.1l0,.08a6.2,6.2,0,0,0-5.31,2.55,5.08,5.08,0,0,0-4.78-2.55,5.56,5.56,0,0,0-4.76,2.19v-2.06H326v13.78h2.49V170c0-3,1.64-4.57,4.14-4.57,2.26,0,3.56,1.32,3.56,4v7.64h2.45V170c0-3,1.63-4.57,4.13-4.57,2.26,0,3.56,1.32,3.56,4V177h2.5V169.1C348.8,165.05,346.51,163.1,343.16,163.1Z"/><path class="cls-2" d="M108.78,177v-8.32c0-3.77-2.13-5.59-5.9-5.59l.08.05A9.16,9.16,0,0,0,97.27,165l1,1.87a6.89,6.89,0,0,1,4.36-1.48c2.47,0,3.7,1.22,3.7,3.33v.49h-4c-4.1,0-5.53,1.82-5.53,4,0,2.39,2,4.06,5.09,4.06,2.16,0,3.69-.73,4.53-2V177Zm-2.37-4.11a4,4,0,0,1-4,2.44l0-.05c-1.9,0-3-.85-3-2.23,0-1.17.7-2.13,3.17-2.13h3.85Z"/><path class="cls-2" d="M126.61,177.06v-7.93c0-4-2.37-6-5.72-6l0,.05a5.9,5.9,0,0,0-5,2.21v-2.08h-2.39v13.78H116V170c0-3,1.72-4.57,4.37-4.57,2.37,0,3.72,1.32,3.72,4v7.64Z"/><path class="cls-2" d="M375,163.25a7,7,0,0,0-6.82,6.95,6.86,6.86,0,0,0,6.66,7.05h.52a7,7,0,1,0-.36-14Zm.36,11.81a4.85,4.85,0,1,1,4.62-4.63A4.84,4.84,0,0,1,375.32,175.06Z"/><path class="cls-2" d="M368.17,158.45a4.62,4.62,0,0,0-2.81-.81c-2.94,0-4.55,1.77-4.55,4.45v1.22h-2.34v2.06h2.34v11.72h2.49V165.38h4v-2.06h-4v-1.19c0-1.59.76-2.42,2.24-2.42h-.05a3.18,3.18,0,0,1,1.92.65Z"/><path class="cls-2" d="M248.79,174.46a3.2,3.2,0,0,1-2,.65,2,2,0,0,1-2.18-1.81,2.07,2.07,0,0,1,0-.5v-7.46h4v-2.06h-3.87v-3h-2.5v3h-2.34v2.06h2.34v7.59c0,2.78,1.59,4.32,4.37,4.32a4.78,4.78,0,0,0,3-1l-.78-1.8Z"/><path class="cls-2" d="M72.85,165.37v-2.06H70.46v13.78H73V170c0-3,1.63-4.57,4.13-4.57,2.26,0,3.56,1.32,3.56,4v7.64h2.5V170c0-3,1.63-4.57,4.13-4.57,2.26,0,3.56,1.32,3.56,4V177h2.5V169.1c0-4-2.29-6-5.64-6v.08a6.2,6.2,0,0,0-5.31,2.55,5.08,5.08,0,0,0-4.78-2.55A5.56,5.56,0,0,0,72.85,165.37Z"/><path class="cls-2" d="M282.21,143V134.7c0-3.77-2.13-5.59-5.9-5.59l0,.09a9.16,9.16,0,0,0-5.63,1.73l1,1.87a6.94,6.94,0,0,1,4.37-1.48c2.47,0,3.69,1.22,3.69,3.33v.49h-4c-4.11,0-5.54,1.82-5.54,4,0,2.39,2,4.06,5.09,4.06,2.16,0,3.7-.73,4.53-2V143Zm-2.42-4.09a4,4,0,0,1-4,2.44l0,0c-1.9,0-3-.85-3-2.23,0-1.17.7-2.13,3.17-2.13h3.85Z"/><path class="cls-2" d="M260.84,136.32h0c0-4.24-2.83-7.1-6.81-7.1a6.73,6.73,0,0,0-6.92,6.57,3.08,3.08,0,0,0,0,.43c0,4.11,3,7,7.41,7A6.94,6.94,0,0,0,260,141l-1.38-1.61a5.17,5.17,0,0,1-4,1.66c-2.73,0-4.68-1.61-5-4h11.18A6.3,6.3,0,0,0,260.84,136.32Zm-11.2-1.06a4.29,4.29,0,0,1,4.42-3.95h0a4.29,4.29,0,0,1,4.42,3.95Z"/><rect class="cls-2" x="394.92" y="123.81" width="2.5" height="19.26"/><path class="cls-2" d="M228.15,123.4a1.63,1.63,0,0,0,.08,3.26h0a1.63,1.63,0,0,0-.12-3.26Z"/><path class="cls-2" d="M391.54,136.22a7,7,0,0,0-7-7h0a5.85,5.85,0,0,0-4.92,2.32v-2.19h-2.39v18.83h2.5V141a5.94,5.94,0,0,0,4.81,2.24A7,7,0,0,0,391.54,136.22Zm-6.83,4.84h-.42a4.85,4.85,0,1,1,4.65-5v.19A4.56,4.56,0,0,1,384.71,141.06Z"/><path class="cls-2" d="M407.8,129.19a6.73,6.73,0,0,0-6.92,6.57,3.08,3.08,0,0,0,0,.43c0,4.11,3,7.05,7.41,7.05a6.94,6.94,0,0,0,5.44-2.24l-1.38-1.61a5.17,5.17,0,0,1-4,1.66c-2.73,0-4.68-1.61-5-4h11.26q0-.37,0-.75h0C414.61,132.05,411.78,129.19,407.8,129.19Zm-4.39,6.05a4.29,4.29,0,0,1,4.41-4h0a4.3,4.3,0,0,1,4.4,4Z"/><path class="cls-2" d="M345.4,125a1.63,1.63,0,0,0-1.65-1.6h-.05A1.64,1.64,0,0,0,342,125v0a1.62,1.62,0,0,0,1.63,1.61h.06a1.64,1.64,0,0,0,1.7-1.58Z"/><path class="cls-2" d="M407.8,131.29h0Z"/><path class="cls-2" d="M317.66,143.11v-19.3h-2.5v7.59a5.84,5.84,0,0,0-4.81-2.21,7,7,0,1,0,0,14.07,5.83,5.83,0,0,0,4.91-2.34v2.18ZM311,141.06h-.36a4.85,4.85,0,1,1,4.63-5.07v.21A4.57,4.57,0,0,1,311,141.06Z"/><path class="cls-2" d="M299.92,143.08v-7.93c0-4.05-2.37-6-5.72-6l0,0a5.92,5.92,0,0,0-5,2.21v-2.08h-2.39v13.78h2.5V136c0-3,1.71-4.57,4.36-4.57,2.37,0,3.72,1.32,3.72,4v7.64Z"/><rect class="cls-2" x="342.46" y="129.32" width="2.49" height="13.78"/><path class="cls-2" d="M359.9,135.43v7.64h2.5V136c0-3,1.64-4.57,4.13-4.57,2.26,0,3.56,1.32,3.56,4V143h2.52v-7.93c0-4.05-2.29-6-5.64-6l0,.08a6.2,6.2,0,0,0-5.31,2.55,5.07,5.07,0,0,0-4.78-2.55,5.56,5.56,0,0,0-4.76,2.19v-2.06h-2.39V143.1h2.5V136c0-3,1.63-4.57,4.13-4.57C358.6,131.43,359.9,132.75,359.9,135.43Z"/><path class="cls-2" d="M339.38,139.18c0-5.36-8.74-2.71-8.74-6,0-1.09,1.07-1.9,3.25-1.9a7.09,7.09,0,0,1,4,1.1l1.06-2a9.93,9.93,0,0,0-5-1.25c-3.54,0-5.75,1.67-5.75,4.14,0,5.48,8.71,2.8,8.71,5.9,0,1.17-1,1.87-3.27,1.87a8.92,8.92,0,0,1-4.84-1.43l-1,2a10,10,0,0,0,5.69,1.61l-.11,0C337.05,143.26,339.38,141.67,339.38,139.18Z"/><path class="cls-2" d="M144,135.13c0-4-2.37-6-5.72-6l0,.05a5.9,5.9,0,0,0-5,2.21v-2.08H131v13.78h2.49V136c0-3,1.72-4.57,4.37-4.57,2.37,0,3.72,1.32,3.72,4v7.64H144Z"/><path class="cls-2" d="M64.3,123.4a1.63,1.63,0,0,0,.08,3.26h0a1.63,1.63,0,1,0-.12-3.26Z"/><path class="cls-2" d="M115.75,132.82a6.94,6.94,0,0,1,4.37-1.48c2.47,0,3.69,1.22,3.69,3.33v.49h-4c-4.11,0-5.54,1.82-5.54,4,0,2.39,2,4.06,5.1,4.06,2.16,0,3.69-.73,4.52-2V143h2.37v-8.32c0-3.77-2.13-5.59-5.9-5.59l0,.05a9.19,9.19,0,0,0-5.7,1.77Zm8.1,6.11a4,4,0,0,1-4,2.44l0-.05c-1.9,0-3-.85-3-2.23,0-1.17.71-2.13,3.18-2.13h3.84Z"/><polygon class="cls-2" points="63.21 143.09 63.21 143.09 63.18 143.09 63.21 143.09"/><rect class="cls-2" x="63.21" y="129.32" width="2.46" height="13.77"/><rect class="cls-2" x="88.16" y="129.32" width="2.49" height="13.77"/><path class="cls-2" d="M91.09,125a1.62,1.62,0,0,0-1.63-1.6H89.4a1.64,1.64,0,0,0-1.69,1.6v0a1.62,1.62,0,0,0,1.63,1.61h.06a1.63,1.63,0,0,0,1.69-1.57Z"/><polygon class="cls-2" points="77.38 140.44 77.4 140.49 77.4 140.49 77.38 140.44"/><path class="cls-2" d="M7.59,141.1a9.35,9.35,0,0,1-6-2.11l-1,2a10.8,10.8,0,0,0,7,2.29l0,0c4.81,0,7.05-2.39,7.05-5.17,0-6.69-11-3.9-11-8.35,0-1.59,1.32-2.89,4.42-2.89a9.35,9.35,0,0,1,5,1.49l.86-2.08a10.6,10.6,0,0,0-5.85-1.62c-4.79,0-7,2.4-7,5.2,0,6.76,11,4,11,8.4C12.09,139.88,10.74,141.1,7.59,141.1Z"/><path class="cls-2" d="M70.79,138.93c0,2.78,1.59,4.32,4.37,4.32a4.78,4.78,0,0,0,3-1l-.76-1.76a3.26,3.26,0,0,1-2,.65,2,2,0,0,1-2.18-1.81,2.07,2.07,0,0,1,0-.5v-7.46h4v-2.06h-4v-3h-2.5v3H68.45v2.06h2.34Z"/><path class="cls-2" d="M99.61,141a8.92,8.92,0,0,1-4.83-1.43l-1,2a10,10,0,0,0,5.69,1.61l-.11,0c3.67,0,6-1.59,6-4.08,0-5.36-8.74-2.71-8.74-6,0-1.09,1.07-1.9,3.25-1.9a7.09,7.09,0,0,1,4,1.1l1.06-2a9.93,9.93,0,0,0-5-1.25c-3.54,0-5.75,1.67-5.75,4.14,0,5.48,8.71,2.8,8.71,5.9C102.89,140.33,101.89,141,99.61,141Z"/><path class="cls-2" d="M48.38,143.06V136c0-3,1.64-4.57,4.13-4.57,2.27,0,3.57,1.32,3.57,4V143h2.53V135.1c0-4-2.28-6-5.64-6l0,.08a6.19,6.19,0,0,0-5.3,2.55,5.08,5.08,0,0,0-4.79-2.55,5.54,5.54,0,0,0-4.75,2.19v-2.06h-2.4v13.78h2.5V136c0-3,1.64-4.57,4.13-4.57,2.27,0,3.56,1.32,3.56,4v7.64Z"/><path class="cls-2" d="M18,129.36v7.93c0,4.06,2.37,6,5.93,6a5.64,5.64,0,0,0,4.68-2.24v2.08h2.37V129.32h-2.5v7.13c0,3-1.66,4.57-4.26,4.57-2.37,0-3.72-1.35-3.72-4v-7.65Z"/><rect class="cls-2" x="209.11" y="129.32" width="2.5" height="13.77"/><path class="cls-2" d="M221,143.25a4.78,4.78,0,0,0,3-1l-.77-1.76a3.14,3.14,0,0,1-1.95.65,2,2,0,0,1-2.15-2.31v-7.46h3.95v-2.06h-3.95v-3h-2.5v3h-2.34v2.06h2.34v7.56C216.62,141.71,218.21,143.25,221,143.25Z"/><polygon class="cls-2" points="227.11 143.09 227.11 143.09 227.02 143.09 227.11 143.09"/><polygon class="cls-2" points="209.11 143.09 209.11 143.09 209 143.09 209.11 143.09"/><path class="cls-2" d="M210.13,123.4a1.63,1.63,0,0,0,.08,3.26h0a1.63,1.63,0,0,0-.12-3.26Z"/><rect class="cls-2" x="227.11" y="129.32" width="2.5" height="13.77"/><polygon class="cls-2" points="223.2 140.44 223.22 140.49 223.22 140.49 223.2 140.44"/><path class="cls-2" d="M204.25,143.13V129.32h-2.5v7.13c0,3-1.66,4.57-4.26,4.57-2.37,0-3.72-1.35-3.72-4v-7.65h-2.5v7.93c0,4.06,2.37,6,5.93,6a5.64,5.64,0,0,0,4.68-2.24v2.08Z"/><rect class="cls-2" x="155.68" y="129.32" width="2.49" height="13.77"/><polygon class="cls-2" points="246.41 129.31 244.02 129.31 239.19 140.35 234.46 129.31 231.86 129.31 237.86 143.09 240.41 143.09 246.41 129.31"/><path class="cls-2" d="M158.62,125a1.63,1.63,0,0,0-1.65-1.6h0a1.63,1.63,0,0,0-1.69,1.58v.06a1.62,1.62,0,0,0,1.63,1.61h.06a1.65,1.65,0,0,0,1.69-1.59Z"/><path class="cls-2" d="M176,143.06v-7.93c0-4-2.37-6-5.72-6l0,.05a5.92,5.92,0,0,0-5,2.21v-2.08H162.9v13.78h2.5V136c0-3,1.71-4.57,4.37-4.57,2.36,0,3.71,1.32,3.71,4v7.64Z"/><path class="cls-2" d="M185.48,143.25a4.78,4.78,0,0,0,3-1l-.78-1.8-.09,0a3.26,3.26,0,0,1-2,.65,2,2,0,0,1-2.18-1.81,2.07,2.07,0,0,1,0-.5v-7.46h3.95v-2.06h-3.84v-3h-2.5v3h-2.34v2.06h2.34v7.56C181.11,141.71,182.7,143.25,185.48,143.25Z"/></svg>