<svg id="Layer_1" data-name="Layer 1" xmlns="http://www.w3.org/2000/svg" viewBox="0 0 556.64 175.13"><defs><style>.cls-1{fill:#ccc;}</style></defs><title>sumit-logo</title><path class="cls-1" d="M5.22,149.07c6.17,4.25,17.08,8.75,27.52,8.75,15.18,0,22.3-8,22.3-18,0-10.52-5.93-16.27-21.35-22.28C13.05,109.77,3.32,97.76,3.32,83.25c0-19.52,15-35.54,39.62-35.54,11.62,0,21.82,3.5,28.23,7.51L66,71.23a43.06,43.06,0,0,0-23.49-7c-12.33,0-19.21,7.51-19.21,16.51,0,10,6.88,14.52,21.82,20.53,19.93,8,30.13,18.52,30.13,36.53,0,21.28-15.66,36.29-42.94,36.29-12.57,0-24.19-3.25-32.26-8.26Z"/><path class="cls-1" d="M198.08,138.55c0,12.52.24,23.53.95,33h-18.5l-1.19-19.77h-.47c-5.46,9.76-17.56,22.52-38,22.52-18,0-39.62-10.51-39.62-53V50.46h20.88v67.07c0,23,6.64,38.54,25.62,38.54,14,0,23.72-10.26,27.52-20a33.94,33.94,0,0,0,1.9-11.26V50.46h20.87Z"/><path class="cls-1" d="M237,84.62c0-12.51-.24-22.77-.95-32.78h18.27l.94,19.52h.72C262.33,59.85,273,49.09,292,49.09c15.65,0,27.51,10,32.5,24.27H325A49.22,49.22,0,0,1,337.77,57.6c6.88-5.51,14.47-8.51,25.38-8.51,15.19,0,37.72,10.51,37.72,52.55V173h-20.4V104.39c0-23.27-8.06-37.29-24.91-37.29-11.86,0-21.11,9.26-24.67,20a38,38,0,0,0-1.66,11V173h-20.4V100.39c0-19.27-8.07-33.29-24-33.29-13.05,0-22.54,11-25.86,22a31.77,31.77,0,0,0-1.66,10.76V173H237Z"/><path class="cls-1" d="M440.59,172.51V45.36h21.92V172.51Zm23-162.74.69-.51.11.15v0h0l.14.19s0,0,0,0h0l.07.09,1.52-1.15-2-2.5-1.52,1.15.36.45-.11.09-.61.46a15,15,0,0,0-3.48-2.67L459,5l.4-.87.81.37,1.12-2.44L456.74,0l-1.11,2.44.81.37-.08.18-.58,1.25a15.22,15.22,0,0,0-4.4-.65l-.07-.85,0-.21.57,0L451.71.6l-3.2.19.16,1.9.57,0v.14l.08.93a14.3,14.3,0,0,0-11.11,8.16l-.14.3c0,.1-.09.2-.14.3a14.79,14.79,0,0,0,26.94,12.18c.05-.1.09-.21.13-.31l.15-.3A14.16,14.16,0,0,0,463.6,9.77ZM437.69,21.38l-.22-.58,1.66-.63.22.59Zm4.26-7.5-3.23-1.47.25-.57,3.23,1.47Zm4.46-7.66L447,7.88l-.58.22-.63-1.66Zm-.07,24.35-.57-.26,1.48-3.23.56.26Zm9.12-21.92,1.48-3.23.56.26L456,8.91Zm1.86,22.76-.62-1.66.59-.22.62,1.66Zm6.59-7.12-3.23-1.47.26-.57,3.23,1.47Zm-.75-8.8L463,14.9l1.66-.62.22.59Z"/><path class="cls-1" d="M525.26,8.84V45.36h31.38V63H525.26v68.56c0,15.77,4.23,24.7,16.44,24.7a46.29,46.29,0,0,0,12.7-1.58l1,17.34c-4.23,1.84-10.95,3.15-19.42,3.15-10.21,0-18.43-3.41-23.66-9.72-6.22-6.83-8.47-18.12-8.47-33.1V63H485.17V45.36h18.67V14.88Z"/></svg>