<?xml version="1.0" encoding="utf-8"?>
<!-- Generator: Adobe Illustrator 23.0.3, SVG Export Plug-In . SVG Version: 6.00 Build 0)  -->
<svg version="1.1" id="Layer_1" xmlns="http://www.w3.org/2000/svg" xmlns:xlink="http://www.w3.org/1999/xlink" x="0px" y="0px"
	 viewBox="0 0 1920.1 385.1" style="enable-background:new 0 0 1920.1 385.1;" xml:space="preserve">
<style type="text/css">
	.st0{fill:#FFFFFF;}
</style>
<title>white-mtn</title>
<path class="st0" d="M0.4,278.9C22.5,247,126,211,190.2,202.8c68.4-8.8,97.1,3.2,197.8-5.3c61.4-5.2,105.3-14.8,162-27.3
	c168.1-37.3,173.9-62.8,271.5-79.3c131.8-22.2,133.9,22.2,295.2,7.9c94.7-8.4,89.4-23.3,270.2-56.9c111.7-20.8,175.9-32.7,260-34.2
	c75.3-1.4,167.9,5.5,273.2,32.7c-0.3,114.9-0.7,229.8-1,344.8H0L0.4,278.9z"/>
</svg>
