<svg id="Layer_1" data-name="Layer 1" xmlns="http://www.w3.org/2000/svg" viewBox="0 0 600 900"><defs><style>.cls-1{fill:#efd387;}.cls-2{fill:#fff;opacity:0.01;}</style></defs><title>stars-paralax</title><polygon class="cls-1" points="567.86 325.08 570.59 350.82 592.35 355.54 572.23 365.1 575.62 388.55 559.27 371.1 538.4 381.03 549.51 360.49 534.91 346.84 556.55 347.98 567.86 325.08"/><polygon class="cls-1" points="512.37 327.6 514.5 348.02 531.84 351.91 515.8 359.51 518.54 378.11 505.51 364.32 488.95 372.21 497.83 355.9 486.09 344.9 503.36 345.8 512.37 327.6"/><polygon class="cls-1" points="467.58 329.3 469.37 346.1 483.6 349.21 470.49 355.43 472.61 370.61 461.99 359.29 448.48 365.8 455.66 352.36 446.14 343.45 460.22 344.15 467.58 329.3"/><rect class="cls-2" x="599" y="899" width="1" height="1"/><rect class="cls-2" y="882" width="1" height="1"/><rect class="cls-2" width="1" height="1"/><rect class="cls-2" x="599" width="1" height="1"/></svg>