<svg id="Layer_1" data-name="Layer 1" xmlns="http://www.w3.org/2000/svg" viewBox="0 0 1920 1080.09"><defs><style>.cls-1{fill:#fff;opacity:0.01;}.cls-2{fill:#b4b4b4;}</style></defs><title>gears</title><rect class="cls-1" x="0.08" width="1" height="1"/><rect class="cls-1" x="1919" width="1" height="1"/><rect class="cls-1" x="1919" y="1079.09" width="1" height="1"/><rect class="cls-1" y="1079" width="1" height="1"/><path class="cls-2" d="M1381.64,604.16l4.7-16-9.73-6.76-.19-10.45,9.39-8.53-5.48-12.63-12.68,2.66-7-9.21,3.46-15.54L1351,521.71l-8,7.21-10.79-4.61-2.26-12.22-17.11,1L1310,527.3l-8.17,3.87-11-7.49-14,7.65,2.51,13.56-6,7.67-11.77,0-3.07,18.92,8.56,2.35,1.73,12.61-10.22,7.8,5.94,15.66,12.07,1,4.84,5.06-2.4,14.77,12.86,7.8,10.67-7.73,9.95,2.58,2.33,11.76,17.35.48,2.39-14.77,11.23-2.42,10.26,6.43,13.19-8.74-5.08-12.2,5-10.55Zm-62.77-2.24a23.57,23.57,0,1,1,26.9-19.46A23.56,23.56,0,0,1,1318.87,601.92Z"/><path class="cls-2" d="M1417.07,519.18l1.89-6.42-3.9-2.71-.08-4.19,3.76-3.42-2.19-5.05-5.08,1.06-2.8-3.69,1.39-6.23-5.28-2.38-3.2,2.89-4.33-1.85-.9-4.89-6.85.39-1.12,5.7-3.27,1.55-4.42-3L1375.1,490l1,5.43-2.38,3.07H1369l-1.23,7.58,3.43.94.69,5.05-4.09,3.13,2.38,6.27,4.84.42,1.93,2-1,5.92,5.16,3.13,4.27-3.1,4,1,.93,4.71,7,.19,1-5.92,4.5-1,4.11,2.58,5.29-3.5-2-4.89,2-4.23Zm-25.15-.89a9.45,9.45,0,1,1,10.78-7.8A9.45,9.45,0,0,1,1391.92,518.29Z"/></svg>