<svg id="Layer_1" data-name="Layer 1" xmlns="http://www.w3.org/2000/svg" viewBox="0 0 1920 1080.09"><defs><style>.cls-1{fill:#efd387;}.cls-2{fill:#0d1661;}.cls-3{fill:#fdf3f3;}.cls-4{fill:#ccc;opacity:0.44;}.cls-5{fill:#fff;opacity:0.01;}</style></defs><title>calendar</title><path class="cls-1" d="M1574.75,634.08,1431.26,610.5a5,5,0,0,0-5.71,4.13L1418,661.2l1,.17,2.23.36,146.66,24.1,3.42.56,7.32-45.07.24-1.5A5,5,0,0,0,1574.75,634.08Zm-90.26,16.68a5.61,5.61,0,0,1-1.84,3.7,4.65,4.65,0,0,1-3.78.72,5.68,5.68,0,0,1-2.5-1,5.15,5.15,0,0,1-1.66-2.06l1.22-1a4.18,4.18,0,0,0,3.21,2.61q3,.5,3.63-3.13l1.62-10-6-1,.24-1.5,7.7,1.26Zm18.83,1.07a7.51,7.51,0,0,1-2.63,5,7.68,7.68,0,0,1-9.91-1.63,7.46,7.46,0,0,1-.91-5.63l1.53-9.45,1.73.29-1.52,9.37a6.27,6.27,0,0,0,.59,4.5,5.72,5.72,0,0,0,7.47,1.22,6.26,6.26,0,0,0,2-4.07l1.52-9.37,1.69.27ZM1521.09,662l-1.43-.23-8.36-15.11L1509.13,660l-1.73-.29,2.67-16.48,1.43.24,8.39,15.1,2.17-13.37,1.7.28Z"/><path class="cls-2" d="M1478.4,639.58l6,1-1.62,10q-.58,3.63-3.63,3.13a4.18,4.18,0,0,1-3.21-2.61l-1.22,1a5.15,5.15,0,0,0,1.66,2.06,5.68,5.68,0,0,0,2.5,1,4.65,4.65,0,0,0,3.78-.72,5.61,5.61,0,0,0,1.84-3.7l1.85-11.42-7.7-1.26Z"/><path class="cls-2" d="M1501.65,651.48a6.26,6.26,0,0,1-2,4.07,5.72,5.72,0,0,1-7.47-1.22,6.27,6.27,0,0,1-.59-4.5l1.52-9.37-1.73-.29-1.53,9.45a7.46,7.46,0,0,0,.91,5.63,7.68,7.68,0,0,0,9.91,1.63,7.51,7.51,0,0,0,2.63-5l1.54-9.45-1.69-.27Z"/><polygon class="cls-2" points="1519.89 658.59 1511.5 643.48 1510.07 643.24 1507.4 659.73 1509.13 660.01 1511.3 646.63 1519.66 661.74 1521.09 661.97 1523.77 645.49 1522.06 645.21 1519.89 658.59"/><path class="cls-2" d="M1480.16,701.4a15,15,0,0,0-16.28-2.68,16.16,16.16,0,0,0-6.72,6.09,30.21,30.21,0,0,0-3.48,21.48,16,16,0,0,0,4.44,7.91,15,15,0,0,0,16.28,2.68,16.43,16.43,0,0,0,6.74-6.08,29.81,29.81,0,0,0,3.48-21.48A16.27,16.27,0,0,0,1480.16,701.4Zm.58,18.31a24.17,24.17,0,0,1-2.91,8.65,12.49,12.49,0,0,1-5,4.94,10.6,10.6,0,0,1-12.12-2,12.7,12.7,0,0,1-3.17-6.28,28.08,28.08,0,0,1,2.89-17.79,12.49,12.49,0,0,1,5-4.94,10.6,10.6,0,0,1,12.12,2,12.7,12.7,0,0,1,3.17,6.28A24.48,24.48,0,0,1,1480.74,719.71Z"/><polygon class="cls-2" points="1516.89 722.16 1512.95 721.51 1511.46 730.69 1494.34 727.88 1518.66 705.57 1514.15 704.83 1488.98 727.7 1488.51 730.64 1510.76 734.3 1509.07 744.73 1513.12 745.39 1514.81 734.97 1522.7 736.26 1523.29 732.63 1515.4 731.34 1516.89 722.16"/><path class="cls-3" d="M1477.55,704.29a10.6,10.6,0,0,0-12.12-2,12.49,12.49,0,0,0-5,4.94,28.08,28.08,0,0,0-2.89,17.79,12.7,12.7,0,0,0,3.17,6.28,10.6,10.6,0,0,0,12.12,2,12.49,12.49,0,0,0,5-4.94,24.17,24.17,0,0,0,2.91-8.65,24.48,24.48,0,0,0,0-9.14A12.7,12.7,0,0,0,1477.55,704.29Z"/><path class="cls-3" d="M1419,661.37l-1-.17-16,98.34a5.5,5.5,0,0,0,2.42,5.49l.29.17a5.39,5.39,0,0,0,1.79.64l101.37,16.49s6.51-18.66,10-29.1h0l.57-3.51a10.21,10.21,0,0,1,11.72-8.48l28,4.59,3.32.55-.34,2.13a55.36,55.36,0,0,1-1.48,6.16c-.4,1.25-.82,2.32-.91,2.53-.16.42-.55,1.39-1.13,2.61s-1.21,2.38-1.56,3c-.18.33-.5.87-.9,1.51a42.07,42.07,0,0,1-11.8,12.24,50.47,50.47,0,0,1-4.35,2.63c-3,1.66-4.6,2.25-8.41,4.22-1.74.89-3.13,1.66-4,2.15A28.17,28.17,0,0,0,1553.4,775h0a28.36,28.36,0,0,0,5.61-12.91l12.28-75.69Zm65.93,59a26.69,26.69,0,0,1-3.77,10.41,16.43,16.43,0,0,1-6.74,6.08,15,15,0,0,1-16.28-2.68,16,16,0,0,1-4.44-7.91,30.21,30.21,0,0,1,3.48-21.48,16.16,16.16,0,0,1,6.72-6.09,15,15,0,0,1,16.28,2.68,16.27,16.27,0,0,1,4.46,7.92A26.55,26.55,0,0,1,1484.91,720.39Zm34,26.23a1,1,0,0,0,0-.23A1,1,0,0,1,1518.94,746.62Zm3.76-10.36-7.89-1.3-1.69,10.43-4-.66,1.69-10.43-22.25-3.66.48-2.94,25.16-22.87,4.51.74-24.33,22.31,17.13,2.81,1.49-9.18,3.94.65-1.49,9.18,7.89,1.29Z"/><path class="cls-4" d="M1558.13,745.83l-28-4.59a10.21,10.21,0,0,0-11.72,8.48l-.57,3.51h0c-3.46,10.44-10,29.1-10,29.1l-101.37-16.49a5.39,5.39,0,0,1-1.79-.64l-.29-.17-.1.6a9,9,0,0,0,7.38,10.33l129,21.2a9,9,0,0,0,10.27-7.43L1553.4,775h0a28.17,28.17,0,0,1-26.84,10.57c1-.57,2.57-1.42,4.49-2.42,4.43-2.3,6-2.83,8.56-4.3a44.09,44.09,0,0,0,6.89-4.67,47.37,47.37,0,0,0,8.63-9.85c.47-.75.9-1.51.9-1.51l.37-.65c.27-.5.5-.93.67-1.27l.16-.3.19-.39.17-.39c.31-.65.6-1.31.88-2,.08-.21.17-.41.25-.62.33-.83.63-1.68.91-2.54,0-.15.08-.3.13-.45.23-.73.43-1.48.62-2.24l.18-.73c.21-.9.4-1.81.55-2.74l.34-2.13Z"/><rect class="cls-5" x="0.08" width="1" height="1"/><rect class="cls-5" x="1919" width="1" height="1"/><rect class="cls-5" x="1919" y="1079.09" width="1" height="1"/><rect class="cls-5" y="1079" width="1" height="1"/></svg>