<svg id="Layer_1" data-name="Layer 1" xmlns="http://www.w3.org/2000/svg" viewBox="0 0 467.55 230.84"><defs><style>.cls-1{fill:#f2f7f1;}.cls-2{fill:#037f8c;}</style></defs><title>card1</title><path class="cls-1" d="M5.65,0a4.74,4.74,0,1,0,4.73,4.74A4.74,4.74,0,0,0,5.65,0Z" transform="translate(-0.91)"/><path class="cls-1" d="M24.59,0a4.74,4.74,0,1,0,4.74,4.74A4.74,4.74,0,0,0,24.59,0Z" transform="translate(-0.91)"/><path class="cls-1" d="M5.65,19a4.74,4.74,0,1,0,4.73,4.74A4.74,4.74,0,0,0,5.65,19Z" transform="translate(-0.91)"/><path class="cls-1" d="M24.59,19a4.74,4.74,0,1,0,4.74,4.74A4.74,4.74,0,0,0,24.59,19Z" transform="translate(-0.91)"/><path class="cls-1" d="M5.65,37.89a4.74,4.74,0,1,0,4.73,4.74A4.74,4.74,0,0,0,5.65,37.89Z" transform="translate(-0.91)"/><path class="cls-1" d="M24.59,37.89a4.74,4.74,0,1,0,4.74,4.74A4.74,4.74,0,0,0,24.59,37.89Z" transform="translate(-0.91)"/><path class="cls-1" d="M5.65,56.84a4.74,4.74,0,1,0,4.73,4.74A4.74,4.74,0,0,0,5.65,56.84Z" transform="translate(-0.91)"/><path class="cls-1" d="M24.59,56.84a4.74,4.74,0,1,0,4.74,4.74A4.74,4.74,0,0,0,24.59,56.84Z" transform="translate(-0.91)"/><path class="cls-1" d="M43.54,0a4.74,4.74,0,1,0,4.74,4.74A4.74,4.74,0,0,0,43.54,0Z" transform="translate(-0.91)"/><path class="cls-1" d="M62.49,0a4.74,4.74,0,1,0,4.74,4.74A4.73,4.73,0,0,0,62.49,0Z" transform="translate(-0.91)"/><path class="cls-1" d="M43.54,19a4.74,4.74,0,1,0,4.74,4.74A4.74,4.74,0,0,0,43.54,19Z" transform="translate(-0.91)"/><path class="cls-1" d="M62.49,19a4.74,4.74,0,1,0,4.74,4.74A4.73,4.73,0,0,0,62.49,19Z" transform="translate(-0.91)"/><path class="cls-1" d="M43.54,37.89a4.74,4.74,0,1,0,4.74,4.74A4.74,4.74,0,0,0,43.54,37.89Z" transform="translate(-0.91)"/><path class="cls-1" d="M62.49,37.89a4.74,4.74,0,1,0,4.74,4.74A4.74,4.74,0,0,0,62.49,37.89Z" transform="translate(-0.91)"/><path class="cls-1" d="M43.54,56.84a4.74,4.74,0,1,0,4.74,4.74A4.74,4.74,0,0,0,43.54,56.84Z" transform="translate(-0.91)"/><path class="cls-1" d="M62.49,56.84a4.74,4.74,0,1,0,4.74,4.74A4.73,4.73,0,0,0,62.49,56.84Z" transform="translate(-0.91)"/><path class="cls-1" d="M81.44,0a4.74,4.74,0,1,0,4.74,4.74A4.74,4.74,0,0,0,81.44,0Z" transform="translate(-0.91)"/><path class="cls-1" d="M100.38,0a4.74,4.74,0,1,0,4.74,4.74A4.74,4.74,0,0,0,100.38,0Z" transform="translate(-0.91)"/><path class="cls-1" d="M81.44,19a4.74,4.74,0,1,0,4.74,4.74A4.74,4.74,0,0,0,81.44,19Z" transform="translate(-0.91)"/><path class="cls-1" d="M100.38,19a4.74,4.74,0,1,0,4.74,4.74A4.74,4.74,0,0,0,100.38,19Z" transform="translate(-0.91)"/><path class="cls-1" d="M81.44,37.89a4.74,4.74,0,1,0,4.74,4.74A4.74,4.74,0,0,0,81.44,37.89Z" transform="translate(-0.91)"/><path class="cls-1" d="M100.38,37.89a4.74,4.74,0,1,0,4.74,4.74A4.74,4.74,0,0,0,100.38,37.89Z" transform="translate(-0.91)"/><path class="cls-1" d="M81.44,56.84a4.74,4.74,0,1,0,4.74,4.74A4.74,4.74,0,0,0,81.44,56.84Z" transform="translate(-0.91)"/><path class="cls-1" d="M100.38,56.84a4.74,4.74,0,1,0,4.74,4.74A4.74,4.74,0,0,0,100.38,56.84Z" transform="translate(-0.91)"/><path class="cls-1" d="M119.33,0a4.74,4.74,0,1,0,4.74,4.74A4.74,4.74,0,0,0,119.33,0Z" transform="translate(-0.91)"/><path class="cls-1" d="M138.28,0A4.74,4.74,0,1,0,143,4.74,4.74,4.74,0,0,0,138.28,0Z" transform="translate(-0.91)"/><path class="cls-1" d="M119.33,19a4.74,4.74,0,1,0,4.74,4.74A4.74,4.74,0,0,0,119.33,19Z" transform="translate(-0.91)"/><path class="cls-1" d="M138.28,19A4.74,4.74,0,1,0,143,23.69,4.74,4.74,0,0,0,138.28,19Z" transform="translate(-0.91)"/><path class="cls-1" d="M119.33,37.89a4.74,4.74,0,1,0,4.74,4.74A4.75,4.75,0,0,0,119.33,37.89Z" transform="translate(-0.91)"/><path class="cls-1" d="M138.28,37.89A4.74,4.74,0,1,0,143,42.63,4.75,4.75,0,0,0,138.28,37.89Z" transform="translate(-0.91)"/><path class="cls-1" d="M119.33,56.84a4.74,4.74,0,1,0,4.74,4.74A4.74,4.74,0,0,0,119.33,56.84Z" transform="translate(-0.91)"/><path class="cls-1" d="M138.28,56.84A4.74,4.74,0,1,0,143,61.58,4.74,4.74,0,0,0,138.28,56.84Z" transform="translate(-0.91)"/><path class="cls-1" d="M5.65,75.79a4.74,4.74,0,1,0,4.73,4.74A4.74,4.74,0,0,0,5.65,75.79Z" transform="translate(-0.91)"/><path class="cls-1" d="M24.59,75.79a4.74,4.74,0,1,0,4.74,4.74A4.74,4.74,0,0,0,24.59,75.79Z" transform="translate(-0.91)"/><path class="cls-1" d="M5.65,94.74a4.74,4.74,0,1,0,4.73,4.74A4.73,4.73,0,0,0,5.65,94.74Z" transform="translate(-0.91)"/><path class="cls-1" d="M24.59,94.74a4.74,4.74,0,1,0,4.74,4.74A4.73,4.73,0,0,0,24.59,94.74Z" transform="translate(-0.91)"/><path class="cls-1" d="M5.65,113.69a4.74,4.74,0,1,0,4.73,4.73A4.73,4.73,0,0,0,5.65,113.69Z" transform="translate(-0.91)"/><path class="cls-1" d="M24.59,113.69a4.74,4.74,0,1,0,4.74,4.73A4.73,4.73,0,0,0,24.59,113.69Z" transform="translate(-0.91)"/><path class="cls-1" d="M5.65,132.63a4.74,4.74,0,1,0,4.73,4.73A4.74,4.74,0,0,0,5.65,132.63Z" transform="translate(-0.91)"/><path class="cls-1" d="M24.59,132.63a4.74,4.74,0,1,0,4.74,4.73A4.73,4.73,0,0,0,24.59,132.63Z" transform="translate(-0.91)"/><path class="cls-1" d="M43.54,75.79a4.74,4.74,0,1,0,4.74,4.74A4.74,4.74,0,0,0,43.54,75.79Z" transform="translate(-0.91)"/><path class="cls-1" d="M62.49,75.79a4.74,4.74,0,1,0,4.74,4.74A4.73,4.73,0,0,0,62.49,75.79Z" transform="translate(-0.91)"/><path class="cls-1" d="M43.54,94.74a4.74,4.74,0,1,0,4.74,4.74A4.73,4.73,0,0,0,43.54,94.74Z" transform="translate(-0.91)"/><path class="cls-1" d="M62.49,94.74a4.74,4.74,0,1,0,4.74,4.74A4.72,4.72,0,0,0,62.49,94.74Z" transform="translate(-0.91)"/><path class="cls-1" d="M43.54,113.69a4.74,4.74,0,1,0,4.74,4.73A4.73,4.73,0,0,0,43.54,113.69Z" transform="translate(-0.91)"/><path class="cls-1" d="M62.49,113.69c-.13,0-.26,0-.38,0,0,0,.11.1.16.16l1.62,2.5a1,1,0,0,1-.34,1.4l-2.29,1.37,2,3.15c1.06-.53,2.15-1,3.25-1.49a4.66,4.66,0,0,0,.68-2.4A4.74,4.74,0,0,0,62.49,113.69Z" transform="translate(-0.91)"/><path class="cls-1" d="M43.54,132.63a4.73,4.73,0,0,0-2.49,8.75,58,58,0,0,1,6-7.21A4.69,4.69,0,0,0,43.54,132.63Z" transform="translate(-0.91)"/><path class="cls-1" d="M65,133.35a48.57,48.57,0,0,0-7.07,5.11,4.71,4.71,0,0,0,8.67,1.27,3.87,3.87,0,0,1-.42-.54,3.35,3.35,0,0,1,.49-4.08A4.78,4.78,0,0,0,65,133.35Z" transform="translate(-0.91)"/><path class="cls-1" d="M81.44,75.79a4.74,4.74,0,1,0,4.74,4.74A4.74,4.74,0,0,0,81.44,75.79Z" transform="translate(-0.91)"/><path class="cls-1" d="M100.38,75.79a4.74,4.74,0,1,0,4.74,4.74A4.74,4.74,0,0,0,100.38,75.79Z" transform="translate(-0.91)"/><path class="cls-1" d="M81.44,94.74a4.74,4.74,0,0,0-3.93,7.39,2.17,2.17,0,0,1,1.95-1.24h6.48a4.67,4.67,0,0,0,.24-1.4A4.74,4.74,0,0,0,81.44,94.74Z" transform="translate(-0.91)"/><path class="cls-1" d="M100.38,94.74a4.73,4.73,0,0,0-4.73,4.74,4.86,4.86,0,0,0,.22,1.38l6.12,0a2.12,2.12,0,0,1,2.08,1.57,4.64,4.64,0,0,0,1.05-2.93A4.73,4.73,0,0,0,100.38,94.74Z" transform="translate(-0.91)"/><path class="cls-1" d="M84.81,115.1a4.74,4.74,0,0,0-8,2.37,63.87,63.87,0,0,1,8-1.32Z" transform="translate(-0.91)"/><path class="cls-1" d="M100.38,113.69a4.7,4.7,0,0,0-3.66,1.76v.67a62.87,62.87,0,0,1,8.31,1.35A4.74,4.74,0,0,0,100.38,113.69Z" transform="translate(-0.91)"/><path class="cls-1" d="M81.44,132.63a4.74,4.74,0,1,0,4.74,4.73A4.74,4.74,0,0,0,81.44,132.63Z" transform="translate(-0.91)"/><path class="cls-1" d="M100.38,132.63a4.74,4.74,0,1,0,4.74,4.73A4.73,4.73,0,0,0,100.38,132.63Z" transform="translate(-0.91)"/><path class="cls-1" d="M119.33,75.79a4.74,4.74,0,1,0,4.74,4.74A4.74,4.74,0,0,0,119.33,75.79Z" transform="translate(-0.91)"/><path class="cls-1" d="M138.28,75.79A4.74,4.74,0,1,0,143,80.53,4.74,4.74,0,0,0,138.28,75.79Z" transform="translate(-0.91)"/><path class="cls-1" d="M119.33,94.74a4.74,4.74,0,1,0,4.74,4.74A4.74,4.74,0,0,0,119.33,94.74Z" transform="translate(-0.91)"/><path class="cls-1" d="M138.28,94.74A4.74,4.74,0,1,0,143,99.48,4.74,4.74,0,0,0,138.28,94.74Z" transform="translate(-0.91)"/><path class="cls-1" d="M119.26,113.75s0,0,.06-.06a4.74,4.74,0,0,0-4.73,4.73,4.69,4.69,0,0,0,.68,2.4c1,.43,2,.88,3,1.36l2-3.16-2.3-1.36a1,1,0,0,1-.35-1.4Z" transform="translate(-0.91)"/><path class="cls-1" d="M138.28,113.69a4.74,4.74,0,1,0,4.74,4.73A4.74,4.74,0,0,0,138.28,113.69Z" transform="translate(-0.91)"/><path class="cls-1" d="M115.24,139.71a4.71,4.71,0,0,0,8.69-1.25,48.57,48.57,0,0,0-7.07-5.11,4.58,4.58,0,0,0-1.67,1.77,3.32,3.32,0,0,1,.46,4A3.28,3.28,0,0,1,115.24,139.71Z" transform="translate(-0.91)"/><path class="cls-1" d="M138.28,132.63a4.69,4.69,0,0,0-3.47,1.54,57.91,57.91,0,0,1,6,7.21,4.73,4.73,0,0,0-2.49-8.75Z" transform="translate(-0.91)"/><path class="cls-1" d="M5.65,151.58a4.74,4.74,0,1,0,4.73,4.73A4.74,4.74,0,0,0,5.65,151.58Z" transform="translate(-0.91)"/><path class="cls-1" d="M24.59,151.58a4.74,4.74,0,1,0,4.74,4.73A4.73,4.73,0,0,0,24.59,151.58Z" transform="translate(-0.91)"/><path class="cls-1" d="M5.65,170.53a4.74,4.74,0,1,0,4.73,4.73A4.74,4.74,0,0,0,5.65,170.53Z" transform="translate(-0.91)"/><path class="cls-1" d="M24.59,170.53a4.74,4.74,0,1,0,4.74,4.73A4.73,4.73,0,0,0,24.59,170.53Z" transform="translate(-0.91)"/><path class="cls-1" d="M46.68,152.79A45.8,45.8,0,0,0,43.47,161h.07a4.72,4.72,0,0,0,3.14-8.26Z" transform="translate(-0.91)"/><path class="cls-1" d="M62.49,151.58a4.74,4.74,0,1,0,4.74,4.73A4.73,4.73,0,0,0,62.49,151.58Z" transform="translate(-0.91)"/><path class="cls-1" d="M44.06,173.45v-.13a3.4,3.4,0,0,1,1.11-2.49,4.85,4.85,0,0,0-1.62-.3,4.65,4.65,0,0,0-1.71.33c0,.86-.07,1.73-.07,2.6a47.15,47.15,0,0,0,.47,6.33,4.61,4.61,0,0,0,5.74-2.9,2.58,2.58,0,0,1-.29,0A3.54,3.54,0,0,1,44.06,173.45Z" transform="translate(-0.91)"/><path class="cls-1" d="M62.49,170.53a4.74,4.74,0,1,0,4.74,4.73A4.73,4.73,0,0,0,62.49,170.53Z" transform="translate(-0.91)"/><path class="cls-1" d="M81.44,151.58a4.74,4.74,0,1,0,4.74,4.73A4.74,4.74,0,0,0,81.44,151.58Z" transform="translate(-0.91)"/><path class="cls-1" d="M100.38,151.58a4.74,4.74,0,1,0,4.74,4.73A4.73,4.73,0,0,0,100.38,151.58Z" transform="translate(-0.91)"/><path class="cls-1" d="M84.07,174.43l.54-2.66A4.73,4.73,0,1,0,81.44,180a4.67,4.67,0,0,0,3.46-1.53A5.33,5.33,0,0,1,84.07,174.43Z" transform="translate(-0.91)"/><path class="cls-1" d="M100.38,170.53a4.77,4.77,0,0,0-3.2,1.26l.58,2.8a5.07,5.07,0,0,1,0,2,5.19,5.19,0,0,1-.83,1.93,4.73,4.73,0,1,0,3.44-8Z" transform="translate(-0.91)"/><path class="cls-1" d="M119.33,151.58a4.74,4.74,0,1,0,4.74,4.73A4.74,4.74,0,0,0,119.33,151.58Z" transform="translate(-0.91)"/><path class="cls-1" d="M138.28,161.05h.09a45.55,45.55,0,0,0-3.22-8.25,4.67,4.67,0,0,0-1.61,3.52A4.74,4.74,0,0,0,138.28,161.05Z" transform="translate(-0.91)"/><path class="cls-1" d="M119.33,170.53a4.74,4.74,0,1,0,4.74,4.73A4.74,4.74,0,0,0,119.33,170.53Z" transform="translate(-0.91)"/><path class="cls-1" d="M138.28,170.53a4.68,4.68,0,0,0-1.59.3,3.36,3.36,0,0,1,1.09,2.47,3.5,3.5,0,0,1-2.44,3.28,4,4,0,0,1-1.18.19l-.36,0a4.73,4.73,0,0,0,4.48,3.26,4.79,4.79,0,0,0,1.32-.21,44.34,44.34,0,0,0,.47-6.56c0-.79,0-1.58-.07-2.37A4.66,4.66,0,0,0,138.28,170.53Z" transform="translate(-0.91)"/><path class="cls-1" d="M157.23,0A4.74,4.74,0,1,0,162,4.74,4.74,4.74,0,0,0,157.23,0Z" transform="translate(-0.91)"/><path class="cls-1" d="M157.23,19A4.74,4.74,0,1,0,162,23.69,4.74,4.74,0,0,0,157.23,19Z" transform="translate(-0.91)"/><path class="cls-1" d="M176.18,0a4.74,4.74,0,1,0,4.74,4.74A4.74,4.74,0,0,0,176.18,0Z" transform="translate(-0.91)"/><path class="cls-1" d="M176.18,19a4.74,4.74,0,1,0,4.74,4.74A4.74,4.74,0,0,0,176.18,19Z" transform="translate(-0.91)"/><path class="cls-1" d="M157.23,37.89A4.74,4.74,0,1,0,162,42.63,4.74,4.74,0,0,0,157.23,37.89Z" transform="translate(-0.91)"/><path class="cls-1" d="M157.23,56.84A4.74,4.74,0,1,0,162,61.58,4.74,4.74,0,0,0,157.23,56.84Z" transform="translate(-0.91)"/><path class="cls-1" d="M176.18,37.89a4.74,4.74,0,1,0,4.74,4.74A4.74,4.74,0,0,0,176.18,37.89Z" transform="translate(-0.91)"/><path class="cls-1" d="M176.18,56.84a4.74,4.74,0,1,0,4.74,4.74A4.74,4.74,0,0,0,176.18,56.84Z" transform="translate(-0.91)"/><path class="cls-1" d="M157.23,75.79A4.74,4.74,0,1,0,162,80.53,4.74,4.74,0,0,0,157.23,75.79Z" transform="translate(-0.91)"/><path class="cls-1" d="M157.23,94.74A4.74,4.74,0,1,0,162,99.48,4.73,4.73,0,0,0,157.23,94.74Z" transform="translate(-0.91)"/><path class="cls-1" d="M176.18,75.79a4.74,4.74,0,1,0,4.74,4.74A4.74,4.74,0,0,0,176.18,75.79Z" transform="translate(-0.91)"/><path class="cls-1" d="M176.18,94.74a4.74,4.74,0,1,0,4.74,4.74A4.73,4.73,0,0,0,176.18,94.74Z" transform="translate(-0.91)"/><path class="cls-1" d="M157.23,113.69a4.74,4.74,0,1,0,4.74,4.73A4.73,4.73,0,0,0,157.23,113.69Z" transform="translate(-0.91)"/><path class="cls-1" d="M157.23,132.63a4.74,4.74,0,1,0,4.74,4.73A4.74,4.74,0,0,0,157.23,132.63Z" transform="translate(-0.91)"/><path class="cls-1" d="M176.18,113.69a4.74,4.74,0,1,0,4.74,4.73A4.73,4.73,0,0,0,176.18,113.69Z" transform="translate(-0.91)"/><path class="cls-1" d="M176.18,132.63a4.74,4.74,0,1,0,4.74,4.73A4.74,4.74,0,0,0,176.18,132.63Z" transform="translate(-0.91)"/><path class="cls-1" d="M157.23,151.58a4.74,4.74,0,1,0,4.74,4.73A4.74,4.74,0,0,0,157.23,151.58Z" transform="translate(-0.91)"/><path class="cls-1" d="M176.18,151.58a4.74,4.74,0,1,0,4.74,4.73A4.74,4.74,0,0,0,176.18,151.58Z" transform="translate(-0.91)"/><path class="cls-1" d="M157.23,170.53a4.74,4.74,0,1,0,4.74,4.73A4.74,4.74,0,0,0,157.23,170.53Z" transform="translate(-0.91)"/><path class="cls-1" d="M176.18,170.53a4.74,4.74,0,1,0,4.74,4.73A4.74,4.74,0,0,0,176.18,170.53Z" transform="translate(-0.91)"/><path class="cls-2" d="M97.18,171.79l-6-28.95a.4.4,0,0,0-.75,0l-5.83,28.93-.54,2.66a5.33,5.33,0,0,0,.83,4,6.79,6.79,0,0,0,4.38,2.81,7.54,7.54,0,0,0,7.66-2.78,5.19,5.19,0,0,0,.83-1.93,5.07,5.07,0,0,0,0-2Z" transform="translate(-0.91)"/><path class="cls-2" d="M110.72,140.43a3.8,3.8,0,0,0,3,.28,3.49,3.49,0,0,0,1.54-1,3.28,3.28,0,0,0,.41-.55,3.32,3.32,0,0,0-.46-4,3.85,3.85,0,0,0-.86-.68,3.68,3.68,0,0,0-4.94,1.27A3.39,3.39,0,0,0,110.72,140.43Z" transform="translate(-0.91)"/><path class="cls-2" d="M91,211.32a3.47,3.47,0,1,0,0,6.93,3.68,3.68,0,0,0,1.17-.19,3.49,3.49,0,0,0,2.45-3.28A3.55,3.55,0,0,0,91,211.32Z" transform="translate(-0.91)"/><path class="cls-2" d="M130.21,191a3.7,3.7,0,0,0-4.94,1.27A3.4,3.4,0,0,0,126.6,197a3.72,3.72,0,0,0,3,.27,3.46,3.46,0,0,0,1.95-1.54A3.39,3.39,0,0,0,130.21,191Z" transform="translate(-0.91)"/><path class="cls-2" d="M125.24,154.32a3.7,3.7,0,0,0,4.31,1.54,3.5,3.5,0,0,0,1.93-5,3.71,3.71,0,0,0-4.93-1.26,3.41,3.41,0,0,0-1.32,4.75Z" transform="translate(-0.91)"/><path class="cls-2" d="M110.78,206.21a3.4,3.4,0,0,0-1.31,4.74,3.71,3.71,0,0,0,4.32,1.52,6.48,6.48,0,0,0,.63-.26,3.4,3.4,0,0,0,1.31-4.74A3.7,3.7,0,0,0,110.78,206.21Z" transform="translate(-0.91)"/><path class="cls-2" d="M51.69,191.16a3.39,3.39,0,0,0-1.32,4.73h0a3.68,3.68,0,0,0,4.3,1.52,2.43,2.43,0,0,0,.62-.28,3.36,3.36,0,0,0,1.32-4.72A3.69,3.69,0,0,0,51.69,191.16Z" transform="translate(-0.91)"/><path class="cls-2" d="M71.17,206.28a3.7,3.7,0,0,0-4.93,1.28,3.39,3.39,0,0,0,1.32,4.73,3.76,3.76,0,0,0,3,.25,3.56,3.56,0,0,0,2-1.52A3.4,3.4,0,0,0,71.17,206.28Z" transform="translate(-0.91)"/><path class="cls-2" d="M51.65,155.6a3.73,3.73,0,0,0,3,.28,3.64,3.64,0,0,0,1.95-1.53,3.39,3.39,0,0,0-1.31-4.75,3.74,3.74,0,0,0-5,1.28A3.39,3.39,0,0,0,51.65,155.6Z" transform="translate(-0.91)"/><path class="cls-2" d="M134.17,169.84a3.45,3.45,0,0,0-.37,6.9l.36,0a4,4,0,0,0,1.18-.19,3.5,3.5,0,0,0,2.44-3.28,3.36,3.36,0,0,0-1.09-2.47A3.7,3.7,0,0,0,134.17,169.84Z" transform="translate(-0.91)"/><path class="cls-2" d="M51.27,173.44v-.1h0a3.54,3.54,0,0,0-3.6-3.48,3.69,3.69,0,0,0-2.51,1,3.4,3.4,0,0,0-1.11,2.49v.13a3.54,3.54,0,0,0,3.62,3.47,2.58,2.58,0,0,0,.29,0,3.72,3.72,0,0,0,.88-.18A3.45,3.45,0,0,0,51.27,173.44Z" transform="translate(-0.91)"/><path class="cls-2" d="M90.9,135.37a4,4,0,0,0,1.2-.2,3.5,3.5,0,0,0,2.43-3.28,3.62,3.62,0,1,0-3.63,3.48Z" transform="translate(-0.91)"/><path class="cls-2" d="M66.57,139.73a3.75,3.75,0,0,0,3.91,1,4.77,4.77,0,0,0,.62-.28,3.39,3.39,0,0,0,1.32-4.72,3.71,3.71,0,0,0-4.94-1.28,3.75,3.75,0,0,0-.84.67,3.35,3.35,0,0,0-.49,4.08A3.87,3.87,0,0,0,66.57,139.73Z" transform="translate(-0.91)"/><path class="cls-2" d="M134.81,134.17a60.28,60.28,0,0,0-11.33-9.11l1.94-3,2.3,1.36a1.09,1.09,0,0,0,1.46-.34l1.61-2.5a1,1,0,0,0-.34-1.4l-9.73-5.74a1.08,1.08,0,0,0-1.4.27s0,0-.06.06l-1.62,2.51a1,1,0,0,0,.35,1.4l2.3,1.36-2,3.16c-1-.48-2-.93-3-1.36A61.33,61.33,0,0,0,105,117.47a62.87,62.87,0,0,0-8.31-1.35v-4.76H102a2.11,2.11,0,0,0,2.14-2.06l0-6.4a2,2,0,0,0-.07-.48,2.12,2.12,0,0,0-2.08-1.57l-6.12,0-9.93,0H79.46a2.17,2.17,0,0,0-1.95,1.24,1.89,1.89,0,0,0-.18.82v6.4a2.11,2.11,0,0,0,2.15,2.05H84.8v4.76a63.87,63.87,0,0,0-8,1.32,61,61,0,0,0-10.24,3.35c-1.1.47-2.19,1-3.25,1.49l-2-3.15,2.29-1.37a1,1,0,0,0,.34-1.4l-1.62-2.5c-.05-.06-.11-.11-.16-.16a1.09,1.09,0,0,0-1.3-.17l-9.71,5.78a1,1,0,0,0-.34,1.41l1.63,2.5a1.09,1.09,0,0,0,1.46.32l2.3-1.37,2,3A60,60,0,0,0,47,134.17a58,58,0,0,0-6,7.21,55.49,55.49,0,0,0-10.13,32.11c.08,31.75,27,57.43,60.14,57.35S151,205,150.92,173.2a55.45,55.45,0,0,0-10.15-31.82A57.91,57.91,0,0,0,134.81,134.17ZM91,220.45c-24.91.06-45.52-17.65-48.81-40.66a47.15,47.15,0,0,1-.47-6.33c0-.87,0-1.74.07-2.6a45.82,45.82,0,0,1,4.85-18.07A47.75,47.75,0,0,1,57.9,138.46,48.57,48.57,0,0,1,65,133.35a50.89,50.89,0,0,1,51.89,0,48.57,48.57,0,0,1,7.07,5.11,47.35,47.35,0,0,1,11.22,14.33A45.38,45.38,0,0,1,140,170.86c0,.79.07,1.58.07,2.37a44.34,44.34,0,0,1-.47,6.56C136.33,202.7,115.86,220.39,91,220.45Z" transform="translate(-0.91)"/><path class="cls-2" d="M308,125.39a7.67,7.67,0,0,0-8,7.76c0,4.48,3.39,7.76,8.6,7.76a7.87,7.87,0,0,0,6.21-2.44L312.49,136a5.13,5.13,0,0,1-3.78,1.46c-2.3,0-3.89-1.15-4.31-3h11.39c0-.36.09-.84.09-1.17A7.46,7.46,0,0,0,308,125.39Zm-3.7,6.44a3.76,3.76,0,0,1,7.42,0Z" transform="translate(-0.91)"/><rect class="cls-2" x="254.85" y="125.62" width="4.37" height="15.06"/><path class="cls-2" d="M209.37,133.23c0-2.77,1.51-4.06,3.61-4.06,1.93,0,3.05,1.12,3.05,3.56v8h4.37v-8.62c0-4.59-2.69-6.67-6.25-6.67a6.59,6.59,0,0,0-5,2v-1.76H205v15.06h4.37Z" transform="translate(-0.91)"/><path class="cls-2" d="M278.55,123.52a2.52,2.52,0,0,0,2.72-2.52,2.45,2.45,0,0,0-2.72-2.35,2.45,2.45,0,1,0,0,4.87Z" transform="translate(-0.91)"/><path class="cls-2" d="M242.88,140.91a6.09,6.09,0,0,0,4.68-2v1.79h4.14V125.62h-4.37v7.45c0,2.77-1.45,4.06-3.47,4.06s-3.05-1.12-3.05-3.64v-7.87h-4.37v8.51C236.44,138.78,239.1,140.91,242.88,140.91Z" transform="translate(-0.91)"/><rect class="cls-2" x="195.21" y="121.08" width="4.54" height="19.6"/><path class="cls-2" d="M257.94,123.52a2.52,2.52,0,0,0,2.72-2.52,2.45,2.45,0,0,0-2.72-2.35,2.45,2.45,0,1,0,0,4.87Z" transform="translate(-0.91)"/><rect class="cls-2" x="275.45" y="125.62" width="4.37" height="15.06"/><path class="cls-2" d="M224.88,135.5c0,3.59,2.07,5.41,5.62,5.41a6.21,6.21,0,0,0,3.56-1l-1.18-3.08a2.89,2.89,0,0,1-1.76.56,1.75,1.75,0,0,1-1.87-2v-6.14H233V126h-3.75v-3.66h-4.37V126h-2.33v3.36h2.33Z" transform="translate(-0.91)"/><polygon class="cls-2" points="290.32 135.87 286.15 125.62 281.64 125.62 287.97 140.68 292.48 140.68 298.83 125.62 294.63 125.62 290.32 135.87"/><path class="cls-2" d="M272.73,136.87a2.92,2.92,0,0,1-1.77.56,1.75,1.75,0,0,1-1.87-2v-6.14h3.75V126h-3.75v-3.66h-4.37V126H262.4v3.36h2.32v6.19c0,3.59,2.07,5.41,5.63,5.41a6.17,6.17,0,0,0,3.55-1Z" transform="translate(-0.91)"/><path class="cls-2" d="M306.93,159.39a11.62,11.62,0,0,0-6.49,1.82l1.57,3.06a7.22,7.22,0,0,1,4.34-1.4c2.35,0,3.47,1.09,3.47,3h-3.47c-4.6,0-6.47,1.85-6.47,4.51s2.1,4.57,5.63,4.57c2.21,0,3.78-.73,4.59-2.1v1.87h4.09v-8.59C314.19,161.52,311.53,159.39,306.93,159.39Zm2.89,10.53A3.24,3.24,0,0,1,306.6,172c-1.54,0-2.47-.73-2.47-1.82s.65-1.77,2.69-1.77h3Z" transform="translate(-0.91)"/><path class="cls-2" d="M381.44,159.39a7.68,7.68,0,0,0-8,7.76c0,4.48,3.39,7.76,8.6,7.76a7.88,7.88,0,0,0,6.22-2.44L385.89,170a5.09,5.09,0,0,1-3.78,1.46c-2.29,0-3.89-1.15-4.31-3h11.4c0-.36.08-.84.08-1.17A7.46,7.46,0,0,0,381.44,159.39Zm-3.7,6.44a3.76,3.76,0,0,1,7.42,0Z" transform="translate(-0.91)"/><path class="cls-2" d="M366.32,161.55a6,6,0,0,0-5-2.16c-4.18,0-7.54,2.89-7.54,7.28s3.36,7.28,7.54,7.28a6.2,6.2,0,0,0,4.76-1.87v.64c0,2.72-1.35,4.12-4.43,4.12a9,9,0,0,1-5.32-1.71l-1.73,3.14a12.4,12.4,0,0,0,7.39,2.07c5.43,0,8.45-2.58,8.45-8.18V159.62h-4.14Zm-4.12,8.82a3.7,3.7,0,1,1,3.95-3.7A3.68,3.68,0,0,1,362.2,170.37Z" transform="translate(-0.91)"/><path class="cls-2" d="M327.29,159.39a6.58,6.58,0,0,0-5,2v-1.76h-4.18v15.06h4.37v-7.45c0-2.77,1.51-4.06,3.61-4.06,1.94,0,3.06,1.12,3.06,3.56v8h4.36v-8.62C333.53,161.47,330.85,159.39,327.29,159.39Z" transform="translate(-0.91)"/><path class="cls-2" d="M275.85,167.12c0-2.69,1.38-4,3.31-4s2.85,1.12,2.85,3.56v8h4.37v-7.56c0-2.69,1.37-4,3.33-4,1.77,0,2.86,1.12,2.86,3.56v8h4.37v-8.62c0-4.59-2.58-6.67-6.16-6.67a6.77,6.77,0,0,0-5.43,2.47,5.65,5.65,0,0,0-5-2.47,6.13,6.13,0,0,0-4.73,2v-1.73h-4.17v15.06h4.36Z" transform="translate(-0.91)"/><path class="cls-2" d="M411.48,159.39a6.79,6.79,0,0,0-5.43,2.47,5.62,5.62,0,0,0-4.95-2.47,6.13,6.13,0,0,0-4.74,2v-1.73h-4.17v15.06h4.37v-7.56c0-2.69,1.37-4,3.3-4s2.86,1.12,2.86,3.56v8h4.37v-7.56c0-2.69,1.37-4,3.33-4,1.76,0,2.86,1.12,2.86,3.56v8h4.36v-8.62C417.64,161.47,415.07,159.39,411.48,159.39Z" transform="translate(-0.91)"/><path class="cls-2" d="M448.56,159.39a6.6,6.6,0,0,0-5,2v-1.76H439.4v15.06h4.37v-7.45c0-2.77,1.51-4.06,3.61-4.06,1.93,0,3.05,1.12,3.05,3.56v8h4.37v-8.62C454.8,161.47,452.11,159.39,448.56,159.39Z" transform="translate(-0.91)"/><path class="cls-2" d="M465.52,171.43a1.75,1.75,0,0,1-1.87-2v-6.14h3.75V160h-3.75v-3.66h-4.37V160H457v3.36h2.32v6.19c0,3.59,2.07,5.41,5.63,5.41a6.17,6.17,0,0,0,3.55-1l-1.17-3.08A2.92,2.92,0,0,1,465.52,171.43Z" transform="translate(-0.91)"/><path class="cls-2" d="M428.65,159.39a7.68,7.68,0,0,0-8,7.76c0,4.48,3.39,7.76,8.6,7.76a7.87,7.87,0,0,0,6.21-2.44L433.1,170a5.11,5.11,0,0,1-3.78,1.46c-2.3,0-3.89-1.15-4.31-3H436.4c0-.36.09-.84.09-1.17A7.46,7.46,0,0,0,428.65,159.39Zm-3.7,6.44a3.76,3.76,0,0,1,7.42,0Z" transform="translate(-0.91)"/><path class="cls-2" d="M343.56,159.39a11.63,11.63,0,0,0-6.5,1.82l1.57,3.06a7.22,7.22,0,0,1,4.34-1.4c2.35,0,3.47,1.09,3.47,3H343c-4.59,0-6.47,1.85-6.47,4.51s2.1,4.57,5.63,4.57c2.21,0,3.78-.73,4.59-2.1v1.87h4.09v-8.59C350.81,161.52,348.15,159.39,343.56,159.39Zm2.88,10.53a3.22,3.22,0,0,1-3.22,2.05c-1.54,0-2.46-.73-2.46-1.82s.64-1.77,2.68-1.77h3Z" transform="translate(-0.91)"/><path class="cls-2" d="M198.45,169.49c0,3.59,2.07,5.41,5.62,5.41a6.21,6.21,0,0,0,3.56-1l-1.18-3.08a2.89,2.89,0,0,1-1.76.56,1.76,1.76,0,0,1-1.88-2V163.3h3.76v-3.36h-3.76v-3.66h-4.36v3.66h-2.33v3.36h2.33Z" transform="translate(-0.91)"/><path class="cls-2" d="M212.28,152.64A2.45,2.45,0,1,0,215,155,2.44,2.44,0,0,0,212.28,152.64Z" transform="translate(-0.91)"/><rect class="cls-2" x="209.18" y="159.61" width="4.37" height="15.06"/><path class="cls-2" d="M244,174.67v-8.62c0-4.59-2.57-6.67-6.16-6.67a6.79,6.79,0,0,0-5.43,2.47,5.62,5.62,0,0,0-4.95-2.47,6.13,6.13,0,0,0-4.74,2v-1.73h-4.17v15.06h4.37v-7.56c0-2.69,1.37-4,3.3-4s2.86,1.12,2.86,3.56v7.95h4.37v-7.56c0-2.69,1.37-4,3.33-4,1.76,0,2.86,1.12,2.86,3.56v7.95Z" transform="translate(-0.91)"/><path class="cls-2" d="M246.94,167.14c0,4.48,3.39,7.76,8.6,7.76a7.87,7.87,0,0,0,6.21-2.44l-2.32-2.52a5.11,5.11,0,0,1-3.78,1.46c-2.3,0-3.89-1.15-4.31-3h11.39c0-.36.09-.84.09-1.17a7.46,7.46,0,0,0-7.84-7.82A7.68,7.68,0,0,0,246.94,167.14Zm8.07-4.45a3.57,3.57,0,0,1,3.69,3.13h-7.42A3.57,3.57,0,0,1,255,162.69Z" transform="translate(-0.91)"/><path class="cls-2" d="M200.66,196.8c0-.79.84-1.4,2.8-1.4a8.67,8.67,0,0,1,4.34,1.12l1.45-3.11a12.34,12.34,0,0,0-5.79-1.32c-4.4,0-7,2-7,4.88,0,6,9.1,3.5,9.1,6,0,.84-.76,1.37-2.78,1.37a10.37,10.37,0,0,1-5.23-1.45L196.12,206a12.89,12.89,0,0,0,6.53,1.63c4.5,0,7.11-2,7.11-4.79C209.76,196.88,200.66,199.37,200.66,196.8Z" transform="translate(-0.91)"/><path class="cls-2" d="M218.66,202.54l-4.23-10.22h-4.5l6.52,15.17-.06.14c-.58,1.35-1.26,1.88-2.46,1.88a3.84,3.84,0,0,1-2.46-.95l-1.6,3.11a6.74,6.74,0,0,0,4.2,1.37c2.72,0,4.79-1.09,6.24-4.73l6.81-16h-4.2Z" transform="translate(-0.91)"/><path class="cls-2" d="M231.77,196.8c0-.79.84-1.4,2.8-1.4a8.67,8.67,0,0,1,4.34,1.12l1.45-3.11a12.37,12.37,0,0,0-5.79-1.32c-4.4,0-7,2-7,4.88,0,6,9.1,3.5,9.1,6,0,.84-.75,1.37-2.77,1.37a10.34,10.34,0,0,1-5.23-1.45L227.23,206a12.87,12.87,0,0,0,6.52,1.63c4.51,0,7.12-2,7.12-4.79C240.87,196.88,231.77,199.37,231.77,196.8Z" transform="translate(-0.91)"/><path class="cls-2" d="M250.33,204.13a1.76,1.76,0,0,1-1.88-2V196h3.76v-3.36h-3.76V189h-4.36v3.66h-2.33V196h2.33v6.19c0,3.59,2.07,5.41,5.62,5.41a6.21,6.21,0,0,0,3.56-1l-1.18-3.08A2.89,2.89,0,0,1,250.33,204.13Z" transform="translate(-0.91)"/><path class="cls-2" d="M262.17,192.09a7.67,7.67,0,0,0-8,7.76c0,4.48,3.39,7.76,8.59,7.76a7.88,7.88,0,0,0,6.22-2.44l-2.32-2.52a5.13,5.13,0,0,1-3.78,1.46c-2.3,0-3.9-1.15-4.32-3h11.4c0-.36.08-.84.08-1.17A7.46,7.46,0,0,0,262.17,192.09Zm-3.69,6.44a3.76,3.76,0,0,1,7.42,0Z" transform="translate(-0.91)"/><path class="cls-2" d="M292.22,192.09a6.8,6.8,0,0,0-5.44,2.47,5.62,5.62,0,0,0-4.95-2.47,6.13,6.13,0,0,0-4.73,2v-1.73h-4.18v15.06h4.37v-7.56c0-2.69,1.37-3.95,3.31-3.95s2.85,1.12,2.85,3.56v7.95h4.37v-7.56c0-2.69,1.37-3.95,3.33-3.95,1.77,0,2.86,1.12,2.86,3.56v7.95h4.37v-8.62C298.38,194.17,295.8,192.09,292.22,192.09Z" transform="translate(-0.91)"/></svg>