<svg id="Layer_1" data-name="Layer 1" xmlns="http://www.w3.org/2000/svg" viewBox="0 0 417.44 217.88"><defs><style>.cls-1{fill:#f2f7f1;}.cls-2{fill:#037f8c;}</style></defs><title>card2</title><path class="cls-1" d="M8.64,2a4.74,4.74,0,1,0,4.74,4.74A4.74,4.74,0,0,0,8.64,2Z" transform="translate(-3.91 -2)"/><path class="cls-1" d="M27.59,2a4.74,4.74,0,1,0,4.74,4.74A4.73,4.73,0,0,0,27.59,2Z" transform="translate(-3.91 -2)"/><path class="cls-1" d="M8.64,21a4.74,4.74,0,1,0,4.74,4.74A4.74,4.74,0,0,0,8.64,21Z" transform="translate(-3.91 -2)"/><path class="cls-1" d="M27.59,21a4.74,4.74,0,1,0,4.74,4.74A4.73,4.73,0,0,0,27.59,21Z" transform="translate(-3.91 -2)"/><path class="cls-1" d="M8.64,39.89a4.74,4.74,0,1,0,4.74,4.74A4.74,4.74,0,0,0,8.64,39.89Z" transform="translate(-3.91 -2)"/><path class="cls-1" d="M27.59,39.89a4.74,4.74,0,1,0,4.74,4.74A4.74,4.74,0,0,0,27.59,39.89Z" transform="translate(-3.91 -2)"/><path class="cls-1" d="M8.64,58.84a4.74,4.74,0,1,0,4.74,4.74A4.74,4.74,0,0,0,8.64,58.84Z" transform="translate(-3.91 -2)"/><path class="cls-1" d="M27.59,58.84a4.74,4.74,0,1,0,4.74,4.74A4.73,4.73,0,0,0,27.59,58.84Z" transform="translate(-3.91 -2)"/><path class="cls-1" d="M46.54,2a4.74,4.74,0,1,0,4.74,4.74A4.73,4.73,0,0,0,46.54,2Z" transform="translate(-3.91 -2)"/><path class="cls-1" d="M65.48,2a4.74,4.74,0,1,0,4.74,4.74A4.74,4.74,0,0,0,65.48,2Z" transform="translate(-3.91 -2)"/><path class="cls-1" d="M46.54,21a4.74,4.74,0,1,0,4.74,4.74A4.73,4.73,0,0,0,46.54,21Z" transform="translate(-3.91 -2)"/><path class="cls-1" d="M65.48,21a4.74,4.74,0,1,0,4.74,4.74A4.74,4.74,0,0,0,65.48,21Z" transform="translate(-3.91 -2)"/><path class="cls-1" d="M46.54,39.89a4.74,4.74,0,1,0,4.74,4.74A4.74,4.74,0,0,0,46.54,39.89Z" transform="translate(-3.91 -2)"/><path class="cls-1" d="M65.48,39.89a4.74,4.74,0,1,0,4.74,4.74A4.74,4.74,0,0,0,65.48,39.89Z" transform="translate(-3.91 -2)"/><path class="cls-1" d="M46.54,58.84a4.74,4.74,0,1,0,4.74,4.74A4.73,4.73,0,0,0,46.54,58.84Z" transform="translate(-3.91 -2)"/><path class="cls-1" d="M65.48,58.84a4.74,4.74,0,1,0,4.74,4.74A4.74,4.74,0,0,0,65.48,58.84Z" transform="translate(-3.91 -2)"/><path class="cls-1" d="M84.43,2a4.74,4.74,0,1,0,4.74,4.74A4.74,4.74,0,0,0,84.43,2Z" transform="translate(-3.91 -2)"/><path class="cls-1" d="M103.38,2a4.74,4.74,0,1,0,4.74,4.74A4.74,4.74,0,0,0,103.38,2Z" transform="translate(-3.91 -2)"/><path class="cls-1" d="M84.43,21a4.74,4.74,0,1,0,4.74,4.74A4.74,4.74,0,0,0,84.43,21Z" transform="translate(-3.91 -2)"/><path class="cls-1" d="M103.38,21a4.74,4.74,0,1,0,4.74,4.74A4.74,4.74,0,0,0,103.38,21Z" transform="translate(-3.91 -2)"/><path class="cls-1" d="M84.43,39.89a4.74,4.74,0,1,0,4.74,4.74A4.75,4.75,0,0,0,84.43,39.89Z" transform="translate(-3.91 -2)"/><path class="cls-1" d="M103.38,39.89a4.74,4.74,0,1,0,4.74,4.74A4.75,4.75,0,0,0,103.38,39.89Z" transform="translate(-3.91 -2)"/><path class="cls-1" d="M84.43,58.84a4.74,4.74,0,1,0,4.74,4.74A4.74,4.74,0,0,0,84.43,58.84Z" transform="translate(-3.91 -2)"/><path class="cls-1" d="M103.38,58.84a4.74,4.74,0,1,0,4.74,4.74A4.74,4.74,0,0,0,103.38,58.84Z" transform="translate(-3.91 -2)"/><path class="cls-1" d="M122.33,2a4.74,4.74,0,1,0,4.74,4.74A4.74,4.74,0,0,0,122.33,2Z" transform="translate(-3.91 -2)"/><path class="cls-1" d="M141.28,2A4.74,4.74,0,1,0,146,6.74,4.74,4.74,0,0,0,141.28,2Z" transform="translate(-3.91 -2)"/><path class="cls-1" d="M122.33,21a4.74,4.74,0,1,0,4.74,4.74A4.74,4.74,0,0,0,122.33,21Z" transform="translate(-3.91 -2)"/><path class="cls-1" d="M141.28,21A4.74,4.74,0,1,0,146,25.69,4.74,4.74,0,0,0,141.28,21Z" transform="translate(-3.91 -2)"/><path class="cls-1" d="M122.33,39.89a4.74,4.74,0,1,0,4.74,4.74A4.74,4.74,0,0,0,122.33,39.89Z" transform="translate(-3.91 -2)"/><path class="cls-1" d="M141.28,39.89A4.74,4.74,0,1,0,146,44.63,4.74,4.74,0,0,0,141.28,39.89Z" transform="translate(-3.91 -2)"/><path class="cls-1" d="M122.33,58.84a4.74,4.74,0,1,0,4.74,4.74A4.74,4.74,0,0,0,122.33,58.84Z" transform="translate(-3.91 -2)"/><path class="cls-1" d="M141.28,58.84A4.74,4.74,0,1,0,146,63.58,4.74,4.74,0,0,0,141.28,58.84Z" transform="translate(-3.91 -2)"/><path class="cls-1" d="M8.64,77.79a4.74,4.74,0,1,0,4.74,4.74A4.74,4.74,0,0,0,8.64,77.79Z" transform="translate(-3.91 -2)"/><path class="cls-1" d="M27.59,77.79a4.74,4.74,0,1,0,4.74,4.74A4.73,4.73,0,0,0,27.59,77.79Z" transform="translate(-3.91 -2)"/><path class="cls-1" d="M8.64,96.74a4.74,4.74,0,1,0,4.74,4.74A4.73,4.73,0,0,0,8.64,96.74Z" transform="translate(-3.91 -2)"/><path class="cls-1" d="M27.59,96.74a4.74,4.74,0,1,0,4.74,4.74A4.72,4.72,0,0,0,27.59,96.74Z" transform="translate(-3.91 -2)"/><path class="cls-1" d="M8.64,115.69a4.74,4.74,0,1,0,4.74,4.73A4.73,4.73,0,0,0,8.64,115.69Z" transform="translate(-3.91 -2)"/><path class="cls-1" d="M27.59,115.69a4.74,4.74,0,1,0,4.74,4.73A4.72,4.72,0,0,0,27.59,115.69Z" transform="translate(-3.91 -2)"/><path class="cls-1" d="M8.64,134.63a4.74,4.74,0,1,0,4.74,4.73A4.73,4.73,0,0,0,8.64,134.63Z" transform="translate(-3.91 -2)"/><path class="cls-1" d="M27.59,134.63a4.74,4.74,0,1,0,4.74,4.73A4.73,4.73,0,0,0,27.59,134.63Z" transform="translate(-3.91 -2)"/><path class="cls-1" d="M46.54,77.79a4.74,4.74,0,1,0,4.74,4.74A4.73,4.73,0,0,0,46.54,77.79Z" transform="translate(-3.91 -2)"/><path class="cls-1" d="M65.48,77.79a4.74,4.74,0,1,0,4.74,4.74A4.74,4.74,0,0,0,65.48,77.79Z" transform="translate(-3.91 -2)"/><path class="cls-1" d="M46.54,96.74a4.74,4.74,0,1,0,4.74,4.74A4.72,4.72,0,0,0,46.54,96.74Z" transform="translate(-3.91 -2)"/><path class="cls-1" d="M65.48,96.74a4.74,4.74,0,1,0,4.74,4.74A4.73,4.73,0,0,0,65.48,96.74Z" transform="translate(-3.91 -2)"/><path class="cls-1" d="M46.54,115.69a4.74,4.74,0,1,0,4.74,4.73A4.72,4.72,0,0,0,46.54,115.69Z" transform="translate(-3.91 -2)"/><path class="cls-1" d="M65.48,115.69a4.73,4.73,0,0,0-1.2,9.3,49.31,49.31,0,0,1,5.81-3.48,4.85,4.85,0,0,0,.13-1.09A4.73,4.73,0,0,0,65.48,115.69Z" transform="translate(-3.91 -2)"/><path class="cls-1" d="M46.54,134.63a4.74,4.74,0,0,0,0,9.47,4.86,4.86,0,0,0,1.09-.14,52.85,52.85,0,0,1,3.48-5.79A4.73,4.73,0,0,0,46.54,134.63Z" transform="translate(-3.91 -2)"/><path class="cls-1" d="M68.51,135.75a40.89,40.89,0,0,0-6.65,6.63,4.72,4.72,0,1,0,6.65-6.63Z" transform="translate(-3.91 -2)"/><path class="cls-1" d="M84.43,77.79a4.74,4.74,0,1,0,4.74,4.74A4.74,4.74,0,0,0,84.43,77.79Z" transform="translate(-3.91 -2)"/><path class="cls-1" d="M103.38,77.79a4.74,4.74,0,1,0,4.74,4.74A4.74,4.74,0,0,0,103.38,77.79Z" transform="translate(-3.91 -2)"/><path class="cls-1" d="M84.43,96.74a4.74,4.74,0,1,0,4.74,4.74A4.74,4.74,0,0,0,84.43,96.74Z" transform="translate(-3.91 -2)"/><path class="cls-1" d="M103.38,96.74a4.74,4.74,0,1,0,4.74,4.74A4.74,4.74,0,0,0,103.38,96.74Z" transform="translate(-3.91 -2)"/><path class="cls-1" d="M84.43,115.69a4.69,4.69,0,0,0-3.63,1.73,50.05,50.05,0,0,1,5.88-1.14A4.74,4.74,0,0,0,84.43,115.69Z" transform="translate(-3.91 -2)"/><path class="cls-1" d="M103.38,115.69a4.7,4.7,0,0,0-2.38.66,49.78,49.78,0,0,1,6.2,1.29A4.73,4.73,0,0,0,103.38,115.69Z" transform="translate(-3.91 -2)"/><path class="cls-1" d="M84.43,134.63a4.74,4.74,0,1,0,4.74,4.73A4.74,4.74,0,0,0,84.43,134.63Z" transform="translate(-3.91 -2)"/><path class="cls-1" d="M103.38,134.63a4.74,4.74,0,1,0,4.74,4.73A4.74,4.74,0,0,0,103.38,134.63Z" transform="translate(-3.91 -2)"/><path class="cls-1" d="M122.33,77.79a4.74,4.74,0,1,0,4.74,4.74A4.74,4.74,0,0,0,122.33,77.79Z" transform="translate(-3.91 -2)"/><path class="cls-1" d="M141.28,77.79A4.74,4.74,0,1,0,146,82.53,4.74,4.74,0,0,0,141.28,77.79Z" transform="translate(-3.91 -2)"/><path class="cls-1" d="M122.33,96.74a4.74,4.74,0,1,0,4.74,4.74A4.73,4.73,0,0,0,122.33,96.74Z" transform="translate(-3.91 -2)"/><path class="cls-1" d="M141.28,96.74a4.74,4.74,0,1,0,4.74,4.74A4.73,4.73,0,0,0,141.28,96.74Z" transform="translate(-3.91 -2)"/><path class="cls-1" d="M122.33,115.69a4.68,4.68,0,0,0-4.49,6.19,51.13,51.13,0,0,1,5.22,3.21,4.73,4.73,0,0,0-.73-9.4Z" transform="translate(-3.91 -2)"/><path class="cls-1" d="M141.28,115.69a4.74,4.74,0,1,0,4.74,4.73A4.73,4.73,0,0,0,141.28,115.69Z" transform="translate(-3.91 -2)"/><path class="cls-1" d="M125.38,135.77a5.52,5.52,0,0,1-6.34.2,4.75,4.75,0,1,0,6.34-.2Z" transform="translate(-3.91 -2)"/><path class="cls-1" d="M141.58,144.07a4.71,4.71,0,0,0,4.36-4Z" transform="translate(-3.91 -2)"/><path class="cls-1" d="M8.64,153.58a4.74,4.74,0,1,0,4.74,4.73A4.73,4.73,0,0,0,8.64,153.58Z" transform="translate(-3.91 -2)"/><path class="cls-1" d="M27.59,153.58a4.74,4.74,0,1,0,4.74,4.73A4.73,4.73,0,0,0,27.59,153.58Z" transform="translate(-3.91 -2)"/><path class="cls-1" d="M8.64,172.53a4.74,4.74,0,1,0,4.74,4.73A4.73,4.73,0,0,0,8.64,172.53Z" transform="translate(-3.91 -2)"/><path class="cls-1" d="M27.59,172.53a4.74,4.74,0,1,0,4.74,4.73A4.73,4.73,0,0,0,27.59,172.53Z" transform="translate(-3.91 -2)"/><path class="cls-1" d="M41.81,158.31a4.67,4.67,0,0,0,.56,2.2,50.76,50.76,0,0,1,1.15-5.82A4.7,4.7,0,0,0,41.81,158.31Z" transform="translate(-3.91 -2)"/><path class="cls-1" d="M65.48,153.58a4.74,4.74,0,1,0,3.16,8.24A4.21,4.21,0,0,1,70,159l.18-.13a5.25,5.25,0,0,0,0-.57A4.74,4.74,0,0,0,65.48,153.58Z" transform="translate(-3.91 -2)"/><path class="cls-1" d="M41.81,177.26a4.69,4.69,0,0,0,1.67,3.59,54.3,54.3,0,0,1-1.13-5.76A4.81,4.81,0,0,0,41.81,177.26Z" transform="translate(-3.91 -2)"/><path class="cls-1" d="M65.48,172.53a4.74,4.74,0,1,0,4.74,4.73A4.73,4.73,0,0,0,65.48,172.53Z" transform="translate(-3.91 -2)"/><path class="cls-1" d="M84.43,153.58a4.74,4.74,0,1,0,4.74,4.73A4.74,4.74,0,0,0,84.43,153.58Z" transform="translate(-3.91 -2)"/><path class="cls-1" d="M103.38,153.58a4.74,4.74,0,1,0,4.74,4.73A4.74,4.74,0,0,0,103.38,153.58Z" transform="translate(-3.91 -2)"/><path class="cls-1" d="M79.69,177.26A4.74,4.74,0,0,0,84.43,182c.22,0,.42,0,.63-.06l-5.22-5.78A4.42,4.42,0,0,0,79.69,177.26Z" transform="translate(-3.91 -2)"/><path class="cls-1" d="M100.88,181.27a4.66,4.66,0,0,0,2.5.73,4.74,4.74,0,0,0,4.74-4.74,4.59,4.59,0,0,0-.53-2.12Z" transform="translate(-3.91 -2)"/><path class="cls-1" d="M121,162.85a4.58,4.58,0,0,0,1.29.2,4.74,4.74,0,0,0,4.74-4.74,5.16,5.16,0,0,0-.09-.89Z" transform="translate(-3.91 -2)"/><path class="cls-1" d="M141.28,153.58a4.74,4.74,0,1,0,4.74,4.73A4.74,4.74,0,0,0,141.28,153.58Z" transform="translate(-3.91 -2)"/><path class="cls-1" d="M122.33,172.53a4.74,4.74,0,1,0,4.74,4.73A4.74,4.74,0,0,0,122.33,172.53Z" transform="translate(-3.91 -2)"/><path class="cls-1" d="M143.51,181.42a4.73,4.73,0,0,0,2.51-4.16,4.66,4.66,0,0,0-1.12-3A53.12,53.12,0,0,1,143.51,181.42Z" transform="translate(-3.91 -2)"/><path class="cls-1" d="M160.22,2A4.74,4.74,0,1,0,165,6.74,4.74,4.74,0,0,0,160.22,2Z" transform="translate(-3.91 -2)"/><path class="cls-1" d="M160.22,21A4.74,4.74,0,1,0,165,25.69,4.74,4.74,0,0,0,160.22,21Z" transform="translate(-3.91 -2)"/><path class="cls-1" d="M179.17,2a4.74,4.74,0,1,0,4.74,4.74A4.74,4.74,0,0,0,179.17,2Z" transform="translate(-3.91 -2)"/><path class="cls-1" d="M179.17,21a4.74,4.74,0,1,0,4.74,4.74A4.74,4.74,0,0,0,179.17,21Z" transform="translate(-3.91 -2)"/><path class="cls-1" d="M160.22,39.89A4.74,4.74,0,1,0,165,44.63,4.75,4.75,0,0,0,160.22,39.89Z" transform="translate(-3.91 -2)"/><path class="cls-1" d="M160.22,58.84A4.74,4.74,0,1,0,165,63.58,4.74,4.74,0,0,0,160.22,58.84Z" transform="translate(-3.91 -2)"/><path class="cls-1" d="M179.17,39.89a4.74,4.74,0,1,0,4.74,4.74A4.75,4.75,0,0,0,179.17,39.89Z" transform="translate(-3.91 -2)"/><path class="cls-1" d="M179.17,58.84a4.74,4.74,0,1,0,4.74,4.74A4.74,4.74,0,0,0,179.17,58.84Z" transform="translate(-3.91 -2)"/><path class="cls-1" d="M160.22,77.79A4.74,4.74,0,1,0,165,82.53,4.74,4.74,0,0,0,160.22,77.79Z" transform="translate(-3.91 -2)"/><path class="cls-1" d="M160.22,96.74a4.74,4.74,0,1,0,4.74,4.74A4.74,4.74,0,0,0,160.22,96.74Z" transform="translate(-3.91 -2)"/><path class="cls-1" d="M179.17,77.79a4.74,4.74,0,1,0,4.74,4.74A4.74,4.74,0,0,0,179.17,77.79Z" transform="translate(-3.91 -2)"/><path class="cls-1" d="M179.17,96.74a4.74,4.74,0,1,0,4.74,4.74A4.74,4.74,0,0,0,179.17,96.74Z" transform="translate(-3.91 -2)"/><path class="cls-1" d="M160.22,115.69a4.74,4.74,0,1,0,4.74,4.73A4.74,4.74,0,0,0,160.22,115.69Z" transform="translate(-3.91 -2)"/><path class="cls-1" d="M160.22,134.63a4.74,4.74,0,1,0,4.74,4.73A4.74,4.74,0,0,0,160.22,134.63Z" transform="translate(-3.91 -2)"/><path class="cls-1" d="M179.17,115.69a4.74,4.74,0,1,0,4.74,4.73A4.74,4.74,0,0,0,179.17,115.69Z" transform="translate(-3.91 -2)"/><path class="cls-1" d="M179.17,134.63a4.74,4.74,0,1,0,4.74,4.73A4.74,4.74,0,0,0,179.17,134.63Z" transform="translate(-3.91 -2)"/><path class="cls-1" d="M160.22,153.58a4.74,4.74,0,1,0,4.74,4.73A4.74,4.74,0,0,0,160.22,153.58Z" transform="translate(-3.91 -2)"/><path class="cls-1" d="M179.17,153.58a4.74,4.74,0,1,0,4.74,4.73A4.74,4.74,0,0,0,179.17,153.58Z" transform="translate(-3.91 -2)"/><path class="cls-1" d="M160.22,172.53a4.74,4.74,0,1,0,4.74,4.73A4.74,4.74,0,0,0,160.22,172.53Z" transform="translate(-3.91 -2)"/><path class="cls-1" d="M179.17,172.53a4.74,4.74,0,1,0,4.74,4.73A4.74,4.74,0,0,0,179.17,172.53Z" transform="translate(-3.91 -2)"/><path class="cls-2" d="M140,164.48a5.59,5.59,0,0,0-5.83,5.32,40.56,40.56,0,1,1-65.62-34.05,40.37,40.37,0,0,1,50.12-.05,3.62,3.62,0,0,0,.41.27,5.52,5.52,0,0,0,6.34-.2,5.32,5.32,0,0,0,1.06-1,5.64,5.64,0,0,0-.93-7.87c-.8-.63-1.62-1.22-2.45-1.8a51.15,51.15,0,0,0-15.86-7.45,49.78,49.78,0,0,0-6.2-1.29q-2.44-.36-5-.48a51.13,51.13,0,0,0-9.37.41,50.05,50.05,0,0,0-5.88,1.14,51.06,51.06,0,0,0-10.71,4.09A49.31,49.31,0,0,0,64.28,125a52,52,0,0,0-13.17,13.18A52.85,52.85,0,0,0,47.63,144a52.2,52.2,0,0,0-4.11,10.73,50.76,50.76,0,0,0-1.15,5.82c-.23,1.59-.39,3.21-.47,4.84a52.38,52.38,0,0,0,.45,9.74,54.3,54.3,0,0,0,1.13,5.76,51.66,51.66,0,0,0,100,.57,53.12,53.12,0,0,0,1.39-7.17c.16-1.29.28-2.59.35-3.91A5.6,5.6,0,0,0,140,164.48Z" transform="translate(-3.91 -2)"/><path class="cls-2" d="M146.15,128.55l-7.62,7-.79.72-45.3,41.39L75.89,159.29a4.16,4.16,0,0,0-5.72-.41L70,159a4.23,4.23,0,0,0-.28,5.93l10.13,11.22,5.22,5.78,1.2,1.33a8.3,8.3,0,0,0,11.8.57l2.82-2.57,6.71-6.13L121,162.85l5.94-5.43,14.6-13.35,4.36-4,5.82-5.32a4.21,4.21,0,0,0,.29-5.93A4.16,4.16,0,0,0,146.15,128.55Z" transform="translate(-3.91 -2)"/><polygon class="cls-2" points="266.08 133.6 272.36 127.22 267.14 127.22 260.76 133.27 260.76 121.51 256.39 121.51 256.39 142.28 260.76 142.28 260.76 138.45 262.86 136.37 267.62 142.28 272.92 142.28 266.08 133.6"/><path class="cls-2" d="M237.17,144.51c4.79,0,8.26-3.22,8.26-7.76S242,129,237.17,129s-8.28,3.22-8.28,7.76S232.39,144.51,237.17,144.51Zm0-11.93c2.19,0,3.84,1.57,3.84,4.17s-1.65,4.17-3.84,4.17a4.18,4.18,0,0,1,0-8.34Z" transform="translate(-3.91 -2)"/><polygon class="cls-2" points="204.96 142.28 209.41 129.01 213.72 142.28 218.59 142.28 225 122.68 220.66 122.68 216.1 136.57 211.62 122.68 207.42 122.68 202.8 136.46 198.38 122.68 193.67 122.68 200.11 142.28 204.96 142.28"/><path class="cls-2" d="M252.71,137.17c0-2.88,1.6-4.2,4-4.2.33,0,.61,0,1,.06v-4a6.06,6.06,0,0,0-5.18,2.22v-2h-4.17v15.06h4.36Z" transform="translate(-3.91 -2)"/><path class="cls-2" d="M288.89,127.12a2.52,2.52,0,0,0,2.72-2.52,2.45,2.45,0,0,0-2.72-2.35,2.45,2.45,0,1,0,0,4.87Z" transform="translate(-3.91 -2)"/><path class="cls-2" d="M299.51,136.83c0-2.77,1.51-4.06,3.61-4.06,1.93,0,3.05,1.12,3.05,3.56v7.95h4.37v-8.62c0-4.59-2.69-6.67-6.25-6.67a6.59,6.59,0,0,0-5,2v-1.76h-4.17v15.06h4.37Z" transform="translate(-3.91 -2)"/><rect class="cls-2" x="282.8" y="127.22" width="4.37" height="15.06"/><path class="cls-2" d="M400.54,175a1.75,1.75,0,0,1-1.87-2v-6.14h3.75v-3.36h-3.75v-3.66H394.3v3.66H392v3.36h2.32v6.19c0,3.59,2.07,5.41,5.63,5.41a6.17,6.17,0,0,0,3.55-1l-1.17-3.08A2.92,2.92,0,0,1,400.54,175Z" transform="translate(-3.91 -2)"/><rect class="cls-2" x="381.43" y="161.22" width="4.37" height="15.06"/><polygon class="cls-2" points="371.85 171.41 368.27 161.22 364.57 161.22 360.88 171.41 357.32 161.22 353.21 161.22 358.64 176.28 362.84 176.28 366.34 166.93 369.73 176.28 373.93 176.28 379.39 161.22 375.52 161.22 371.85 171.41"/><path class="cls-2" d="M387.52,156.25a2.45,2.45,0,1,0,2.72,2.35A2.45,2.45,0,0,0,387.52,156.25Z" transform="translate(-3.91 -2)"/><path class="cls-2" d="M415.1,163a6.58,6.58,0,0,0-4.78,1.8v-7.28H406v20.77h4.37v-7.45c0-2.77,1.51-4.06,3.61-4.06,1.93,0,3.05,1.12,3.05,3.56v7.95h4.37v-8.62C421.35,165.07,418.66,163,415.1,163Z" transform="translate(-3.91 -2)"/><path class="cls-2" d="M329.88,170.33v7.95h4.37v-8.62c0-4.59-2.69-6.67-6.25-6.67a6.58,6.58,0,0,0-5,2v-1.76h-4.17v15.06h4.36v-7.45c0-2.77,1.52-4.06,3.62-4.06C328.76,166.77,329.88,167.89,329.88,170.33Z" transform="translate(-3.91 -2)"/><rect class="cls-2" x="211.92" y="155.51" width="4.37" height="20.77"/><path class="cls-2" d="M345,175a1.76,1.76,0,0,1-1.88-2v-6.14h3.76v-3.36h-3.76v-3.66h-4.36v3.66H336.4v3.36h2.33v6.19c0,3.59,2.07,5.41,5.62,5.41a6.21,6.21,0,0,0,3.56-1l-1.18-3.08A2.89,2.89,0,0,1,345,175Z" transform="translate(-3.91 -2)"/><rect class="cls-2" x="220.35" y="161.22" width="4.37" height="15.06"/><path class="cls-2" d="M300.06,170.75c0,4.48,3.39,7.76,8.59,7.76a7.88,7.88,0,0,0,6.22-2.44l-2.32-2.52a5.13,5.13,0,0,1-3.78,1.46c-2.3,0-3.9-1.15-4.32-3h11.4c0-.36.08-.84.08-1.17a7.46,7.46,0,0,0-7.84-7.82A7.67,7.67,0,0,0,300.06,170.75Zm11.76-1.32H304.4a3.76,3.76,0,0,1,7.42,0Z" transform="translate(-3.91 -2)"/><path class="cls-2" d="M292.72,170.33v7.95h4.37v-8.62c0-4.59-2.58-6.67-6.16-6.67a6.77,6.77,0,0,0-5.43,2.47,5.65,5.65,0,0,0-5-2.47,6.13,6.13,0,0,0-4.73,2v-1.73h-4.17v15.06H276v-7.56c0-2.69,1.37-3.95,3.3-3.95s2.86,1.12,2.86,3.56v7.95h4.36v-7.56c0-2.69,1.38-3.95,3.34-3.95C291.63,166.77,292.72,167.89,292.72,170.33Z" transform="translate(-3.91 -2)"/><path class="cls-2" d="M226.45,156.25a2.45,2.45,0,1,0,2.71,2.35A2.44,2.44,0,0,0,226.45,156.25Z" transform="translate(-3.91 -2)"/><path class="cls-2" d="M244.09,165.15a6.05,6.05,0,0,0-5-2.16,7.17,7.17,0,0,0-7.53,7.28c0,4.4,3.36,7.28,7.53,7.28a6.2,6.2,0,0,0,4.76-1.87v.64c0,2.72-1.34,4.12-4.42,4.12a9,9,0,0,1-5.32-1.71l-1.74,3.14a12.44,12.44,0,0,0,7.39,2.07c5.44,0,8.46-2.58,8.46-8.18V163.22h-4.14ZM240,174a3.7,3.7,0,1,1,3.95-3.7A3.68,3.68,0,0,1,240,174Z" transform="translate(-3.91 -2)"/><path class="cls-2" d="M256.66,170.83c0-2.77,1.51-4.06,3.61-4.06,1.93,0,3.05,1.12,3.05,3.56v7.95h4.37v-8.62c0-4.59-2.69-6.67-6.24-6.67a6.6,6.6,0,0,0-5,2v-1.76h-4.17v15.06h4.37Z" transform="translate(-3.91 -2)"/><path class="cls-2" d="M203.21,178.51c2.21,0,3.78-.73,4.59-2.1v1.87h4.09v-8.59c0-4.57-2.66-6.7-7.26-6.7a11.62,11.62,0,0,0-6.49,1.82l1.57,3.06a7.22,7.22,0,0,1,4.34-1.4c2.35,0,3.47,1.09,3.47,3h-3.47c-4.6,0-6.47,1.85-6.47,4.51S199.68,178.51,203.21,178.51Zm1.31-6.53h3v1.54a3.24,3.24,0,0,1-3.22,2c-1.54,0-2.47-.73-2.47-1.82S202.48,172,204.52,172Z" transform="translate(-3.91 -2)"/><path class="cls-2" d="M333.74,210a1.75,1.75,0,0,1-1.87-2v-6.14h3.75v-3.36h-3.75v-3.66H327.5v3.66h-2.33v3.36h2.33V208c0,3.59,2.07,5.41,5.63,5.41a6.17,6.17,0,0,0,3.55-1l-1.17-3.08A2.92,2.92,0,0,1,333.74,210Z" transform="translate(-3.91 -2)"/><path class="cls-2" d="M296.87,197.92a7.67,7.67,0,0,0-8,7.76c0,4.48,3.39,7.76,8.6,7.76a7.87,7.87,0,0,0,6.21-2.44l-2.32-2.52a5.13,5.13,0,0,1-3.78,1.46c-2.3,0-3.89-1.15-4.31-3h11.39c0-.36.09-.84.09-1.17A7.46,7.46,0,0,0,296.87,197.92Zm-3.7,6.44a3.76,3.76,0,0,1,7.42,0Z" transform="translate(-3.91 -2)"/><path class="cls-2" d="M263.91,201.51a3.75,3.75,0,0,1,3.39,2.07l3.39-1.82c-1.1-2.46-3.59-3.84-6.75-3.84-4.9,0-8.4,3.22-8.4,7.76s3.5,7.76,8.4,7.76c3.16,0,5.65-1.4,6.75-3.81l-3.39-1.85a3.7,3.7,0,0,1-3.39,2.07,4.18,4.18,0,0,1,0-8.34Z" transform="translate(-3.91 -2)"/><path class="cls-2" d="M238,197.92a7.67,7.67,0,0,0-8,7.76c0,4.48,3.38,7.76,8.59,7.76a7.88,7.88,0,0,0,6.22-2.44l-2.33-2.52a5.09,5.09,0,0,1-3.78,1.46c-2.29,0-3.89-1.15-4.31-3h11.4c0-.36.08-.84.08-1.17A7.46,7.46,0,0,0,238,197.92Zm-3.69,6.44a3.76,3.76,0,0,1,7.42,0Z" transform="translate(-3.91 -2)"/><path class="cls-2" d="M220.71,197.92a6.62,6.62,0,0,0-4.79,1.8v-7.28h-4.37v20.77h4.37v-7.45c0-2.77,1.51-4.06,3.61-4.06,1.93,0,3.05,1.12,3.05,3.56v8H227v-8.62C227,200,224.26,197.92,220.71,197.92Z" transform="translate(-3.91 -2)"/><path class="cls-2" d="M316.77,197.92a6.59,6.59,0,0,0-5,2v-1.76h-4.17v15.06H312v-7.45c0-2.77,1.51-4.06,3.61-4.06,1.93,0,3,1.12,3,3.56v8H323v-8.62C323,200,320.33,197.92,316.77,197.92Z" transform="translate(-3.91 -2)"/><path class="cls-2" d="M206.15,210a1.76,1.76,0,0,1-1.88-2v-6.14H208v-3.36h-3.75v-3.66H199.9v3.66h-2.32v3.36h2.32V208c0,3.59,2.08,5.41,5.63,5.41a6.21,6.21,0,0,0,3.56-1l-1.18-3.08A2.89,2.89,0,0,1,206.15,210Z" transform="translate(-3.91 -2)"/><path class="cls-2" d="M283.71,191.18a2.45,2.45,0,1,0,2.71,2.35A2.44,2.44,0,0,0,283.71,191.18Z" transform="translate(-3.91 -2)"/><rect class="cls-2" x="269.18" y="190.44" width="4.37" height="20.77"/><rect class="cls-2" x="277.61" y="196.15" width="4.37" height="15.06"/></svg>