<svg id="Layer_1" data-name="Layer 1" xmlns="http://www.w3.org/2000/svg" viewBox="0 0 451.64 226.84"><defs><style>.cls-1{fill:#f2f7f1;}.cls-2{fill:#037f8c;}</style></defs><title>card3</title><path class="cls-1" d="M7.86,2.27A4.74,4.74,0,1,0,12.6,7,4.73,4.73,0,0,0,7.86,2.27Z" transform="translate(-3.13 -2.27)"/><path class="cls-1" d="M26.81,2.27A4.74,4.74,0,1,0,31.54,7,4.74,4.74,0,0,0,26.81,2.27Z" transform="translate(-3.13 -2.27)"/><path class="cls-1" d="M7.86,21.22A4.74,4.74,0,1,0,12.6,26,4.73,4.73,0,0,0,7.86,21.22Z" transform="translate(-3.13 -2.27)"/><path class="cls-1" d="M26.81,21.22A4.74,4.74,0,1,0,31.54,26,4.74,4.74,0,0,0,26.81,21.22Z" transform="translate(-3.13 -2.27)"/><path class="cls-1" d="M7.86,40.16A4.74,4.74,0,1,0,12.6,44.9,4.74,4.74,0,0,0,7.86,40.16Z" transform="translate(-3.13 -2.27)"/><path class="cls-1" d="M26.81,40.16a4.74,4.74,0,1,0,4.73,4.74A4.74,4.74,0,0,0,26.81,40.16Z" transform="translate(-3.13 -2.27)"/><path class="cls-1" d="M7.86,59.11a4.74,4.74,0,1,0,4.74,4.74A4.73,4.73,0,0,0,7.86,59.11Z" transform="translate(-3.13 -2.27)"/><path class="cls-1" d="M26.81,59.11a4.74,4.74,0,1,0,4.73,4.74A4.74,4.74,0,0,0,26.81,59.11Z" transform="translate(-3.13 -2.27)"/><path class="cls-1" d="M45.75,2.27A4.74,4.74,0,1,0,50.49,7,4.74,4.74,0,0,0,45.75,2.27Z" transform="translate(-3.13 -2.27)"/><path class="cls-1" d="M64.7,2.27A4.74,4.74,0,1,0,69.44,7,4.74,4.74,0,0,0,64.7,2.27Z" transform="translate(-3.13 -2.27)"/><path class="cls-1" d="M45.75,21.22A4.74,4.74,0,1,0,50.49,26,4.74,4.74,0,0,0,45.75,21.22Z" transform="translate(-3.13 -2.27)"/><path class="cls-1" d="M64.7,21.22A4.74,4.74,0,1,0,69.44,26,4.74,4.74,0,0,0,64.7,21.22Z" transform="translate(-3.13 -2.27)"/><path class="cls-1" d="M45.75,40.16a4.74,4.74,0,1,0,4.74,4.74A4.74,4.74,0,0,0,45.75,40.16Z" transform="translate(-3.13 -2.27)"/><path class="cls-1" d="M64.7,40.16a4.74,4.74,0,1,0,4.74,4.74A4.74,4.74,0,0,0,64.7,40.16Z" transform="translate(-3.13 -2.27)"/><path class="cls-1" d="M45.75,59.11a4.74,4.74,0,1,0,4.74,4.74A4.74,4.74,0,0,0,45.75,59.11Z" transform="translate(-3.13 -2.27)"/><path class="cls-1" d="M64.7,59.11a4.74,4.74,0,1,0,4.74,4.74A4.74,4.74,0,0,0,64.7,59.11Z" transform="translate(-3.13 -2.27)"/><path class="cls-1" d="M83.65,2.27A4.74,4.74,0,1,0,88.39,7,4.74,4.74,0,0,0,83.65,2.27Z" transform="translate(-3.13 -2.27)"/><path class="cls-1" d="M102.6,2.27A4.74,4.74,0,1,0,107.34,7,4.74,4.74,0,0,0,102.6,2.27Z" transform="translate(-3.13 -2.27)"/><path class="cls-1" d="M83.65,21.22A4.74,4.74,0,1,0,88.39,26,4.74,4.74,0,0,0,83.65,21.22Z" transform="translate(-3.13 -2.27)"/><path class="cls-1" d="M102.6,21.22A4.74,4.74,0,1,0,107.34,26,4.74,4.74,0,0,0,102.6,21.22Z" transform="translate(-3.13 -2.27)"/><path class="cls-1" d="M83.65,40.16a4.74,4.74,0,1,0,4.74,4.74A4.74,4.74,0,0,0,83.65,40.16Z" transform="translate(-3.13 -2.27)"/><path class="cls-1" d="M102.6,40.16a4.74,4.74,0,1,0,4.74,4.74A4.74,4.74,0,0,0,102.6,40.16Z" transform="translate(-3.13 -2.27)"/><path class="cls-1" d="M83.65,59.11a4.74,4.74,0,1,0,4.74,4.74A4.74,4.74,0,0,0,83.65,59.11Z" transform="translate(-3.13 -2.27)"/><path class="cls-1" d="M102.6,59.11a4.74,4.74,0,1,0,4.74,4.74A4.74,4.74,0,0,0,102.6,59.11Z" transform="translate(-3.13 -2.27)"/><path class="cls-1" d="M121.54,2.27A4.74,4.74,0,1,0,126.28,7,4.74,4.74,0,0,0,121.54,2.27Z" transform="translate(-3.13 -2.27)"/><path class="cls-1" d="M140.49,2.27A4.74,4.74,0,1,0,145.23,7,4.74,4.74,0,0,0,140.49,2.27Z" transform="translate(-3.13 -2.27)"/><path class="cls-1" d="M121.54,21.22A4.74,4.74,0,1,0,126.28,26,4.74,4.74,0,0,0,121.54,21.22Z" transform="translate(-3.13 -2.27)"/><path class="cls-1" d="M140.49,21.22A4.74,4.74,0,1,0,145.23,26,4.74,4.74,0,0,0,140.49,21.22Z" transform="translate(-3.13 -2.27)"/><path class="cls-1" d="M121.54,40.16a4.74,4.74,0,1,0,4.74,4.74A4.74,4.74,0,0,0,121.54,40.16Z" transform="translate(-3.13 -2.27)"/><path class="cls-1" d="M140.49,40.16a4.74,4.74,0,1,0,4.74,4.74A4.75,4.75,0,0,0,140.49,40.16Z" transform="translate(-3.13 -2.27)"/><path class="cls-1" d="M121.54,59.11a4.74,4.74,0,1,0,4.74,4.74A4.74,4.74,0,0,0,121.54,59.11Z" transform="translate(-3.13 -2.27)"/><path class="cls-1" d="M140.49,59.11a4.74,4.74,0,1,0,4.74,4.74A4.74,4.74,0,0,0,140.49,59.11Z" transform="translate(-3.13 -2.27)"/><path class="cls-1" d="M7.86,78.06A4.74,4.74,0,1,0,12.6,82.8,4.73,4.73,0,0,0,7.86,78.06Z" transform="translate(-3.13 -2.27)"/><path class="cls-1" d="M26.81,78.06a4.74,4.74,0,1,0,4.73,4.74A4.74,4.74,0,0,0,26.81,78.06Z" transform="translate(-3.13 -2.27)"/><path class="cls-1" d="M7.86,97a4.74,4.74,0,1,0,4.74,4.74A4.72,4.72,0,0,0,7.86,97Z" transform="translate(-3.13 -2.27)"/><path class="cls-1" d="M26.81,97a4.74,4.74,0,1,0,4.73,4.74A4.73,4.73,0,0,0,26.81,97Z" transform="translate(-3.13 -2.27)"/><path class="cls-1" d="M7.86,116a4.74,4.74,0,1,0,4.74,4.73A4.72,4.72,0,0,0,7.86,116Z" transform="translate(-3.13 -2.27)"/><path class="cls-1" d="M26.81,116a4.74,4.74,0,1,0,4.73,4.73A4.73,4.73,0,0,0,26.81,116Z" transform="translate(-3.13 -2.27)"/><path class="cls-1" d="M7.86,134.9a4.74,4.74,0,1,0,4.74,4.73A4.73,4.73,0,0,0,7.86,134.9Z" transform="translate(-3.13 -2.27)"/><path class="cls-1" d="M26.81,134.9a4.74,4.74,0,1,0,4.73,4.73A4.74,4.74,0,0,0,26.81,134.9Z" transform="translate(-3.13 -2.27)"/><path class="cls-1" d="M45.75,78.06a4.74,4.74,0,1,0,4.74,4.74A4.74,4.74,0,0,0,45.75,78.06Z" transform="translate(-3.13 -2.27)"/><path class="cls-1" d="M64.7,78.06a4.74,4.74,0,1,0,4.74,4.74A4.74,4.74,0,0,0,64.7,78.06Z" transform="translate(-3.13 -2.27)"/><path class="cls-1" d="M45.75,97a4.74,4.74,0,1,0,4.74,4.74A4.73,4.73,0,0,0,45.75,97Z" transform="translate(-3.13 -2.27)"/><path class="cls-1" d="M64.7,97a4.74,4.74,0,1,0,4.74,4.74A4.73,4.73,0,0,0,64.7,97Z" transform="translate(-3.13 -2.27)"/><path class="cls-1" d="M45.75,116a4.74,4.74,0,1,0,4.74,4.73A4.73,4.73,0,0,0,45.75,116Z" transform="translate(-3.13 -2.27)"/><path class="cls-1" d="M64.7,116a4.74,4.74,0,1,0,4.74,4.73A4.73,4.73,0,0,0,64.7,116Z" transform="translate(-3.13 -2.27)"/><path class="cls-1" d="M45.75,134.9a4.74,4.74,0,1,0,4.74,4.73A4.73,4.73,0,0,0,45.75,134.9Z" transform="translate(-3.13 -2.27)"/><path class="cls-1" d="M64.7,134.9a4.74,4.74,0,1,0,4.74,4.73A4.73,4.73,0,0,0,64.7,134.9Z" transform="translate(-3.13 -2.27)"/><path class="cls-1" d="M83.65,78.06a4.74,4.74,0,1,0,4.74,4.74A4.74,4.74,0,0,0,83.65,78.06Z" transform="translate(-3.13 -2.27)"/><path class="cls-1" d="M102.6,78.06a4.74,4.74,0,1,0,4.74,4.74A4.74,4.74,0,0,0,102.6,78.06Z" transform="translate(-3.13 -2.27)"/><path class="cls-1" d="M83.65,97a4.74,4.74,0,1,0,4.74,4.74A4.73,4.73,0,0,0,83.65,97Z" transform="translate(-3.13 -2.27)"/><path class="cls-1" d="M102.6,97a4.74,4.74,0,1,0,4.74,4.74A4.73,4.73,0,0,0,102.6,97Z" transform="translate(-3.13 -2.27)"/><path class="cls-1" d="M83.65,116a4.74,4.74,0,1,0,4.74,4.73A4.73,4.73,0,0,0,83.65,116Z" transform="translate(-3.13 -2.27)"/><path class="cls-1" d="M102.6,116a4.74,4.74,0,1,0,4.74,4.73A4.73,4.73,0,0,0,102.6,116Z" transform="translate(-3.13 -2.27)"/><path class="cls-1" d="M83.65,134.9a4.74,4.74,0,1,0,4.74,4.73A4.74,4.74,0,0,0,83.65,134.9Z" transform="translate(-3.13 -2.27)"/><path class="cls-1" d="M102.6,134.9a4.74,4.74,0,1,0,4.74,4.73A4.74,4.74,0,0,0,102.6,134.9Z" transform="translate(-3.13 -2.27)"/><path class="cls-1" d="M121.54,78.06a4.74,4.74,0,1,0,4.74,4.74A4.74,4.74,0,0,0,121.54,78.06Z" transform="translate(-3.13 -2.27)"/><path class="cls-1" d="M140.49,78.06a4.74,4.74,0,1,0,4.74,4.74A4.74,4.74,0,0,0,140.49,78.06Z" transform="translate(-3.13 -2.27)"/><path class="cls-1" d="M121.54,97a4.74,4.74,0,1,0,4.74,4.74A4.73,4.73,0,0,0,121.54,97Z" transform="translate(-3.13 -2.27)"/><path class="cls-1" d="M140.49,97a4.74,4.74,0,1,0,4.74,4.74A4.74,4.74,0,0,0,140.49,97Z" transform="translate(-3.13 -2.27)"/><path class="cls-1" d="M121.54,125.43a4.77,4.77,0,0,0,2.14-.53l-6.54-4.13a3.71,3.71,0,0,1-.32-.23s0,.1,0,.15A4.74,4.74,0,0,0,121.54,125.43Z" transform="translate(-3.13 -2.27)"/><path class="cls-1" d="M122,144.32a4.7,4.7,0,0,0,4.29-4.69.31.31,0,0,0,0-.1Z" transform="translate(-3.13 -2.27)"/><path class="cls-1" d="M143.62,136.1a6.44,6.44,0,0,1-3.64-1l-.27-.16a4.75,4.75,0,1,0,3.91,1.12Z" transform="translate(-3.13 -2.27)"/><path class="cls-1" d="M7.86,153.85a4.74,4.74,0,1,0,4.74,4.73A4.73,4.73,0,0,0,7.86,153.85Z" transform="translate(-3.13 -2.27)"/><path class="cls-1" d="M26.81,153.85a4.74,4.74,0,1,0,4.73,4.73A4.74,4.74,0,0,0,26.81,153.85Z" transform="translate(-3.13 -2.27)"/><path class="cls-1" d="M7.86,172.8a4.74,4.74,0,1,0,4.74,4.73A4.73,4.73,0,0,0,7.86,172.8Z" transform="translate(-3.13 -2.27)"/><path class="cls-1" d="M26.81,172.8a4.74,4.74,0,1,0,4.73,4.73A4.74,4.74,0,0,0,26.81,172.8Z" transform="translate(-3.13 -2.27)"/><path class="cls-1" d="M45.75,153.85a4.74,4.74,0,1,0,4.74,4.73A4.73,4.73,0,0,0,45.75,153.85Z" transform="translate(-3.13 -2.27)"/><path class="cls-1" d="M66,154.05a4.58,4.58,0,0,0-1.29-.2A4.73,4.73,0,0,0,60,158.58a4.79,4.79,0,0,0,.38,1.86Z" transform="translate(-3.13 -2.27)"/><path class="cls-1" d="M41,177.53a4.72,4.72,0,0,0,1.35,3.3l6.23-7.06A4.72,4.72,0,0,0,41,177.53Z" transform="translate(-3.13 -2.27)"/><path class="cls-1" d="M64.7,172.8c-.14,0-.26,0-.4,0L60,177.73a4.73,4.73,0,1,0,4.71-4.93Z" transform="translate(-3.13 -2.27)"/><path class="cls-1" d="M83.65,172.8a4.74,4.74,0,1,0,4.74,4.73A4.74,4.74,0,0,0,83.65,172.8Z" transform="translate(-3.13 -2.27)"/><path class="cls-1" d="M102.6,172.8a4.74,4.74,0,1,0,4.74,4.73A4.74,4.74,0,0,0,102.6,172.8Z" transform="translate(-3.13 -2.27)"/><path class="cls-1" d="M121.54,153.85a4.74,4.74,0,1,0,4.74,4.73A4.73,4.73,0,0,0,121.54,153.85Z" transform="translate(-3.13 -2.27)"/><path class="cls-1" d="M135.75,158.58a4.74,4.74,0,0,0,4.74,4.74,4.81,4.81,0,0,0,.85-.09v-9.3a4.72,4.72,0,0,0-5.59,4.65Z" transform="translate(-3.13 -2.27)"/><path class="cls-1" d="M123,173a4.53,4.53,0,0,1,.22,1.38V182A4.71,4.71,0,0,0,123,173Z" transform="translate(-3.13 -2.27)"/><path class="cls-1" d="M135.75,177.53a4.74,4.74,0,0,0,4.74,4.74,4.49,4.49,0,0,0,.83-.09v-9.3a4.6,4.6,0,0,0-.84-.08A4.74,4.74,0,0,0,135.75,177.53Z" transform="translate(-3.13 -2.27)"/><path class="cls-1" d="M159.44,2.27A4.74,4.74,0,1,0,164.18,7,4.74,4.74,0,0,0,159.44,2.27Z" transform="translate(-3.13 -2.27)"/><path class="cls-1" d="M159.44,21.22A4.74,4.74,0,1,0,164.18,26,4.74,4.74,0,0,0,159.44,21.22Z" transform="translate(-3.13 -2.27)"/><path class="cls-1" d="M178.39,11.75A4.74,4.74,0,1,0,173.65,7,4.75,4.75,0,0,0,178.39,11.75Z" transform="translate(-3.13 -2.27)"/><path class="cls-1" d="M178.39,21.22A4.74,4.74,0,1,0,183.13,26,4.74,4.74,0,0,0,178.39,21.22Z" transform="translate(-3.13 -2.27)"/><path class="cls-1" d="M159.44,40.16a4.74,4.74,0,1,0,4.74,4.74A4.75,4.75,0,0,0,159.44,40.16Z" transform="translate(-3.13 -2.27)"/><path class="cls-1" d="M159.44,59.11a4.74,4.74,0,1,0,4.74,4.74A4.74,4.74,0,0,0,159.44,59.11Z" transform="translate(-3.13 -2.27)"/><path class="cls-1" d="M178.39,40.16a4.74,4.74,0,1,0,4.74,4.74A4.74,4.74,0,0,0,178.39,40.16Z" transform="translate(-3.13 -2.27)"/><path class="cls-1" d="M178.39,59.11a4.74,4.74,0,1,0,4.74,4.74A4.74,4.74,0,0,0,178.39,59.11Z" transform="translate(-3.13 -2.27)"/><path class="cls-1" d="M159.44,78.06a4.74,4.74,0,1,0,4.74,4.74A4.74,4.74,0,0,0,159.44,78.06Z" transform="translate(-3.13 -2.27)"/><path class="cls-1" d="M159.44,97a4.74,4.74,0,1,0,4.74,4.74A4.74,4.74,0,0,0,159.44,97Z" transform="translate(-3.13 -2.27)"/><path class="cls-1" d="M178.39,78.06a4.74,4.74,0,1,0,4.74,4.74A4.74,4.74,0,0,0,178.39,78.06Z" transform="translate(-3.13 -2.27)"/><path class="cls-1" d="M178.39,97a4.74,4.74,0,1,0,4.74,4.74A4.73,4.73,0,0,0,178.39,97Z" transform="translate(-3.13 -2.27)"/><path class="cls-1" d="M159.44,116a4.74,4.74,0,1,0,4.74,4.73A4.74,4.74,0,0,0,159.44,116Z" transform="translate(-3.13 -2.27)"/><path class="cls-1" d="M159.44,134.9a4.74,4.74,0,1,0,4.74,4.73A4.74,4.74,0,0,0,159.44,134.9Z" transform="translate(-3.13 -2.27)"/><path class="cls-1" d="M178.39,116a4.74,4.74,0,1,0,4.74,4.73A4.73,4.73,0,0,0,178.39,116Z" transform="translate(-3.13 -2.27)"/><path class="cls-1" d="M178.39,134.9a4.74,4.74,0,1,0,4.74,4.73A4.74,4.74,0,0,0,178.39,134.9Z" transform="translate(-3.13 -2.27)"/><path class="cls-1" d="M159.44,153.85a4.74,4.74,0,1,0,4.74,4.73A4.74,4.74,0,0,0,159.44,153.85Z" transform="translate(-3.13 -2.27)"/><path class="cls-1" d="M178.39,153.85a4.74,4.74,0,1,0,4.74,4.73A4.74,4.74,0,0,0,178.39,153.85Z" transform="translate(-3.13 -2.27)"/><path class="cls-1" d="M159.44,172.8a4.74,4.74,0,1,0,4.74,4.73A4.74,4.74,0,0,0,159.44,172.8Z" transform="translate(-3.13 -2.27)"/><path class="cls-1" d="M178.39,172.8a4.74,4.74,0,1,0,4.74,4.73A4.74,4.74,0,0,0,178.39,172.8Z" transform="translate(-3.13 -2.27)"/><path class="cls-2" d="M241.75,198.37c-4.79,0-8.29,3.22-8.29,7.76s3.5,7.76,8.29,7.76,8.26-3.22,8.26-7.76S246.54,198.37,241.75,198.37Zm0,11.93a4.18,4.18,0,0,1,0-8.34c2.18,0,3.84,1.57,3.84,4.17S243.93,210.3,241.75,210.3Z" transform="translate(-3.13 -2.27)"/><path class="cls-2" d="M320,203.08c0-.79.84-1.4,2.8-1.4a8.62,8.62,0,0,1,4.34,1.12l1.46-3.11a12.39,12.39,0,0,0-5.8-1.32c-4.39,0-7,2-7,4.88,0,6,9.1,3.5,9.1,6,0,.84-.75,1.37-2.77,1.37a10.41,10.41,0,0,1-5.24-1.45l-1.45,3.13a12.85,12.85,0,0,0,6.52,1.63c4.51,0,7.11-2,7.11-4.79C329.05,203.16,320,205.65,320,203.08Z" transform="translate(-3.13 -2.27)"/><path class="cls-2" d="M276.69,200.59v-2h-4.17v15.06h4.37v-7.11c0-2.88,1.6-4.2,4-4.2.34,0,.62,0,1,.06v-4A6.09,6.09,0,0,0,276.69,200.59Z" transform="translate(-3.13 -2.27)"/><path class="cls-2" d="M291.25,198.37a7.67,7.67,0,0,0-8,7.76c0,4.48,3.39,7.76,8.59,7.76a7.88,7.88,0,0,0,6.22-2.44l-2.32-2.52a5.13,5.13,0,0,1-3.78,1.46c-2.3,0-3.9-1.15-4.32-3H299c0-.36.08-.84.08-1.17A7.46,7.46,0,0,0,291.25,198.37Zm-3.69,6.44a3.76,3.76,0,0,1,7.42,0Z" transform="translate(-3.13 -2.27)"/><path class="cls-2" d="M305.09,203.08c0-.79.84-1.4,2.8-1.4a8.67,8.67,0,0,1,4.34,1.12l1.45-3.11a12.37,12.37,0,0,0-5.79-1.32c-4.4,0-7,2-7,4.88,0,6,9.1,3.5,9.1,6,0,.84-.75,1.37-2.77,1.37a10.34,10.34,0,0,1-5.23-1.45l-1.46,3.13a12.87,12.87,0,0,0,6.52,1.63c4.51,0,7.12-2,7.12-4.79C314.19,203.16,305.09,205.65,305.09,203.08Z" transform="translate(-3.13 -2.27)"/><path class="cls-2" d="M226.94,200.59v-2h-4.17v15.06h4.36v-7.11c0-2.88,1.6-4.2,4-4.2.33,0,.61,0,1,.06v-4A6.06,6.06,0,0,0,226.94,200.59Z" transform="translate(-3.13 -2.27)"/><path class="cls-2" d="M264.32,200.53a6.05,6.05,0,0,0-5-2.16,7.17,7.17,0,0,0-7.53,7.28c0,4.4,3.36,7.28,7.53,7.28a6.19,6.19,0,0,0,4.76-1.87v.64c0,2.72-1.34,4.12-4.42,4.12a9,9,0,0,1-5.32-1.71l-1.74,3.14a12.45,12.45,0,0,0,7.4,2.07c5.43,0,8.45-2.58,8.45-8.18V198.6h-4.14Zm-4.12,8.82a3.7,3.7,0,1,1,3.95-3.7A3.68,3.68,0,0,1,260.2,209.35Z" transform="translate(-3.13 -2.27)"/><path class="cls-2" d="M212.35,198.37a5.86,5.86,0,0,0-4.73,2V198.6h-4.17v20.49h4.36v-7a5.86,5.86,0,0,0,4.54,1.82c4.23,0,7.5-3,7.5-7.76S216.58,198.37,212.35,198.37Zm-.76,11.93c-2.18,0-3.83-1.57-3.83-4.17s1.65-4.17,3.83-4.17,3.84,1.57,3.84,4.17S213.78,210.3,211.59,210.3Z" transform="translate(-3.13 -2.27)"/><path class="cls-2" d="M283.61,161.27v3.66h-2.32v3.36h2.32v6.19c0,3.59,2.07,5.41,5.63,5.41a6.17,6.17,0,0,0,3.55-1l-1.17-3.08a2.92,2.92,0,0,1-1.77.56,1.75,1.75,0,0,1-1.87-2v-6.14h3.75v-3.36H288v-3.66Z" transform="translate(-3.13 -2.27)"/><path class="cls-2" d="M207.81,172.55c0-2.88,1.6-4.2,4-4.2.33,0,.61,0,1,.06v-4a6.06,6.06,0,0,0-5.18,2.22v-2h-4.17v15.06h4.36Z" transform="translate(-3.13 -2.27)"/><path class="cls-2" d="M275,172.55c0-2.88,1.59-4.2,4-4.2.34,0,.62,0,1,.06v-4a6.09,6.09,0,0,0-5.18,2.22v-2h-4.17v15.06H275Z" transform="translate(-3.13 -2.27)"/><path class="cls-2" d="M344.48,164.37a6.58,6.58,0,0,0-5,2V164.6h-4.18v15.06h4.37v-7.45c0-2.77,1.51-4.06,3.61-4.06,1.94,0,3.06,1.12,3.06,3.56v7.95h4.36V171C350.72,166.45,348,164.37,344.48,164.37Z" transform="translate(-3.13 -2.27)"/><path class="cls-2" d="M365.82,166.19a5.81,5.81,0,0,0-4.51-1.82c-4.26,0-7.53,3-7.53,7.76s3.27,7.76,7.53,7.76a5.81,5.81,0,0,0,4.7-2v1.73h4.17V158.89h-4.36Zm-3.76,10.11a4.18,4.18,0,0,1,0-8.34c2.16,0,3.84,1.57,3.84,4.17S364.22,176.3,362.06,176.3Z" transform="translate(-3.13 -2.27)"/><polygon class="cls-2" points="444.81 168.71 451.08 162.33 445.87 162.33 439.49 168.38 439.49 156.62 435.12 156.62 435.12 177.39 439.49 177.39 439.49 173.56 441.59 171.48 446.35 177.39 451.64 177.39 444.81 168.71"/><path class="cls-2" d="M307.44,175.1c0-5.94-9.1-3.45-9.1-6,0-.79.84-1.4,2.8-1.4a8.67,8.67,0,0,1,4.34,1.12l1.45-3.11a12.34,12.34,0,0,0-5.79-1.32c-4.4,0-7,2-7,4.88,0,6,9.1,3.5,9.1,6,0,.84-.76,1.37-2.78,1.37a10.37,10.37,0,0,1-5.23-1.45l-1.46,3.13a12.89,12.89,0,0,0,6.53,1.63C304.83,179.89,307.44,177.9,307.44,175.1Z" transform="translate(-3.13 -2.27)"/><path class="cls-2" d="M237.3,178.07a5.85,5.85,0,0,0,4.53,1.82c4.23,0,7.51-3,7.51-7.76s-3.28-7.76-7.51-7.76a5.87,5.87,0,0,0-4.73,2V164.6h-4.17v20.49h4.37ZM241.08,168c2.18,0,3.83,1.57,3.83,4.17s-1.65,4.17-3.83,4.17-3.84-1.57-3.84-4.17S238.89,168,241.08,168Z" transform="translate(-3.13 -2.27)"/><path class="cls-2" d="M324.13,164.37a11.63,11.63,0,0,0-6.5,1.82l1.57,3.06a7.22,7.22,0,0,1,4.34-1.4c2.35,0,3.47,1.09,3.47,3h-3.47c-4.59,0-6.47,1.85-6.47,4.51s2.1,4.57,5.63,4.57c2.21,0,3.78-.73,4.59-2.1v1.87h4.09v-8.59C331.38,166.5,328.72,164.37,324.13,164.37ZM327,174.9a3.22,3.22,0,0,1-3.22,2c-1.54,0-2.46-.73-2.46-1.82s.64-1.77,2.68-1.77h3Z" transform="translate(-3.13 -2.27)"/><path class="cls-2" d="M259.42,179.89c4.79,0,8.26-3.22,8.26-7.76s-3.47-7.76-8.26-7.76-8.29,3.22-8.29,7.76S254.63,179.89,259.42,179.89Zm0-11.93c2.18,0,3.83,1.57,3.83,4.17s-1.65,4.17-3.83,4.17a4.18,4.18,0,0,1,0-8.34Z" transform="translate(-3.13 -2.27)"/><polygon class="cls-2" points="395.67 172.52 392.09 162.33 388.39 162.33 384.69 172.52 381.14 162.33 377.02 162.33 382.45 177.39 386.65 177.39 390.15 168.04 393.54 177.39 397.74 177.39 403.2 162.33 399.34 162.33 395.67 172.52"/><path class="cls-2" d="M430.47,166.59v-2H426.3v15.06h4.36v-7.11c0-2.88,1.6-4.2,4-4.2.33,0,.61,0,1,.06v-4A6.06,6.06,0,0,0,430.47,166.59Z" transform="translate(-3.13 -2.27)"/><path class="cls-2" d="M415.12,164.37c-4.78,0-8.28,3.22-8.28,7.76s3.5,7.76,8.28,7.76,8.26-3.22,8.26-7.76S419.91,164.37,415.12,164.37Zm0,11.93a4.18,4.18,0,0,1,0-8.34c2.19,0,3.84,1.57,3.84,4.17S417.31,176.3,415.12,176.3Z" transform="translate(-3.13 -2.27)"/><path class="cls-2" d="M229,177.45l-2.32-2.52a5.11,5.11,0,0,1-3.78,1.46c-2.3,0-3.89-1.15-4.31-3h11.39c0-.36.09-.84.09-1.17a7.46,7.46,0,0,0-7.84-7.82,7.68,7.68,0,0,0-8,7.76c0,4.48,3.39,7.76,8.6,7.76A7.87,7.87,0,0,0,229,177.45Zm-6.74-9.77a3.57,3.57,0,0,1,3.69,3.13h-7.42A3.57,3.57,0,0,1,222.21,167.68Z" transform="translate(-3.13 -2.27)"/><path class="cls-2" d="M339.36,137.71v7.95h4.36V137c0-4.59-2.68-6.67-6.24-6.67a6.58,6.58,0,0,0-5,2V130.6h-4.18v15.06h4.37v-7.45c0-2.77,1.51-4.06,3.61-4.06C338.24,134.15,339.36,135.27,339.36,137.71Z" transform="translate(-3.13 -2.27)"/><path class="cls-2" d="M272.88,147.79a3.86,3.86,0,0,1-2.46-.95l-1.6,3.11a6.74,6.74,0,0,0,4.2,1.37c2.72,0,4.79-1.09,6.25-4.73l6.8-16h-4.2l-4.25,10.22-4.23-10.22h-4.51l6.52,15.17,0,.14C274.76,147.26,274.09,147.79,272.88,147.79Z" transform="translate(-3.13 -2.27)"/><path class="cls-2" d="M390.57,138.13c0-4.54-3.47-7.76-8.26-7.76s-8.29,3.22-8.29,7.76,3.5,7.76,8.29,7.76S390.57,142.67,390.57,138.13Zm-12.13,0a3.82,3.82,0,0,1,3.87-4.17c2.18,0,3.83,1.57,3.83,4.17s-1.65,4.17-3.83,4.17A3.82,3.82,0,0,1,378.44,138.13Z" transform="translate(-3.13 -2.27)"/><path class="cls-2" d="M242.48,135.08c0-.79.84-1.4,2.8-1.4a8.67,8.67,0,0,1,4.34,1.12l1.45-3.11a12.34,12.34,0,0,0-5.79-1.32c-4.4,0-7,2-7,4.88,0,6,9.1,3.5,9.1,6,0,.84-.76,1.37-2.78,1.37a10.37,10.37,0,0,1-5.23-1.45l-1.46,3.13a12.89,12.89,0,0,0,6.53,1.63c4.5,0,7.11-2,7.11-4.79C251.58,135.16,242.48,137.65,242.48,135.08Z" transform="translate(-3.13 -2.27)"/><path class="cls-2" d="M413.25,140.48c0,3.59,2.07,5.41,5.62,5.41a6.21,6.21,0,0,0,3.56-1l-1.18-3.08a2.89,2.89,0,0,1-1.76.56,1.76,1.76,0,0,1-1.88-2v-6.14h3.76v-3.36h-3.76v-3.66h-4.36v3.66h-2.33v3.36h2.33Z" transform="translate(-3.13 -2.27)"/><path class="cls-2" d="M221.14,141.32c0,2.61,2.1,4.57,5.63,4.57,2.21,0,3.78-.73,4.59-2.1v1.87h4.09v-8.59c0-4.57-2.66-6.7-7.25-6.7a11.63,11.63,0,0,0-6.5,1.82l1.57,3.06a7.22,7.22,0,0,1,4.34-1.4c2.35,0,3.47,1.09,3.47,3h-3.47C223,136.81,221.14,138.66,221.14,141.32Zm9.94-2v1.54a3.22,3.22,0,0,1-3.22,2c-1.54,0-2.46-.73-2.46-1.82s.64-1.77,2.69-1.77Z" transform="translate(-3.13 -2.27)"/><path class="cls-2" d="M318.13,145.89a7.88,7.88,0,0,0,6.22-2.44L322,140.93a5.09,5.09,0,0,1-3.78,1.46c-2.29,0-3.89-1.15-4.31-3h11.4c0-.36.08-.84.08-1.17a7.46,7.46,0,0,0-7.84-7.82,7.67,7.67,0,0,0-8,7.76C309.54,142.61,312.92,145.89,318.13,145.89Zm-.53-12.21a3.58,3.58,0,0,1,3.7,3.13h-7.42A3.55,3.55,0,0,1,317.6,133.68Z" transform="translate(-3.13 -2.27)"/><path class="cls-2" d="M354.31,145.89a5.81,5.81,0,0,0,4.7-2v1.73h4.17V124.89h-4.36v7.3a5.81,5.81,0,0,0-4.51-1.82c-4.26,0-7.53,3-7.53,7.76S350.05,145.89,354.31,145.89Zm.75-11.93c2.16,0,3.84,1.57,3.84,4.17s-1.68,4.17-3.84,4.17a4.18,4.18,0,0,1,0-8.34Z" transform="translate(-3.13 -2.27)"/><path class="cls-2" d="M301,142.58a10.37,10.37,0,0,1-5.23-1.45l-1.46,3.13a12.89,12.89,0,0,0,6.53,1.63c4.5,0,7.11-2,7.11-4.79,0-5.94-9.1-3.45-9.1-6,0-.79.84-1.4,2.8-1.4A8.67,8.67,0,0,1,306,134.8l1.45-3.11a12.34,12.34,0,0,0-5.79-1.32c-4.4,0-7,2-7,4.88,0,6,9.1,3.5,9.1,6C303.8,142.05,303,142.58,301,142.58Z" transform="translate(-3.13 -2.27)"/><polygon class="cls-2" points="215.8 139.75 205.13 139.75 205.13 135.22 214.23 135.22 214.23 131.69 205.13 131.69 205.13 127.43 215.44 127.43 215.44 123.79 200.62 123.79 200.62 143.39 215.8 143.39 215.8 139.75"/><rect class="cls-2" x="251.14" y="128.33" width="4.36" height="15.06"/><path class="cls-2" d="M256.45,128.5a2.52,2.52,0,0,0,2.72-2.52,2.45,2.45,0,0,0-2.72-2.35,2.45,2.45,0,1,0,0,4.87Z" transform="translate(-3.13 -2.27)"/><rect class="cls-2" x="259.56" y="122.62" width="4.37" height="20.77"/><path class="cls-2" d="M399.84,145.89a6.09,6.09,0,0,0,4.67-2v1.79h4.15V130.6h-4.37v7.45c0,2.77-1.46,4.06-3.47,4.06s-3.06-1.12-3.06-3.64V130.6H393.4v8.51C393.4,143.76,396.06,145.89,399.84,145.89Z" transform="translate(-3.13 -2.27)"/><path class="cls-2" d="M87.38,187.94c-3.26,0-5.9,2.3-5.9,5.14l0,30.84c0,2.85,2.64,5.15,5.89,5.16s5.9-2.31,5.9-5.15l0-30.84C93.27,190.25,90.63,187.94,87.38,187.94Z" transform="translate(-3.13 -2.27)"/><path class="cls-2" d="M57.45,205.67c-3.26,0-5.9,2.31-5.9,5.15V223.9c0,2.85,2.64,5.16,5.89,5.16s5.9-2.3,5.9-5.15V210.83C63.34,208,60.7,205.68,57.45,205.67Z" transform="translate(-3.13 -2.27)"/><path class="cls-2" d="M117.31,169.26c-3.26,0-5.9,2.31-5.9,5.15l0,49.53c0,2.84,2.64,5.15,5.89,5.15s5.89-2.3,5.9-5.15l0-42v-7.54A4.53,4.53,0,0,0,123,173,5.85,5.85,0,0,0,117.31,169.26Z" transform="translate(-3.13 -2.27)"/><path class="cls-2" d="M147.24,142.18c-3.25,0-5.89,2.31-5.89,5.15v34.85l0,41.77c0,2.85,2.64,5.16,5.89,5.16s5.89-2.3,5.9-5.15l0-76.62C153.13,144.49,150.49,142.18,147.24,142.18Z" transform="translate(-3.13 -2.27)"/><path class="cls-2" d="M146.14,135.53a5.09,5.09,0,0,0,3.17-4.63l-.26-18.7a5.27,5.27,0,0,0-4-4.82,6.92,6.92,0,0,0-2.55-.24,6.82,6.82,0,0,0-2,.11l-21.25,4.32a5.52,5.52,0,0,0-4.44,4,4.8,4.8,0,0,0,2,5,3.71,3.71,0,0,0,.32.23l6.54,4.13.46.28L94.77,158,76.15,149.5a6.46,6.46,0,0,0-7.4,1.42L66,154.05l-5.64,6.39L48.6,173.77l-6.23,7.06-8,9.08a4.74,4.74,0,0,0,1.06,7.23A6.45,6.45,0,0,0,39,198.21a6.25,6.25,0,0,0,4.68-2L60,177.73l4.31-4.89,10.76-12.2,18.59,8.52a6.48,6.48,0,0,0,7.38-1.39l21-23.45,4.28-4.79,7.45-8.33,6,3.78.27.16a6.44,6.44,0,0,0,3.64,1A6.52,6.52,0,0,0,146.14,135.53Z" transform="translate(-3.13 -2.27)"/></svg>