<svg id="Layer_1" data-name="Layer 1" xmlns="http://www.w3.org/2000/svg" viewBox="0 0 1920 1080.09"><defs><style>.cls-1{fill:#fff;opacity:0.01;}.cls-2,.cls-3{fill:#efd387;}.cls-2{opacity:0.4;}.cls-4{fill:#f7e9c3;}</style></defs><title>comments</title><rect class="cls-1" x="0.08" width="1" height="1"/><rect class="cls-1" x="1919" width="1" height="1"/><rect class="cls-1" x="1919" y="1079.09" width="1" height="1"/><rect class="cls-1" y="1079" width="1" height="1"/><polygon class="cls-2" points="1194.1 420.46 1197.67 479.07 1132.81 488.91 1124.06 509.32 1121.26 490.66 1103.94 493.29 1094.96 433.32 1194.1 420.46"/><polygon class="cls-3" points="1130.05 405.33 1143.82 462.39 1208.67 452.56 1223.02 469.46 1220.22 450.81 1237.54 448.18 1228.56 388.21 1130.05 405.33"/><path class="cls-4" d="M1171.81,429.48a3,3,0,1,1-3.46-2.5A3,3,0,0,1,1171.81,429.48Z"/><path class="cls-4" d="M1190.12,426.7a3,3,0,1,1-3.45-2.5A3,3,0,0,1,1190.12,426.7Z"/><path class="cls-4" d="M1208.44,423.93a3,3,0,1,1-3.46-2.51A3,3,0,0,1,1208.44,423.93Z"/></svg>