<?xml version="1.0" encoding="utf-8"?>
<!-- Generator: Adobe Illustrator 23.0.3, SVG Export Plug-In . SVG Version: 6.00 Build 0)  -->
<svg version="1.1" id="Layer_1" xmlns="http://www.w3.org/2000/svg" xmlns:xlink="http://www.w3.org/1999/xlink" x="0px" y="0px"
	 viewBox="0 0 140.9 117.3" style="enable-background:new 0 0 140.9 117.3;" xml:space="preserve">
<style type="text/css">
	.st0{fill:#C8C8C8;}
	.st1{opacity:0.4;}
</style>
<title>envilope</title>
<path class="st0" d="M111.1,117.1L1.3,74.7c-1-0.4-1.5-1.6-1.1-2.6L27.2,1.3c0.4-1,1.5-1.5,2.6-1.1l109.8,42.5
	c1,0.4,1.5,1.6,1.1,2.6c0,0,0,0,0,0L113.7,116C113.2,117,112.1,117.5,111.1,117.1z"/>
<g class="st1">
	<path d="M135.8,46.3c0,0.2-1.8,1-5.2,2.3c-3.4,1.3-8.3,3.1-14.5,5.3c-12.3,4.4-29.3,10.2-48.2,16.5L67,70.7l-0.5-0.8l-0.4-0.7
		C56,51.8,46.9,36,40.4,24.5c-3.2-5.8-5.8-10.5-7.5-13.7c-1.7-3.3-2.6-5.1-2.5-5.2s1.3,1.6,3.3,4.7s4.8,7.6,8.2,13.3
		c6.8,11.3,16.2,27,26.3,44.4l0.4,0.6L67.2,68c18.9-6.3,36-11.9,48.4-15.8c6.2-2,11.2-3.5,14.7-4.5
		C133.8,46.6,135.7,46.1,135.8,46.3z"/>
</g>
<g class="st1">
	<path d="M53.5,45.6c0.3,0.7-9.9,5.9-22.8,11.8S7.3,67.5,7,66.9s9.9-5.9,22.8-11.8S53.2,44.9,53.5,45.6z"/>
</g>
<g class="st1">
	<path d="M92.7,60.8c0.6-0.3,5.5,10,10.9,23s9.3,23.8,8.6,24.1s-5.5-10-10.9-23S92,61,92.7,60.8z"/>
</g>
</svg>
