<svg id="Layer_1" data-name="Layer 1" xmlns="http://www.w3.org/2000/svg" viewBox="0 0 1920 1080.09"><defs><style>.cls-1{fill:#fff;opacity:0.01;}.cls-2{fill:#c8c8c8;}.cls-3{opacity:0.4;}</style></defs><title>envilope</title><rect class="cls-1" x="0.08" width="1" height="1"/><rect class="cls-1" x="1919" width="1" height="1"/><rect class="cls-1" x="1919" y="1079.09" width="1" height="1"/><rect class="cls-1" y="1079" width="1" height="1"/><path class="cls-2" d="M1379.8,622.45,1270,580a2,2,0,0,1-1.14-2.58l27.07-70.81a2,2,0,0,1,2.57-1.15l109.82,42.5a2,2,0,0,1,1.14,2.59l-27.07,70.8A2,2,0,0,1,1379.8,622.45Z"/><g class="cls-3"><path d="M1404.5,551.63c0,.17-1.81,1-5.21,2.26s-8.35,3.11-14.48,5.28c-12.27,4.36-29.28,10.22-48.15,16.55l-.93.31-.5-.85-.38-.65c-10.15-17.4-19.22-33.22-25.68-44.74-3.23-5.77-5.81-10.45-7.54-13.72s-2.62-5.12-2.47-5.21,1.31,1.58,3.3,4.69,4.79,7.64,8.22,13.28c6.84,11.28,16.15,27,26.3,44.36l.38.64-1.43-.53c18.88-6.33,36-11.91,48.37-15.83,6.2-2,11.22-3.5,14.71-4.51S1404.45,551.46,1404.5,551.63Z"/></g><g class="cls-3"><path d="M1322.19,550.92c.27.65-9.92,5.93-22.76,11.8s-23.45,10.11-23.72,9.47,9.92-5.92,22.76-11.8S1321.93,550.28,1322.19,550.92Z"/></g><g class="cls-3"><path d="M1361.39,566.09c.62-.29,5.52,10,10.92,23s9.27,23.8,8.64,24.09-5.52-10-10.92-23S1360.76,566.38,1361.39,566.09Z"/></g></svg>