<svg id="Layer_1" data-name="Layer 1" xmlns="http://www.w3.org/2000/svg" viewBox="0 0 1920 1080.09"><defs><style>.cls-1,.cls-2{fill:#fff;}.cls-1{opacity:0.01;}.cls-3{fill:#efd387;}</style></defs><title>-header-copy</title><rect class="cls-1" x="0.08" width="1" height="1"/><rect class="cls-1" x="1919" width="1" height="1"/><rect class="cls-1" x="1919" y="1079.09" width="1" height="1"/><rect class="cls-1" y="1079" width="1" height="1"/><path class="cls-2" d="M392.82,310.26l-5.41,16.93-5.13-16.93h-9.11L367.75,327l-5.12-16.72H352.42l9.41,29.4h10.62l5-15.71,4.75,15.71h10.62l9.41-29.4Zm34.07,17.89c0-7.77-5.84-11.88-12.65-11.88-7.43,0-13,4.91-13,11.88s5.46,11.93,13.91,11.93c4.57,0,7.81-1.26,10-3.7l-5-5a7,7,0,0,1-4.79,1.68c-2.35,0-3.95-.93-4.62-2.69h16c0-.67.13-1.56.13-2.23Zm-12.56-5.42A3.56,3.56,0,0,1,418,325.8h-7.39a3.54,3.54,0,0,1,3.7-3.07Zm44.06-14.23v9.74a8,8,0,0,0-5.84-2c-6,0-11.09,4.49-11.09,11.88s5.08,11.93,11.09,11.93c2.85,0,4.91-.76,6.3-2.31v1.89h9V308.5Zm-3.57,24.19c-2.1,0-3.74-1.56-3.74-4.54s1.64-4.49,3.74-4.49,3.73,1.51,3.73,4.49-1.63,4.54-3.73,4.54Zm41.7-4.54c0-7.77-5.84-11.88-12.64-11.88-7.43,0-13,4.91-13,11.88s5.46,11.93,13.9,11.93c4.58,0,7.81-1.26,10-3.7l-5-5a7,7,0,0,1-4.79,1.68c-2.35,0-3.94-.93-4.62-2.69h16c.05-.67.13-1.56.13-2.23ZM484,322.73a3.58,3.58,0,0,1,3.7,3.07h-7.39a3.53,3.53,0,0,1,3.69-3.07Zm15.54,16.93H509V308.5h-9.5v31.16Zm18.44-24.82c3.49,0,5.71-2.1,5.71-5,0-2.73-2.22-4.66-5.71-4.66s-5.71,2.1-5.71,4.83,2.22,4.83,5.71,4.83Zm-4.75,24.82h9.5v-23h-9.5v23Zm30.29-23-5,12.3-4.62-12.3h-9.74l9.24,23h9.82l9.24-23Zm34.27,11.46c0-7.77-5.84-11.88-12.64-11.88-7.44,0-13,4.91-13,11.88s5.46,11.93,13.9,11.93c4.58,0,7.81-1.26,10-3.7l-5-5a7,7,0,0,1-4.79,1.68c-2.35,0-3.95-.93-4.62-2.69h16c0-.67.13-1.56.13-2.23Zm-12.56-5.42a3.58,3.58,0,0,1,3.7,3.07h-7.4a3.55,3.55,0,0,1,3.7-3.07Zm24.57-3.57v-2.47h-9v23h9.49V329.45c0-3.65,2-4.95,4.87-4.95a12.66,12.66,0,0,1,2.1.17v-8.4c-3.19,0-5.75,1-7.43,2.89Zm37.38,13.11a3.88,3.88,0,0,1-2.14.63,2,2,0,0,1-2-2.23v-5.79h4.71V318H623v-6.43h-9.49V318h-3.15v6.93h3.15v5.88c0,6.34,3.7,9.32,10,9.32a12.26,12.26,0,0,0,5.84-1.22l-2.27-6.59Zm20.62-16a9.74,9.74,0,0,0-6.47,2.26v-10H631.8v31.16h9.49V328.87c0-3.41,1.64-4.62,3.57-4.62,1.73,0,2.82,1.09,2.82,3.94v11.47h9.49v-13.1c0-7.23-4.12-10.29-9.41-10.29Zm38.39,11.88c0-7.77-5.84-11.88-12.64-11.88-7.44,0-13,4.91-13,11.88s5.46,11.93,13.9,11.93c4.58,0,7.81-1.26,10-3.7l-5-5a7,7,0,0,1-4.79,1.68c-2.35,0-3.95-.93-4.62-2.69h16c0-.67.13-1.56.13-2.23Zm-12.56-5.42a3.58,3.58,0,0,1,3.7,3.07h-7.4a3.55,3.55,0,0,1,3.7-3.07Zm37.17-3.57v-2.47h-9v23h9.49V329.45c0-3.65,2-4.95,4.87-4.95a12.66,12.66,0,0,1,2.1.17v-8.4c-3.19,0-5.75,1-7.43,2.89Zm34.36,9c0-7.77-5.84-11.88-12.65-11.88-7.43,0-13,4.91-13,11.88s5.46,11.93,13.91,11.93c4.57,0,7.81-1.26,10-3.7l-4.95-5a7,7,0,0,1-4.79,1.68c-2.35,0-3.95-.93-4.62-2.69h16c0-.67.13-1.56.13-2.23Zm-12.56-5.42a3.56,3.56,0,0,1,3.69,3.07h-7.39a3.54,3.54,0,0,1,3.7-3.07Zm24.53,17.35c8,0,11.88-3.61,11.88-7.77,0-9.2-13.19-6.09-13.19-8.48,0-.55.68-1.1,3.11-1.1a13.65,13.65,0,0,1,6.64,1.68l2.6-6.25a21.63,21.63,0,0,0-9.36-1.89c-7.73,0-11.76,3.52-11.76,7.85,0,9.2,13.23,6.05,13.23,8.4,0,.67-.63,1.09-2.94,1.09a16.58,16.58,0,0,1-8-2.06l-2.6,6.26c2.35,1.35,6.47,2.27,10.42,2.27Zm29.39-7.81a3.86,3.86,0,0,1-2.14.63,2,2,0,0,1-2-2.23v-5.79h4.7V318h-4.7v-6.43h-9.49V318h-3.15v6.93h3.15v5.88c0,6.34,3.69,9.32,10,9.32a12.26,12.26,0,0,0,5.84-1.22l-2.27-6.59Z"/><path class="cls-2" d="M378.29,257.74v-7.48h-23.9v29.4h9.92v-9.41h12.26v-7.47H364.31v-5Zm14.58,22.34c7.81,0,13.35-5,13.35-11.93s-5.54-11.88-13.35-11.88-13.36,4.91-13.36,11.88,5.59,11.93,13.36,11.93Zm0-7.39c-2.1,0-3.74-1.56-3.74-4.54s1.64-4.49,3.74-4.49,3.73,1.51,3.73,4.49-1.63,4.54-3.73,4.54Zm28.68,7.39c5.59,0,9.79-2.56,11.3-6.8l-7.35-3.62c-1,2.15-2.35,3-4,3-2.14,0-3.91-1.51-3.91-4.54s1.77-4.49,3.91-4.49c1.64,0,3,.88,4,3l7.35-3.61c-1.51-4.24-5.71-6.8-11.3-6.8-7.94,0-13.56,4.91-13.56,11.88s5.62,11.93,13.56,11.93Zm29.11-23.39v10.79c0,3.4-1.6,4.62-3.24,4.62-1.84,0-3-1.09-3-4.37v-11H435v12.68c0,7.48,4.16,10.71,9.66,10.71a8.91,8.91,0,0,0,6.51-2.6v2.18h9v-23Zm22.68,23.39c8,0,11.88-3.61,11.88-7.77,0-9.2-13.19-6.09-13.19-8.48,0-.55.68-1.1,3.11-1.1a13.62,13.62,0,0,1,6.64,1.68l2.6-6.25a21.63,21.63,0,0,0-9.36-1.89c-7.73,0-11.76,3.52-11.76,7.85,0,9.2,13.23,6.05,13.23,8.4,0,.67-.63,1.09-2.94,1.09a16.52,16.52,0,0,1-8-2.06l-2.61,6.26c2.35,1.35,6.47,2.27,10.42,2.27Zm39.48,0c7.81,0,13.35-5,13.35-11.93s-5.54-11.88-13.35-11.88-13.36,4.91-13.36,11.88,5.59,11.93,13.36,11.93Zm0-7.39c-2.1,0-3.74-1.56-3.74-4.54s1.64-4.49,3.74-4.49,3.73,1.51,3.73,4.49-1.63,4.54-3.73,4.54Zm32.29-16.42a9.61,9.61,0,0,0-6.93,2.68v-2.26h-9v23h9.5V268.87c0-3.41,1.63-4.62,3.57-4.62,1.72,0,2.81,1.09,2.81,3.94v11.47h9.49v-13.1c0-7.23-4.11-10.29-9.41-10.29Zm42.72.42L583,269l-4.75-12.3h-9.74L578.17,280a2.86,2.86,0,0,1-2.35.93,5.88,5.88,0,0,1-3.36-1.22l-3.15,6.51a12.11,12.11,0,0,0,7,2.06c4.87,0,8.56-1.81,11.08-8.11l9.46-23.43Zm22,23.39c7.82,0,13.36-5,13.36-11.93s-5.54-11.88-13.36-11.88-13.35,4.91-13.35,11.88,5.58,11.93,13.35,11.93Zm0-7.39c-2.1,0-3.73-1.56-3.73-4.54s1.63-4.49,3.73-4.49,3.74,1.51,3.74,4.49-1.64,4.54-3.74,4.54Zm32-16v10.79c0,3.4-1.6,4.62-3.24,4.62-1.85,0-3-1.09-3-4.37v-11h-9.49v12.68c0,7.48,4.16,10.71,9.66,10.71a8.92,8.92,0,0,0,6.51-2.6v2.18h9v-23Zm22.72,2.47v-2.47h-9v23h9.49V269.45c0-3.65,2-4.95,4.87-4.95a12.74,12.74,0,0,1,2.1.17v-8.4c-3.19,0-5.75,1-7.43,2.89Zm35.07,20.92c5.58,0,9.78-2.56,11.29-6.8l-7.35-3.62c-1,2.15-2.35,3-4,3-2.14,0-3.9-1.51-3.9-4.54s1.76-4.49,3.9-4.49c1.64,0,3,.88,4,3l7.35-3.61c-1.51-4.24-5.71-6.8-11.29-6.8-7.94,0-13.57,4.91-13.57,11.88s5.63,11.93,13.57,11.93Zm22.51-20.92v-2.47h-9v23h9.49V269.45c0-3.65,2-4.95,4.87-4.95a12.74,12.74,0,0,1,2.1.17v-8.4c-3.19,0-5.75,1-7.43,2.89Zm20.2-2.89a20.84,20.84,0,0,0-10.33,2.6l3,6.26a10.31,10.31,0,0,1,5.88-1.81c2.69,0,4,.93,4.33,2.69h-3.82c-7.14,0-10.5,2.48-10.5,6.93,0,3.95,2.89,7.14,8.52,7.14,3.24,0,5.42-1.13,6.51-3.44v3h8.82V267.31c0-7.64-4.53-11-12.43-11Zm0,18.1c-1.43,0-2.27-.8-2.27-1.85,0-1.26.88-1.93,2.9-1.93h2.35v1.59a3,3,0,0,1-3,2.19Zm26.84-16.47c0-1.84.92-2.64,2.26-2.64a5.29,5.29,0,0,1,2.15.54l2.26-6.59a12.72,12.72,0,0,0-5.62-1.13c-6.56,0-10.25,3.82-10.25,9.74V258h-3.15v6.93h3.15v14.78h9.49V264.88h4.7V258h-5v-.05Zm22.3,14.37a3.88,3.88,0,0,1-2.14.63,2,2,0,0,1-2-2.23v-5.79H792V258h-4.71v-6.43h-9.49V258H774.6v6.93h3.15v5.88c0,6.34,3.7,9.32,10,9.32a12.29,12.29,0,0,0,5.84-1.22l-2.27-6.59Z"/><path class="cls-3" d="M359.38,479.26a9.19,9.19,0,0,0-5.69,1.77l1,1.87a7,7,0,0,1,4.37-1.48c2.47,0,3.69,1.22,3.69,3.33v.49h-4c-4.11,0-5.54,1.82-5.54,4,0,2.39,2,4.06,5.1,4.06,2.15,0,3.69-.73,4.52-2v1.82h2.37v-8.32c0-3.77-2.14-5.59-5.91-5.59Zm-.57,12.14c-1.9,0-3-.85-3-2.23,0-1.17.7-2.13,3.17-2.13h3.85V489a4,4,0,0,1-4,2.44Zm18.46-12.14a5.91,5.91,0,0,0-5,2.21v-2.08h-2.4v13.78h2.5v-7.1c0-3,1.72-4.57,4.37-4.57,2.36,0,3.72,1.32,3.72,4v7.64H383v-7.93c0-4.05-2.36-6-5.72-6Zm20.93-5.38v7.59a5.86,5.86,0,0,0-4.81-2.21,7,7,0,0,0,0,14.07,5.83,5.83,0,0,0,4.92-2.34v2.18h2.39V473.88Zm-4.6,17.26a4.85,4.85,0,1,1,4.63-4.86,4.56,4.56,0,0,1-4.63,4.86Zm23.87-15.36a3.22,3.22,0,0,1,1.92.65l.76-1.9a4.67,4.67,0,0,0-2.81-.81c-2.94,0-4.55,1.77-4.55,4.45v1.22h-2.34v2.06h2.34v11.72h2.49V481.45h4v-2.06h-4V478.2c0-1.59.76-2.42,2.24-2.42Zm8.6,5.93v-2.32h-2.39v13.78h2.5v-6.86c0-3,1.66-4.66,4.34-4.66a3.83,3.83,0,0,1,.57,0v-2.42c-2.42,0-4.13.83-5,2.45Zm20.41,4.65c0-4.24-2.83-7.1-6.81-7.1a6.74,6.74,0,0,0-6.91,7c0,4.11,3,7.05,7.41,7.05a6.91,6.91,0,0,0,5.43-2.24l-1.38-1.61a5.14,5.14,0,0,1-4,1.66c-2.73,0-4.68-1.61-5-4h11.18a6.59,6.59,0,0,0,.05-.75Zm-6.81-5a4.3,4.3,0,0,1,4.42,3.95h-8.84a4.3,4.3,0,0,1,4.42-3.95Zm22.73,5c0-4.24-2.84-7.1-6.82-7.1a6.74,6.74,0,0,0-6.91,7c0,4.11,3,7.05,7.41,7.05a6.91,6.91,0,0,0,5.43-2.24l-1.38-1.61a5.12,5.12,0,0,1-4,1.66,4.68,4.68,0,0,1-5-4h11.18a6.67,6.67,0,0,0,.06-.75Zm-6.82-5a4.3,4.3,0,0,1,4.42,3.95h-8.84a4.3,4.3,0,0,1,4.42-3.95Zm10.27,11.8h2.5V473.88h-2.5v19.29Zm12.27-13.91a9.19,9.19,0,0,0-5.69,1.77l1,1.87a7,7,0,0,1,4.37-1.48c2.47,0,3.69,1.22,3.69,3.33v.49h-3.95c-4.11,0-5.54,1.82-5.54,4,0,2.39,2,4.06,5.1,4.06,2.15,0,3.69-.73,4.52-2v1.82H484v-8.32c0-3.77-2.14-5.59-5.91-5.59Zm-.57,12.14c-1.9,0-3-.85-3-2.23,0-1.17.7-2.13,3.17-2.13h3.85V489a4,4,0,0,1-4,2.44ZM496,479.26a5.91,5.91,0,0,0-5,2.21v-2.08h-2.4v13.78h2.5v-7.1c0-3,1.72-4.57,4.37-4.57,2.36,0,3.72,1.32,3.72,4v7.64h2.49v-7.93c0-4.05-2.36-6-5.72-6Zm16.43,14.07a6.16,6.16,0,0,0,5.62-3l-1.9-1.19a4.28,4.28,0,0,1-3.74,2,4.85,4.85,0,0,1,0-9.69,4.28,4.28,0,0,1,3.74,2l1.9-1.22a6.16,6.16,0,0,0-5.62-2.94c-4.23,0-7.28,2.91-7.28,7a6.91,6.91,0,0,0,7.28,7.05Zm21.09-7c0-4.24-2.83-7.1-6.81-7.1a6.75,6.75,0,0,0-6.92,7c0,4.11,3,7.05,7.41,7.05a6.92,6.92,0,0,0,5.44-2.24l-1.38-1.61a5.15,5.15,0,0,1-4,1.66c-2.73,0-4.68-1.61-5-4h11.18c0-.23,0-.54,0-.75Zm-6.81-5a4.3,4.3,0,0,1,4.42,3.95H522.3a4.3,4.3,0,0,1,4.42-3.95Zm12.66.34v-2.32H537v13.78h2.49v-6.86c0-3,1.67-4.66,4.35-4.66a3.83,3.83,0,0,1,.57,0v-2.42c-2.42,0-4.14.83-5,2.45Zm12.14,11.62c3.67,0,6-1.59,6-4.08,0-5.36-8.74-2.71-8.74-6,0-1.09,1.07-1.9,3.25-1.9a7.19,7.19,0,0,1,4,1.1l1.06-2a10,10,0,0,0-5-1.25c-3.54,0-5.75,1.67-5.75,4.14,0,5.48,8.71,2.8,8.71,5.9,0,1.17-1,1.87-3.28,1.87a8.86,8.86,0,0,1-4.83-1.43l-1,2a9.92,9.92,0,0,0,5.69,1.61Z"/><path class="cls-3" d="M355.61,442.74a1.63,1.63,0,0,0,1.69-1.66,1.61,1.61,0,0,0-1.69-1.59,1.65,1.65,0,0,0-1.69,1.64,1.62,1.62,0,0,0,1.69,1.61Zm-1.24,16.43h2.49V445.39h-2.49v13.78ZM369,445.26a5.93,5.93,0,0,0-5,2.21v-2.08h-2.39v13.78h2.5v-7.1c0-3,1.71-4.57,4.36-4.57,2.37,0,3.72,1.32,3.72,4v7.64h2.5v-7.93c0-4.05-2.37-6-5.72-6Zm20.93-5.38v7.59a5.88,5.88,0,0,0-4.81-2.21,7,7,0,0,0,0,14.07A5.81,5.81,0,0,0,390,457v2.18h2.39V439.88Zm-4.6,17.26a4.85,4.85,0,1,1,4.62-4.86,4.56,4.56,0,0,1-4.62,4.86Zm24.28-4.78c0-4.24-2.83-7.1-6.81-7.1a6.75,6.75,0,0,0-6.92,7c0,4.11,3,7.05,7.41,7.05a6.92,6.92,0,0,0,5.44-2.24l-1.38-1.61a5.15,5.15,0,0,1-4,1.66c-2.73,0-4.68-1.61-5-4h11.18c0-.23,0-.54,0-.75Zm-6.81-5a4.3,4.3,0,0,1,4.42,3.95h-8.84a4.3,4.3,0,0,1,4.42-3.95Zm17.57-2.11a5.86,5.86,0,0,0-4.91,2.32v-2.19h-2.39v18.83h2.49v-7.13a5.9,5.9,0,0,0,4.81,2.24,7,7,0,0,0,0-14.07Zm-.2,11.88a4.85,4.85,0,1,1,4.65-4.86,4.55,4.55,0,0,1-4.65,4.86Zm23.08-4.78c0-4.24-2.83-7.1-6.81-7.1a6.74,6.74,0,0,0-6.91,7c0,4.11,3,7.05,7.41,7.05a6.91,6.91,0,0,0,5.43-2.24L441,455.48a5.12,5.12,0,0,1-4,1.66c-2.73,0-4.68-1.61-5-4h11.18a6.59,6.59,0,0,0,.05-.75Zm-6.81-5a4.3,4.3,0,0,1,4.42,3.95H432a4.3,4.3,0,0,1,4.42-3.95Zm17.63-2.11a5.94,5.94,0,0,0-5,2.21v-2.08h-2.39v13.78h2.5v-7.1c0-3,1.71-4.57,4.36-4.57,2.37,0,3.72,1.32,3.72,4v7.64h2.5v-7.93c0-4.05-2.37-6-5.72-6ZM475,439.88v7.59a5.86,5.86,0,0,0-4.81-2.21,7,7,0,0,0,0,14.07,5.8,5.8,0,0,0,4.91-2.34v2.18h2.4V439.88Zm-4.6,17.26a4.85,4.85,0,1,1,4.63-4.86,4.57,4.57,0,0,1-4.63,4.86Zm24.28-4.78c0-4.24-2.83-7.1-6.81-7.1a6.75,6.75,0,0,0-6.92,7c0,4.11,3,7.05,7.41,7.05a6.92,6.92,0,0,0,5.44-2.24l-1.38-1.61a5.14,5.14,0,0,1-4,1.66c-2.73,0-4.68-1.61-5-4h11.18a6.59,6.59,0,0,0,.05-.75Zm-6.81-5a4.3,4.3,0,0,1,4.42,3.95h-8.84a4.3,4.3,0,0,1,4.42-3.95Zm17.63-2.11a5.93,5.93,0,0,0-5,2.21v-2.08h-2.39v13.78h2.5v-7.1c0-3,1.71-4.57,4.36-4.57,2.37,0,3.72,1.32,3.72,4v7.64h2.5v-7.93c0-4.05-2.37-6-5.72-6Zm17.31,11.31a3.12,3.12,0,0,1-1.95.65,2,2,0,0,1-2.15-2.31v-7.46h3.95v-2.06h-3.95v-3h-2.5v3h-2.34v2.06h2.34V455c0,2.78,1.59,4.32,4.37,4.32a4.68,4.68,0,0,0,3-1l-.78-1.8Zm16.8,2.76a6.15,6.15,0,0,0,5.61-3l-1.89-1.19a4.31,4.31,0,0,1-3.75,2,4.85,4.85,0,0,1,0-9.69,4.31,4.31,0,0,1,3.75,2l1.89-1.22a6.14,6.14,0,0,0-5.61-2.94c-4.24,0-7.28,2.91-7.28,7a6.91,6.91,0,0,0,7.28,7.05Zm14.53,0a7,7,0,1,0-7.17-7.05,6.86,6.86,0,0,0,7.17,7.05Zm0-2.19a4.85,4.85,0,1,1,4.63-4.86,4.56,4.56,0,0,1-4.63,4.86Zm18-11.88a5.93,5.93,0,0,0-5,2.21v-2.08h-2.39v13.78h2.5v-7.1c0-3,1.71-4.57,4.36-4.57,2.37,0,3.72,1.32,3.72,4v7.64h2.5v-7.93c0-4.05-2.37-6-5.72-6Zm17.31,11.31a3.12,3.12,0,0,1-1.95.65,2,2,0,0,1-2.15-2.31v-7.46h4v-2.06h-4v-3h-2.5v3h-2.34v2.06h2.34V455c0,2.78,1.59,4.32,4.37,4.32a4.68,4.68,0,0,0,3-1l-.78-1.8Zm6.19-8.86v-2.32H593.2v13.78h2.5v-6.86c0-3,1.66-4.66,4.34-4.66a3.83,3.83,0,0,1,.57,0v-2.42c-2.42,0-4.13.83-5,2.45Zm13.08-2.45A9.19,9.19,0,0,0,603,447l1,1.87a7,7,0,0,1,4.36-1.48c2.47,0,3.7,1.22,3.7,3.33v.49h-4c-4.1,0-5.53,1.82-5.53,4,0,2.39,2,4.06,5.09,4.06,2.16,0,3.69-.73,4.53-2v1.82h2.36v-8.32c0-3.77-2.13-5.59-5.9-5.59Zm-.57,12.14c-1.9,0-3-.85-3-2.23,0-1.17.7-2.13,3.17-2.13h3.85V455a4,4,0,0,1-4,2.44Zm17.18,1.93a6.16,6.16,0,0,0,5.62-3l-1.9-1.19a4.28,4.28,0,0,1-3.74,2,4.85,4.85,0,0,1,0-9.69,4.28,4.28,0,0,1,3.74,2l1.9-1.22a6.16,6.16,0,0,0-5.62-2.94c-4.23,0-7.28,2.91-7.28,7a6.91,6.91,0,0,0,7.28,7.05Zm16-2.76a3.12,3.12,0,0,1-1.95.65,2,2,0,0,1-2.15-2.31v-7.46h4v-2.06h-4v-3h-2.5v3h-2.34v2.06h2.34V455c0,2.78,1.59,4.32,4.37,4.32a4.68,4.68,0,0,0,3-1l-.78-1.8Zm9.23,2.76a7,7,0,1,0-7.17-7.05,6.86,6.86,0,0,0,7.17,7.05Zm0-2.19a4.85,4.85,0,0,1,0-9.69,4.85,4.85,0,0,1,0,9.69Zm13-9.43v-2.32h-2.39v13.78h2.5v-6.86c0-3,1.66-4.66,4.34-4.66a3.83,3.83,0,0,1,.57,0v-2.42c-2.42,0-4.13.83-5,2.45Zm12.14,11.62c3.67,0,6-1.59,6-4.08,0-5.36-8.74-2.71-8.74-6,0-1.09,1.07-1.9,3.25-1.9a7.19,7.19,0,0,1,4,1.1l1.07-2a10.06,10.06,0,0,0-5-1.25c-3.54,0-5.75,1.67-5.75,4.14,0,5.48,8.71,2.8,8.71,5.9,0,1.17-1,1.87-3.27,1.87a8.87,8.87,0,0,1-4.84-1.43l-1,2a9.94,9.94,0,0,0,5.69,1.61Z"/><path class="cls-3" d="M361.33,422.57a3.12,3.12,0,0,1-1.95.65,2,2,0,0,1-2.15-2.31v-7.46h3.95v-2.06h-3.95v-3h-2.5v3h-2.34v2.06h2.34V421c0,2.78,1.59,4.32,4.37,4.32a4.68,4.68,0,0,0,3-1l-.78-1.8Zm5.05-13.83a1.63,1.63,0,1,0-1.69-1.61,1.63,1.63,0,0,0,1.69,1.61Zm-1.25,16.43h2.5V411.39h-2.5v13.78Zm24.49-13.91a6.2,6.2,0,0,0-5.3,2.55,5.1,5.1,0,0,0-4.79-2.55,5.55,5.55,0,0,0-4.75,2.19v-2.06h-2.4v13.78h2.5v-7.1c0-3,1.64-4.57,4.13-4.57,2.27,0,3.57,1.32,3.57,4v7.64h2.49v-7.1c0-3,1.64-4.57,4.14-4.57,2.26,0,3.56,1.32,3.56,4v7.64h2.49v-7.93c0-4.05-2.28-6-5.64-6Zm22.78,7.1c0-4.24-2.84-7.1-6.81-7.1a6.75,6.75,0,0,0-6.92,7c0,4.11,3,7.05,7.41,7.05a6.88,6.88,0,0,0,5.43-2.24l-1.37-1.61a5.15,5.15,0,0,1-4,1.66c-2.73,0-4.68-1.61-5-4h11.18c0-.23,0-.54,0-.75Zm-6.81-5a4.3,4.3,0,0,1,4.42,3.95h-8.84a4.28,4.28,0,0,1,4.42-3.95Zm34.5-2.11a6.22,6.22,0,0,0-5.31,2.55,5.09,5.09,0,0,0-4.78-2.55,5.58,5.58,0,0,0-4.76,2.19v-2.06h-2.39v13.78h2.5v-7.1c0-3,1.63-4.57,4.13-4.57,2.26,0,3.56,1.32,3.56,4v7.64h2.5v-7.1c0-3,1.63-4.57,4.13-4.57,2.26,0,3.56,1.32,3.56,4v7.64h2.5v-7.93c0-4.05-2.29-6-5.64-6Zm15.26,0a9.19,9.19,0,0,0-5.69,1.77l1,1.87a7,7,0,0,1,4.36-1.48c2.47,0,3.7,1.22,3.7,3.33v.49h-4c-4.1,0-5.53,1.82-5.53,4,0,2.39,2,4.06,5.09,4.06,2.16,0,3.69-.73,4.53-2v1.82h2.36v-8.32c0-3.77-2.13-5.59-5.9-5.59Zm-.57,12.14c-1.9,0-3-.85-3-2.23,0-1.17.7-2.13,3.17-2.13h3.85V421a4,4,0,0,1-4,2.44Zm18.46-12.14a5.91,5.91,0,0,0-5,2.21v-2.08h-2.39v13.78h2.49v-7.1c0-3,1.72-4.57,4.37-4.57,2.37,0,3.72,1.32,3.72,4v7.64H479v-7.93c0-4.05-2.37-6-5.72-6Zm15.36,0a9.19,9.19,0,0,0-5.69,1.77l1,1.87a7,7,0,0,1,4.37-1.48c2.47,0,3.69,1.22,3.69,3.33v.49h-3.95c-4.11,0-5.54,1.82-5.54,4,0,2.39,2,4.06,5.09,4.06,2.16,0,3.7-.73,4.53-2v1.82h2.36v-8.32c0-3.77-2.13-5.59-5.9-5.59ZM488,423.4c-1.9,0-3-.85-3-2.23,0-1.17.7-2.13,3.17-2.13H492V421a4,4,0,0,1-4,2.44Zm22-12v2.13a6.32,6.32,0,0,0-5.1-2.26c-4,0-7,2.68-7,6.66s3,6.68,7,6.68a6.31,6.31,0,0,0,5-2.13v1.09c0,3.12-1.49,4.63-4.74,4.63a8.36,8.36,0,0,1-5.3-1.8l-1.2,1.93a10.22,10.22,0,0,0,6.58,2.05c4.68,0,7.15-2.21,7.15-7.07V411.39Zm-4.81,11a4.44,4.44,0,0,1-4.76-4.5c0-2.68,2-4.47,4.76-4.47a4.49,4.49,0,1,1,0,9Zm24.38-4.06c0-4.24-2.83-7.1-6.81-7.1a6.74,6.74,0,0,0-6.91,7c0,4.11,3,7.05,7.41,7.05a6.91,6.91,0,0,0,5.43-2.24l-1.38-1.61a5.12,5.12,0,0,1-4,1.66c-2.73,0-4.68-1.61-5-4h11.18a6.59,6.59,0,0,0,.05-.75Zm-6.81-5a4.3,4.3,0,0,1,4.42,3.95h-8.84a4.3,4.3,0,0,1,4.42-3.95Zm27.51-2.11a6.2,6.2,0,0,0-5.3,2.55,5.1,5.1,0,0,0-4.79-2.55,5.58,5.58,0,0,0-4.76,2.19v-2.06h-2.39v13.78h2.5v-7.1c0-3,1.64-4.57,4.13-4.57,2.26,0,3.56,1.32,3.56,4v7.64h2.5v-7.1c0-3,1.64-4.57,4.13-4.57,2.27,0,3.57,1.32,3.57,4v7.64h2.49v-7.93c0-4.05-2.29-6-5.64-6Zm22.78,7.1c0-4.24-2.84-7.1-6.82-7.1a6.75,6.75,0,0,0-6.91,7c0,4.11,3,7.05,7.41,7.05a6.91,6.91,0,0,0,5.43-2.24l-1.38-1.61a5.12,5.12,0,0,1-4,1.66c-2.74,0-4.68-1.61-5-4H573a6.67,6.67,0,0,0,.06-.75Zm-6.82-5a4.3,4.3,0,0,1,4.42,3.95h-8.84a4.3,4.3,0,0,1,4.42-3.95Zm17.63-2.11a5.91,5.91,0,0,0-5,2.21v-2.08h-2.4v13.78H579v-7.1c0-3,1.72-4.57,4.37-4.57,2.36,0,3.71,1.32,3.71,4v7.64h2.5v-7.93c0-4.05-2.37-6-5.72-6Zm17.32,11.31a3.14,3.14,0,0,1-2,.65,2,2,0,0,1-2.16-2.31v-7.46h3.95v-2.06H597.1v-3h-2.5v3h-2.34v2.06h2.34V421c0,2.78,1.59,4.32,4.37,4.32a4.73,4.73,0,0,0,3-1l-.78-1.8ZM616,425.33c3.66,0,5.95-1.59,5.95-4.08,0-5.36-8.73-2.71-8.73-6,0-1.09,1.06-1.9,3.25-1.9a7.19,7.19,0,0,1,4,1.1l1.06-2a10,10,0,0,0-5-1.25c-3.53,0-5.74,1.67-5.74,4.14,0,5.48,8.71,2.8,8.71,5.9,0,1.17-1,1.87-3.28,1.87a8.86,8.86,0,0,1-4.83-1.43l-1,2a9.92,9.92,0,0,0,5.69,1.61Zm18.56-13.94-4.75,11-4.81-11h-2.61l6.09,13.76-.44,1c-.68,1.58-1.43,2.13-2.63,2.13a3.52,3.52,0,0,1-2.47-1l-1.06,1.87a5.14,5.14,0,0,0,3.53,1.27c2.11,0,3.69-.91,4.92-3.82L637,411.39Zm8.56,13.94c3.66,0,5.95-1.59,5.95-4.08,0-5.36-8.74-2.71-8.74-6,0-1.09,1.07-1.9,3.26-1.9a7.13,7.13,0,0,1,4,1.1l1.07-2a10,10,0,0,0-5-1.25c-3.53,0-5.74,1.67-5.74,4.14,0,5.48,8.71,2.8,8.71,5.9,0,1.17-1,1.87-3.28,1.87a8.9,8.9,0,0,1-4.84-1.43l-1,2a10,10,0,0,0,5.7,1.61Zm16-2.76a3.12,3.12,0,0,1-2,.65,2,2,0,0,1-2.16-2.31v-7.46h4v-2.06h-4v-3h-2.49v3h-2.35v2.06h2.35V421c0,2.78,1.58,4.32,4.36,4.32a4.71,4.71,0,0,0,3-1l-.78-1.8Zm15.78-4.21c0-4.24-2.83-7.1-6.81-7.1a6.75,6.75,0,0,0-6.92,7c0,4.11,3,7.05,7.41,7.05a6.92,6.92,0,0,0,5.44-2.24l-1.38-1.61a5.15,5.15,0,0,1-4,1.66c-2.73,0-4.68-1.61-5-4h11.18c0-.23,0-.54,0-.75Zm-6.81-5a4.3,4.3,0,0,1,4.42,3.95h-8.84a4.3,4.3,0,0,1,4.42-3.95Zm27.51-2.11a6.22,6.22,0,0,0-5.31,2.55,5.09,5.09,0,0,0-4.78-2.55,5.58,5.58,0,0,0-4.76,2.19v-2.06h-2.39v13.78h2.49v-7.1c0-3,1.64-4.57,4.14-4.57,2.26,0,3.56,1.32,3.56,4v7.64H691v-7.1c0-3,1.63-4.57,4.13-4.57,2.26,0,3.56,1.32,3.56,4v7.64h2.5v-7.93c0-4.05-2.29-6-5.64-6Zm22.28-3.48a3.22,3.22,0,0,1,1.92.65l.76-1.9a4.67,4.67,0,0,0-2.81-.81c-2.94,0-4.55,1.77-4.55,4.45v1.22h-2.34v2.06h2.34v11.72h2.49V413.45h4v-2.06h-4V410.2c0-1.59.76-2.42,2.24-2.42Zm9.83,17.55a7,7,0,1,0-7.18-7.05,6.86,6.86,0,0,0,7.18,7.05Zm0-2.19a4.85,4.85,0,0,1,0-9.69,4.85,4.85,0,0,1,0,9.69Zm13-9.43v-2.32h-2.4v13.78h2.5v-6.86c0-3,1.66-4.66,4.34-4.66a3.76,3.76,0,0,1,.57,0v-2.42c-2.41,0-4.13.83-5,2.45Z"/><path class="cls-3" d="M360,391.38c4.81,0,7.05-2.39,7.05-5.17,0-6.69-11-3.9-11-8.35,0-1.59,1.32-2.89,4.42-2.89a9.37,9.37,0,0,1,5,1.49l.86-2.08a10.72,10.72,0,0,0-5.85-1.62c-4.79,0-7,2.4-7,5.2,0,6.76,11,4,11,8.4,0,1.59-1.35,2.81-4.5,2.81a9.3,9.3,0,0,1-6-2.11l-1,2a10.78,10.78,0,0,0,7,2.29Zm20.83-14v7.13c0,3-1.66,4.57-4.26,4.57-2.37,0-3.72-1.35-3.72-4v-7.65h-2.5v7.93c0,4.06,2.37,6,5.93,6a5.6,5.6,0,0,0,4.68-2.24v2.08h2.37V377.39Zm24.49-.13a6.2,6.2,0,0,0-5.3,2.55,5.1,5.1,0,0,0-4.79-2.55,5.55,5.55,0,0,0-4.75,2.19v-2.06h-2.4v13.78h2.5v-7.1c0-3,1.64-4.57,4.13-4.57,2.27,0,3.56,1.32,3.56,4v7.64h2.5v-7.1c0-3,1.64-4.57,4.13-4.57,2.27,0,3.57,1.32,3.57,4v7.64H411v-7.93c0-4.05-2.28-6-5.64-6Zm11.49-2.52a1.63,1.63,0,1,0-1.69-1.61,1.63,1.63,0,0,0,1.69,1.61Zm-1.24,16.43h2.49V377.39H415.6v13.78Zm14.22-2.6a3.14,3.14,0,0,1-1.95.65,2,2,0,0,1-2.16-2.31v-7.46h4v-2.06h-4v-3h-2.5v3h-2.34v2.06h2.34V387c0,2.78,1.59,4.32,4.37,4.32a4.73,4.73,0,0,0,3-1l-.78-1.8Zm12-13.83a1.63,1.63,0,0,0,1.69-1.66,1.61,1.61,0,0,0-1.69-1.59,1.65,1.65,0,0,0-1.69,1.64,1.62,1.62,0,0,0,1.69,1.61Zm-1.24,16.43h2.49V377.39h-2.49v13.78Zm11.2.16c3.67,0,6-1.59,6-4.08,0-5.36-8.74-2.71-8.74-6,0-1.09,1.07-1.9,3.25-1.9a7.19,7.19,0,0,1,4,1.1l1.06-2a10,10,0,0,0-5-1.25c-3.54,0-5.75,1.67-5.75,4.14,0,5.48,8.71,2.8,8.71,5.9,0,1.17-1,1.87-3.28,1.87a8.86,8.86,0,0,1-4.83-1.43l-1,2a9.92,9.92,0,0,0,5.69,1.61Zm21.09-14.07a9.22,9.22,0,0,0-5.7,1.77l1,1.87a7,7,0,0,1,4.37-1.48c2.47,0,3.69,1.22,3.69,3.33v.49h-3.95c-4.11,0-5.54,1.82-5.54,4,0,2.39,2,4.06,5.1,4.06,2.16,0,3.69-.73,4.52-2v1.82h2.37v-8.32c0-3.77-2.13-5.59-5.9-5.59Zm-.57,12.14c-1.9,0-3.05-.85-3.05-2.23,0-1.17.71-2.13,3.18-2.13h3.84V387a4,4,0,0,1-4,2.44Zm18.46-12.14a5.91,5.91,0,0,0-5,2.21v-2.08h-2.39v13.78h2.49v-7.1c0-3,1.72-4.57,4.37-4.57,2.37,0,3.72,1.32,3.72,4v7.64h2.5v-7.93c0-4.05-2.37-6-5.72-6Zm18.59-2.52a1.64,1.64,0,0,0,1.69-1.66,1.62,1.62,0,0,0-1.69-1.59,1.64,1.64,0,0,0-1.69,1.64,1.62,1.62,0,0,0,1.69,1.61Zm-1.25,16.43h2.49V377.39h-2.49v13.78Zm14.61-13.91a5.94,5.94,0,0,0-5,2.21v-2.08h-2.39v13.78h2.5v-7.1c0-3,1.71-4.57,4.37-4.57,2.36,0,3.71,1.32,3.71,4v7.64h2.5v-7.93c0-4.05-2.37-6-5.72-6Zm17.32,11.31a3.14,3.14,0,0,1-1.95.65,2,2,0,0,1-2.16-2.31v-7.46h3.95v-2.06H536v-3h-2.5v3h-2.34v2.06h2.34V387c0,2.78,1.59,4.32,4.37,4.32a4.73,4.73,0,0,0,3-1l-.78-1.8Zm14.14-11.18v7.13c0,3-1.66,4.57-4.26,4.57-2.37,0-3.72-1.35-3.72-4v-7.65h-2.5v7.93c0,4.06,2.37,6,5.93,6a5.6,5.6,0,0,0,4.68-2.24v2.08h2.37V377.39Zm8.5-2.65a1.63,1.63,0,1,0-1.69-1.61,1.63,1.63,0,0,0,1.69,1.61Zm-1.25,16.43H564V377.39h-2.5v13.78Zm14.22-2.6a3.09,3.09,0,0,1-1.95.65,2,2,0,0,1-2.15-2.31v-7.46h3.95v-2.06h-3.95v-3h-2.5v3h-2.34v2.06h2.34V387c0,2.78,1.59,4.32,4.37,4.32a4.73,4.73,0,0,0,3-1l-.79-1.8Zm5.05-13.83a1.63,1.63,0,1,0-1.69-1.61,1.63,1.63,0,0,0,1.69,1.61Zm-1.25,16.43H582V377.39h-2.5v13.78Zm17-13.78-4.83,11.05-4.73-11.05h-2.6l6,13.78h2.55l6-13.78Zm16.85,7c0-4.24-2.83-7.1-6.81-7.1a6.75,6.75,0,0,0-6.92,7c0,4.11,3,7.05,7.41,7.05a6.92,6.92,0,0,0,5.44-2.24l-1.38-1.61a5.14,5.14,0,0,1-4,1.66c-2.73,0-4.68-1.61-5-4h11.18a6.59,6.59,0,0,0,.05-.75Zm-6.81-5a4.3,4.3,0,0,1,4.42,3.95h-8.84a4.3,4.3,0,0,1,4.42-3.95Zm22.28-2.11A9.19,9.19,0,0,0,623.1,379l1,1.87a7,7,0,0,1,4.37-1.48c2.47,0,3.69,1.22,3.69,3.33v.49h-4c-4.11,0-5.54,1.82-5.54,4,0,2.39,2,4.06,5.09,4.06,2.16,0,3.7-.73,4.53-2v1.82h2.36v-8.32c0-3.77-2.13-5.59-5.9-5.59Zm-.57,12.14c-1.9,0-3-.85-3-2.23,0-1.17.7-2.13,3.17-2.13h3.85V387a4,4,0,0,1-4,2.44Zm18.46-12.14a5.94,5.94,0,0,0-5,2.21v-2.08h-2.39v13.78h2.5v-7.1c0-3,1.71-4.57,4.36-4.57,2.37,0,3.72,1.32,3.72,4v7.64h2.5v-7.93c0-4.05-2.37-6-5.72-6Zm20.93-5.38v7.59a5.86,5.86,0,0,0-4.81-2.21,7,7,0,0,0,0,14.07,5.81,5.81,0,0,0,4.91-2.34v2.18h2.4V371.88ZM663,389.14a4.85,4.85,0,1,1,4.63-4.86,4.57,4.57,0,0,1-4.63,4.86Zm22.77,2.19c3.67,0,6-1.59,6-4.08,0-5.36-8.74-2.71-8.74-6,0-1.09,1.07-1.9,3.25-1.9a7.19,7.19,0,0,1,4,1.1l1.06-2a10,10,0,0,0-5-1.25c-3.54,0-5.75,1.67-5.75,4.14,0,5.48,8.71,2.8,8.71,5.9,0,1.17-1,1.87-3.27,1.87a8.87,8.87,0,0,1-4.84-1.43l-1,2a9.92,9.92,0,0,0,5.69,1.61Zm10.32-16.59a1.64,1.64,0,0,0,1.7-1.66,1.62,1.62,0,0,0-1.7-1.59,1.65,1.65,0,0,0-1.69,1.64,1.62,1.62,0,0,0,1.69,1.61Zm-1.24,16.43h2.49V377.39h-2.49v13.78Zm24.49-13.91a6.22,6.22,0,0,0-5.31,2.55,5.08,5.08,0,0,0-4.78-2.55,5.58,5.58,0,0,0-4.76,2.19v-2.06h-2.39v13.78h2.5v-7.1c0-3,1.63-4.57,4.13-4.57,2.26,0,3.56,1.32,3.56,4v7.64h2.5v-7.1c0-3,1.64-4.57,4.13-4.57,2.26,0,3.56,1.32,3.56,4v7.64H725v-7.93c0-4.05-2.29-6-5.64-6Zm17.55,0a5.87,5.87,0,0,0-4.92,2.32v-2.19h-2.39v18.83h2.5v-7.13a5.89,5.89,0,0,0,4.81,2.24,7,7,0,0,0,0-14.07Zm-.21,11.88a4.85,4.85,0,1,1,4.65-4.86,4.55,4.55,0,0,1-4.65,4.86Zm10.63,2h2.5V371.88h-2.5v19.29ZM767,384.36c0-4.24-2.83-7.1-6.81-7.1a6.75,6.75,0,0,0-6.92,7c0,4.11,3,7.05,7.41,7.05a6.92,6.92,0,0,0,5.44-2.24l-1.38-1.61a5.14,5.14,0,0,1-4,1.66c-2.73,0-4.68-1.61-5-4H767a6.59,6.59,0,0,0,0-.75Zm-6.81-5a4.3,4.3,0,0,1,4.42,3.95H755.8a4.3,4.3,0,0,1,4.42-3.95Z"/></svg>