<svg id="Layer_1" data-name="Layer 1" xmlns="http://www.w3.org/2000/svg" viewBox="0 0 1920 1080.09"><defs><style>.cls-1{fill:#fff;opacity:0.01;}.cls-2{fill:#efd387;}</style></defs><title>stars</title><rect class="cls-1" x="0.08" width="1" height="1"/><rect class="cls-1" x="1919" width="1" height="1"/><rect class="cls-1" x="1919" y="1079.09" width="1" height="1"/><rect class="cls-1" y="1079" width="1" height="1"/><polygon class="cls-2" points="1548.52 561.45 1553.72 582.71 1572.51 584.29 1556.73 594.53 1562.16 613.83 1546.48 601.07 1530.15 611.78 1537.14 593.28 1523.29 583.43 1541.62 581.93 1548.52 561.45"/><polygon class="cls-2" points="1502.21 569.88 1506.35 586.79 1521.3 588.05 1508.74 596.2 1513.07 611.55 1500.59 601.4 1487.59 609.93 1493.16 595.2 1482.13 587.36 1496.72 586.18 1502.21 569.88"/><polygon class="cls-2" points="1464.84 576.34 1468.23 590.2 1480.47 591.23 1470.19 597.91 1473.73 610.48 1463.51 602.16 1452.87 609.15 1457.42 597.09 1448.39 590.67 1460.34 589.69 1464.84 576.34"/></svg>