<svg id="Layer_1" data-name="Layer 1" xmlns="http://www.w3.org/2000/svg" viewBox="0 0 2120 1280.09"><defs><style>.cls-1,.cls-2{fill:#fff;}.cls-1{opacity:0.01;}</style></defs><title>white-mtn</title><rect class="cls-1" x="0.08" width="1" height="1"/><rect class="cls-1" x="1919" width="1" height="1"/><rect class="cls-1" x="1919" y="1079.09" width="1" height="1"/><rect class="cls-1" y="1079" width="1" height="1"/><path class="cls-2" d="M.37,972.9C22.55,941,126,905,190.2,896.78,258.65,888,287.27,900,388,891.45c61.43-5.2,105.32-14.75,162-27.31,168.11-37.27,173.87-62.83,271.48-79.27,131.75-22.19,133.87,22.23,295.17,7.94,94.7-8.4,89.37-23.3,270.22-56.92,111.72-20.76,175.9-32.69,260-34.25,75.35-1.39,167.94,5.52,273.22,32.7q-.49,172.39-1,344.77H0Z"/></svg>